# Blender v3.0.1 OBJ File: ''
# www.blender.org
mtllib lab_mesh_neg_x.mtl
o dining_room
v -2.850829 0.246031 0.500000
v -0.249467 4.064277 0.500000
v -2.770675 4.137145 0.500000
v -0.293187 0.282464 0.500000
v -1.444491 0.267891 0.500000
v -2.850829 0.246031 0.500000
v -0.249467 4.064277 0.500000
v -2.770675 4.137145 0.500000
v -0.293187 0.282464 0.500000
v -1.444491 0.267891 0.500000
v -2.850829 0.246031 -1.224526
v -0.249467 4.064277 -1.224526
v -2.770675 4.137145 -1.224526
v -0.293187 0.282464 -1.224526
v -1.444491 0.267891 -1.224526
vt 0.000000 0.000000
vt 0.000000 0.000000
vt 0.000000 0.000000
vt 0.000000 0.000000
vt 0.000000 0.000000
vt 0.000000 0.000000
vt 0.000000 0.000000
vt 0.000000 0.000000
vt 0.000000 0.000000
vt 0.000000 0.000000
vt 0.000000 0.000000
vt 0.000000 0.000000
vt 0.000000 0.000000
vt 0.000000 0.000000
vt 0.000000 0.000000
vn 0.0000 0.0000 -1.0000
vn -0.0155 0.9999 0.0000
vn 0.0000 0.0000 1.0000
vn -0.0289 -0.9996 0.0000
vn -0.9999 0.0116 0.0000
vn -0.0127 0.9999 0.0000
vn 0.9998 -0.0206 0.0000
usemtl None
s off
f 5/1/1 1/2/1 3/3/1
f 10/4/2 11/5/2 6/6/2
f 2/7/3 9/8/3 4/9/3
f 4/9/3 10/4/3 5/1/3
f 1/2/3 8/10/3 3/3/3
f 5/1/3 6/6/3 1/2/3
f 3/3/3 7/11/3 2/7/3
f 13/12/3 11/5/3 15/13/3
f 8/10/4 12/14/4 7/11/4
f 7/11/5 14/15/5 9/8/5
f 9/8/6 15/13/6 10/4/6
f 6/6/7 13/12/7 8/10/7
f 3/3/1 2/7/1 5/1/1
f 2/7/1 4/9/1 5/1/1
f 10/4/2 15/13/2 11/5/2
f 2/7/3 7/11/3 9/8/3
f 4/9/3 9/8/3 10/4/3
f 1/2/3 6/6/3 8/10/3
f 5/1/3 10/4/3 6/6/3
f 3/3/3 8/10/3 7/11/3
f 14/15/3 12/14/3 15/13/3
f 12/14/3 13/12/3 15/13/3
f 8/10/4 13/12/4 12/14/4
f 7/11/5 12/14/5 14/15/5
f 9/8/6 14/15/6 15/13/6
f 6/6/7 11/5/7 13/12/7
o bed_room_bedroom
v -2.850829 0.246031 0.500000
v -3.011137 -3.703377 0.500000
v -1.459064 -3.921979 0.500000
v -1.444491 0.267891 0.500000
v -2.850829 0.246031 0.500000
v -3.011137 -3.703377 0.500000
v -1.459064 -3.921979 0.500000
v -1.444491 0.267891 0.500000
v -2.850829 0.246031 -1.224526
v -3.011137 -3.703377 -1.224526
v -1.459064 -3.921979 -1.224526
v -1.444491 0.267891 -1.224526
vt 0.000000 0.000000
vt 0.000000 0.000000
vt 0.000000 0.000000
vt 0.000000 0.000000
vt 0.000000 0.000000
vt 0.000000 0.000000
vt 0.000000 0.000000
vt 0.000000 0.000000
vt 0.000000 0.000000
vt 0.000000 0.000000
vt 0.000000 0.000000
vt 0.000000 0.000000
vn 0.0000 0.0000 -1.0000
vn 0.0155 -0.9999 0.0000
vn 0.0000 0.0000 1.0000
vn 0.1395 0.9902 0.0000
vn -1.0000 0.0035 0.0000
vn 0.9992 -0.0406 0.0000
usemtl None
s off
f 17/16/8 19/17/8 18/18/8
f 20/19/9 27/20/9 23/21/9
f 17/16/10 20/19/10 16/22/10
f 16/22/10 23/21/10 19/17/10
f 18/18/10 21/23/10 17/16/10
f 19/17/10 22/24/10 18/18/10
f 25/25/10 27/20/10 24/26/10
f 22/24/11 25/25/11 21/23/11
f 23/21/12 26/27/12 22/24/12
f 21/23/13 24/26/13 20/19/13
f 17/16/8 16/22/8 19/17/8
f 20/19/9 24/26/9 27/20/9
f 17/16/10 21/23/10 20/19/10
f 16/22/10 20/19/10 23/21/10
f 18/18/10 22/24/10 21/23/10
f 19/17/10 23/21/10 22/24/10
f 25/25/10 26/27/10 27/20/10
f 22/24/11 26/27/11 25/25/11
f 23/21/12 27/20/12 26/27/12
f 21/23/13 25/25/13 24/26/13
o bath_room_bathroom
v -1.459064 -3.921979 0.500000
v -0.293187 0.282464 0.500000
v -1.444491 0.267891 0.500000
v -0.060012 -3.972986 0.500000
v -1.459064 -3.921979 0.500000
v -0.293187 0.282464 0.500000
v -1.444491 0.267891 0.500000
v -0.060012 -3.972986 0.500000
v -1.459064 -3.921979 -1.224526
v -0.293187 0.282464 -1.224526
v -1.444491 0.267891 -1.224526
v -0.060012 -3.972986 -1.224526
vt 0.000000 0.000000
vt 0.000000 0.000000
vt 0.000000 0.000000
vt 0.000000 0.000000
vt 0.000000 0.000000
vt 0.000000 0.000000
vt 0.000000 0.000000
vt 0.000000 0.000000
vt 0.000000 0.000000
vt 0.000000 0.000000
vt 0.000000 0.000000
vt 0.000000 0.000000
vn 0.0000 0.0000 -1.0000
vn 0.0364 0.9993 0.0000
vn 0.0000 0.0000 1.0000
vn 0.0127 -0.9999 0.0000
vn -0.9985 -0.0547 0.0000
vn 1.0000 -0.0035 0.0000
usemtl None
s off
f 29/28/14 28/29/14 30/30/14
f 35/31/15 36/32/15 32/33/15
f 31/34/16 32/33/16 28/29/16
f 30/30/16 33/35/16 29/28/16
f 29/28/16 35/31/16 31/34/16
f 28/29/16 34/36/16 30/30/16
f 37/37/16 36/32/16 39/38/16
f 34/36/17 37/37/17 33/35/17
f 33/35/18 39/38/18 35/31/18
f 32/33/19 38/39/19 34/36/19
f 29/28/14 31/34/14 28/29/14
f 35/31/15 39/38/15 36/32/15
f 31/34/16 35/31/16 32/33/16
f 30/30/16 34/36/16 33/35/16
f 29/28/16 33/35/16 35/31/16
f 28/29/16 32/33/16 34/36/16
f 37/37/16 38/39/16 36/32/16
f 34/36/17 38/39/17 37/37/17
f 33/35/18 37/37/18 39/38/18
f 32/33/19 36/32/19 38/39/19
o living_room
v 3.131576 0.246031 0.500000
v 1.754384 0.246031 0.500000
v -0.293187 0.282464 0.500000
v -0.060012 -3.972986 0.500000
v 3.685367 -4.082287 0.500000
v 3.991410 0.144017 0.500000
v 3.131576 0.246031 0.500000
v 1.754384 0.246031 0.500000
v -0.293187 0.282464 0.500000
v -0.060012 -3.972986 0.500000
v 3.685367 -4.082287 0.500000
v 3.991410 0.144017 0.500000
v 3.131576 0.246031 -1.224526
v 1.754384 0.246031 -1.224526
v -0.293187 0.282464 -1.224526
v -0.060012 -3.972986 -1.224526
v 3.685367 -4.082287 -1.224526
v 3.991410 0.144017 -1.224526
vt 0.000000 0.000000
vt 0.000000 0.000000
vt 0.000000 0.000000
vt 0.000000 0.000000
vt 0.000000 0.000000
vt 0.000000 0.000000
vt 0.000000 0.000000
vt 0.000000 0.000000
vt 0.000000 0.000000
vt 0.000000 0.000000
vt 0.000000 0.000000
vt 0.000000 0.000000
vt 0.000000 0.000000
vt 0.000000 0.000000
vt 0.000000 0.000000
vt 0.000000 0.000000
vt 0.000000 0.000000
vt 0.000000 0.000000
vn 0.0000 0.0000 1.0000
vn 0.9974 -0.0722 0.0000
vn -0.0000 0.0000 -1.0000
vn -0.9985 -0.0547 0.0000
vn 0.1178 0.9930 0.0000
vn -0.0292 -0.9996 0.0000
vn 0.0178 0.9998 0.0000
vn 0.0000 1.0000 0.0000
usemtl None
s off
f 43/40/20 44/41/20 41/42/20
f 50/43/21 57/44/21 51/45/21
f 40/46/20 47/47/20 41/42/20
f 44/41/20 51/45/20 45/48/20
f 42/49/20 49/50/20 43/40/20
f 45/48/20 46/51/20 40/46/20
f 43/40/20 50/43/20 44/41/20
f 41/42/20 48/52/20 42/49/20
f 55/53/22 54/54/22 53/55/22
f 48/52/23 55/53/23 49/50/23
f 51/45/24 52/56/24 46/51/24
f 49/50/25 56/57/25 50/43/25
f 47/47/26 54/54/26 48/52/26
f 46/51/27 53/55/27 47/47/27
f 45/48/20 40/46/20 44/41/20
f 40/46/20 41/42/20 44/41/20
f 41/42/20 42/49/20 43/40/20
f 50/43/21 56/57/21 57/44/21
f 40/46/20 46/51/20 47/47/20
f 44/41/20 50/43/20 51/45/20
f 42/49/20 48/52/20 49/50/20
f 45/48/20 51/45/20 46/51/20
f 43/40/20 49/50/20 50/43/20
f 41/42/20 47/47/20 48/52/20
f 53/55/22 52/56/22 56/57/22
f 52/56/22 57/44/22 56/57/22
f 56/57/22 55/53/22 53/55/22
f 48/52/23 54/54/23 55/53/23
f 51/45/24 57/44/24 52/56/24
f 49/50/25 55/53/25 56/57/25
f 47/47/26 53/55/26 54/54/26
f 46/51/27 52/56/27 53/55/27
o kitchen
v 1.827251 4.042417 0.500000
v -0.249467 4.064277 0.500000
v 1.754384 0.246031 0.500000
v -0.293187 0.282464 0.500000
v 1.827251 4.042417 0.500000
v -0.249467 4.064277 0.500000
v 1.754384 0.246031 0.500000
v -0.293187 0.282464 0.500000
v 1.827251 4.042417 -1.224526
v -0.249467 4.064277 -1.224526
v 1.754384 0.246031 -1.224526
v -0.293187 0.282464 -1.224526
vt 0.000000 0.000000
vt 0.000000 0.000000
vt 0.000000 0.000000
vt 0.000000 0.000000
vt 0.000000 0.000000
vt 0.000000 0.000000
vt 0.000000 0.000000
vt 0.000000 0.000000
vt 0.000000 0.000000
vt 0.000000 0.000000
vt 0.000000 0.000000
vt 0.000000 0.000000
vn 0.0000 0.0000 1.0000
vn 0.9998 -0.0192 0.0000
vn 0.0000 0.0000 -1.0000
vn -0.9999 0.0116 0.0000
vn 0.0105 0.9999 0.0000
vn -0.0178 -0.9998 0.0000
usemtl None
s off
f 59/58/28 60/59/28 58/60/28
f 64/61/29 66/62/29 62/63/29
f 58/60/28 63/64/28 59/58/28
f 61/65/28 64/61/28 60/59/28
f 60/59/28 62/63/28 58/60/28
f 59/58/28 65/66/28 61/65/28
f 68/67/30 67/68/30 66/62/30
f 63/64/31 69/69/31 65/66/31
f 62/63/32 67/68/32 63/64/32
f 65/66/33 68/67/33 64/61/33
f 59/58/28 61/65/28 60/59/28
f 64/61/29 68/67/29 66/62/29
f 58/60/28 62/63/28 63/64/28
f 61/65/28 65/66/28 64/61/28
f 60/59/28 64/61/28 62/63/28
f 59/58/28 63/64/28 65/66/28
f 68/67/30 69/69/30 67/68/30
f 63/64/31 67/68/31 69/69/31
f 62/63/32 66/62/32 67/68/32
f 65/66/33 69/69/33 68/67/33
o door
v 3.131576 0.246031 0.500000
v 1.827251 4.042417 0.500000
v 3.146149 3.903969 0.500000
v 1.754384 0.246031 0.500000
v 3.131576 0.246031 0.500000
v 1.827251 4.042417 0.500000
v 3.146149 3.903969 0.500000
v 1.754384 0.246031 0.500000
v 3.131576 0.246031 -1.224526
v 1.827251 4.042417 -1.224526
v 3.146149 3.903969 -1.224526
v 1.754384 0.246031 -1.224526
vt 0.000000 0.000000
vt 0.000000 0.000000
vt 0.000000 0.000000
vt 0.000000 0.000000
vt 0.000000 0.000000
vt 0.000000 0.000000
vt 0.000000 0.000000
vt 0.000000 0.000000
vt 0.000000 0.000000
vt 0.000000 0.000000
vt 0.000000 0.000000
vt 0.000000 0.000000
vn 0.0000 0.0000 1.0000
vn 0.0000 -1.0000 0.0000
vn 0.0000 0.0000 -1.0000
vn 1.0000 -0.0040 0.0000
vn -0.9998 0.0192 0.0000
vn 0.1044 0.9945 0.0000
usemtl None
s off
f 72/70/34 73/71/34 70/72/34
f 77/73/35 78/74/35 74/75/35
f 71/76/34 77/73/34 73/71/34
f 72/70/34 75/77/34 71/76/34
f 73/71/34 74/75/34 70/72/34
f 70/72/34 76/78/34 72/70/34
f 81/79/36 80/80/36 78/74/36
f 74/75/37 80/80/37 76/78/37
f 75/77/38 81/79/38 77/73/38
f 76/78/39 79/81/39 75/77/39
f 72/70/34 71/76/34 73/71/34
f 77/73/35 81/79/35 78/74/35
f 71/76/34 75/77/34 77/73/34
f 72/70/34 76/78/34 75/77/34
f 73/71/34 77/73/34 74/75/34
f 70/72/34 74/75/34 76/78/34
f 81/79/36 79/81/36 80/80/36
f 74/75/37 78/74/37 80/80/37
f 75/77/38 79/81/38 81/79/38
f 76/78/39 80/80/39 79/81/39
