# Blender v3.6.1 OBJ File: ''
# www.blender.org
mtllib labxf.mtl
o outside
v 1.163386 4.080788 0.734530
v 3.341079 0.372825 0.734530
v 3.423478 -4.076731 0.734530
v 1.010359 -4.017874 0.734530
v -2.980115 -0.321682 0.734530
v -3.815878 -0.192198 0.734530
v 5.172695 3.433366 0.734530
v 5.017313 0.445807 0.734530
v 4.934915 -4.060251 0.734530
v 4.715968 -6.315635 0.734530
v 3.157446 -6.249715 0.734530
v 0.838498 -6.379200 0.734530
v -2.026639 -3.911932 0.734530
v -2.233814 -6.602855 0.734530
v -3.493345 -6.579312 0.734530
v -4.317337 -6.485142 0.734530
v -3.262627 -3.900161 0.734530
v -5.051866 -3.335139 0.734530
v -5.101305 -0.206324 0.734530
v -5.115431 4.243232 0.734530
v -4.437404 5.938301 0.734530
v -3.194353 5.938301 0.734530
v -3.686394 4.033703 0.734530
v -0.243050 4.085025 0.734530
v -0.030225 5.980678 0.734530
v 3.588276 3.986618 0.734530
v 4.913725 6.008929 0.734530
v 3.656549 6.037180 0.734530
v 3.341079 0.372825 -1.271302
v 3.423478 -4.076731 -1.271302
v -2.980115 -0.321682 -1.271302
v -3.815878 -0.192198 -1.271302
v 1.010359 -4.017874 -1.271302
v 5.172695 3.433366 -1.271302
v 5.017313 0.445807 -1.271302
v 4.934915 -4.060251 -1.271302
v 4.715968 -6.315635 -1.271302
v 3.157446 -6.249715 -1.271302
v 0.838498 -6.379200 -1.271302
v -2.026639 -3.911932 -1.271302
v -2.233814 -6.602855 -1.271302
v -3.493345 -6.579312 -1.271302
v -4.317337 -6.485142 -1.271302
v -5.051866 -3.335139 -1.271302
v -3.262627 -3.900161 -1.271302
v -5.101305 -0.206324 -1.271302
v -5.115431 4.243232 -1.271302
v -4.437404 5.938301 -1.271302
v -3.194353 5.938301 -1.271302
v 3.588276 3.986618 -1.271302
v 1.163386 4.080788 -1.271302
v -3.686394 4.033703 -1.271302
v -0.030225 5.980678 -1.271302
v -0.243050 4.085025 -1.271302
v 3.656549 6.037180 -1.271302
v 4.913725 6.008929 -1.271302
vt 0.000000 0.000000
vt 0.000000 0.000000
vt 0.000000 0.000000
vt 0.000000 0.000000
vt 0.000000 0.000000
vt 0.000000 0.000000
vt 0.000000 0.000000
vt 0.000000 0.000000
vt 0.000000 0.000000
vt 0.000000 0.000000
vt 0.000000 0.000000
vt 0.000000 0.000000
vt 0.000000 0.000000
vt 0.000000 0.000000
vt 0.000000 0.000000
vt 0.000000 0.000000
vt 0.000000 0.000000
vt 0.000000 0.000000
vt 0.000000 0.000000
vt 0.000000 0.000000
vt 0.000000 0.000000
vt 0.000000 0.000000
vt 0.000000 0.000000
vt 0.000000 0.000000
vt 0.000000 0.000000
vt 0.000000 0.000000
vt 0.000000 0.000000
vt 0.000000 0.000000
vt 0.000000 0.000000
vt 0.000000 0.000000
vt 0.000000 0.000000
vt 0.000000 0.000000
vt 0.000000 0.000000
vt 0.000000 0.000000
vt 0.000000 0.000000
vt 0.000000 0.000000
vt 0.000000 0.000000
vt 0.000000 0.000000
vt 0.000000 0.000000
vt 0.000000 0.000000
vt 0.000000 0.000000
vt 0.000000 0.000000
vt 0.000000 0.000000
vt 0.000000 0.000000
vt 0.000000 0.000000
vt 0.000000 0.000000
vt 0.000000 0.000000
vt 0.000000 0.000000
vt 0.000000 0.000000
vt 0.000000 0.000000
vt 0.000000 0.000000
vt 0.000000 0.000000
vt 0.000000 0.000000
vt 0.000000 0.000000
vt 0.000000 0.000000
vt 0.000000 0.000000
vn 0.0000 0.0000 1.0000
vn -0.0000 0.0000 -1.0000
vn -0.9998 0.0183 0.0000
vn -0.0153 0.9999 0.0000
vn -0.9969 0.0787 0.0000
vn 1.0000 0.0032 0.0000
vn -0.9953 0.0966 0.0000
vn -0.0349 -0.9994 0.0000
vn -0.9285 0.3714 0.0000
vn 0.0423 0.9991 0.0000
vn -0.0095 -1.0000 0.0000
vn 0.0000 1.0000 0.0000
vn -0.0558 0.9984 0.0000
vn -0.0388 -0.9992 0.0000
vn -0.9995 0.0306 0.0000
vn 0.9950 0.1000 0.0000
vn -0.0134 0.9999 0.0000
vn 0.0187 0.9998 0.0000
vn -0.9977 0.0682 0.0000
vn 0.9998 0.0185 0.0000
vn -0.0726 0.9974 0.0000
vn -0.1531 -0.9882 0.0000
vn -0.0030 -1.0000 0.0000
vn 0.1135 0.9935 0.0000
vn -0.0244 -0.9997 0.0000
vn 0.0149 -0.9999 0.0000
vn 0.9739 0.2271 0.0000
vn 0.9987 -0.0519 0.0000
vn 0.0225 0.9997 0.0000
vn 0.9999 0.0158 0.0000
usemtl None
s off
f 22/1/1 24/2/1 25/3/1
f 25/3/1 24/2/1 1/4/1
f 21/5/1 23/6/1 22/1/1
f 27/7/1 26/8/1 7/9/1
f 7/9/1 2/10/1 8/11/1
f 2/10/2 9/12/2 3/13/2
f 10/14/2 3/13/2 9/12/2
f 4/15/2 11/16/2 12/17/2
f 12/17/2 13/18/2 4/15/2
f 14/19/2 17/20/2 13/18/2
f 16/21/2 17/20/2 15/22/2
f 5/23/2 17/20/2 18/24/2
f 19/25/2 23/6/2 6/26/2
f 49/27/2 54/28/2 52/29/2
f 51/30/2 53/31/2 55/32/2
f 48/33/2 52/29/2 47/34/2
f 56/35/2 50/36/2 55/32/2
f 34/37/2 29/38/2 50/36/2
f 36/39/1 29/38/1 30/40/1
f 37/41/1 30/40/1 38/42/1
f 33/43/1 38/42/1 30/40/1
f 39/44/1 40/45/1 41/46/1
f 41/46/1 45/47/1 42/48/1
f 45/47/1 43/49/1 42/48/1
f 44/50/1 45/47/1 31/51/1
f 52/29/1 46/52/1 32/53/1
f 8/11/3 36/39/3 9/12/3
f 28/54/4 53/31/4 25/3/4
f 5/23/5 45/47/5 17/20/5
f 19/25/6 47/34/6 20/55/6
f 9/12/7 37/41/7 10/14/7
f 13/18/8 33/43/8 4/15/8
f 21/5/9 47/34/9 20/55/9
f 10/14/10 38/42/10 11/16/10
f 17/20/11 40/45/11 13/18/11
f 22/1/12 48/33/12 21/5/12
f 11/16/13 39/44/13 12/17/13
f 1/4/14 50/36/14 26/8/14
f 23/6/15 32/53/15 6/26/15
f 7/9/16 56/35/16 27/7/16
f 25/3/17 49/27/17 22/1/17
f 14/19/18 42/48/18 15/22/18
f 26/8/19 29/38/19 2/10/19
f 3/13/20 29/38/20 2/10/20
f 12/17/21 41/46/21 14/19/21
f 6/26/22 31/51/22 5/23/22
f 24/2/23 51/30/23 1/4/23
f 15/22/24 43/49/24 16/21/24
f 4/15/25 30/40/25 3/13/25
f 23/6/26 54/28/26 24/2/26
f 16/21/27 44/50/27 18/24/27
f 8/11/28 34/37/28 7/9/28
f 27/7/29 55/32/29 28/54/29
f 18/24/30 46/52/30 19/25/30
f 22/1/1 23/6/1 24/2/1
f 1/4/1 26/8/1 28/54/1
f 28/54/1 25/3/1 1/4/1
f 21/5/1 20/55/1 23/6/1
f 27/7/1 28/54/1 26/8/1
f 7/9/1 26/8/1 2/10/1
f 2/10/2 8/11/2 9/12/2
f 10/14/2 11/16/2 3/13/2
f 4/15/2 3/13/2 11/16/2
f 12/17/2 14/19/2 13/18/2
f 14/19/2 15/22/2 17/20/2
f 16/21/2 18/24/2 17/20/2
f 19/25/2 6/26/2 18/24/2
f 6/26/2 5/23/2 18/24/2
f 19/25/2 20/55/2 23/6/2
f 49/27/2 53/31/2 54/28/2
f 55/32/2 50/36/2 51/30/2
f 51/30/2 54/28/2 53/31/2
f 48/33/2 49/27/2 52/29/2
f 56/35/2 34/37/2 50/36/2
f 34/37/2 35/56/2 29/38/2
f 36/39/1 35/56/1 29/38/1
f 37/41/1 36/39/1 30/40/1
f 33/43/1 39/44/1 38/42/1
f 39/44/1 33/43/1 40/45/1
f 41/46/1 40/45/1 45/47/1
f 45/47/1 44/50/1 43/49/1
f 31/51/1 32/53/1 44/50/1
f 32/53/1 46/52/1 44/50/1
f 52/29/1 47/34/1 46/52/1
f 8/11/3 35/56/3 36/39/3
f 28/54/4 55/32/4 53/31/4
f 5/23/5 31/51/5 45/47/5
f 19/25/6 46/52/6 47/34/6
f 9/12/7 36/39/7 37/41/7
f 13/18/8 40/45/8 33/43/8
f 21/5/9 48/33/9 47/34/9
f 10/14/10 37/41/10 38/42/10
f 17/20/11 45/47/11 40/45/11
f 22/1/12 49/27/12 48/33/12
f 11/16/13 38/42/13 39/44/13
f 1/4/14 51/30/14 50/36/14
f 23/6/15 52/29/15 32/53/15
f 7/9/16 34/37/16 56/35/16
f 25/3/17 53/31/17 49/27/17
f 14/19/18 41/46/18 42/48/18
f 26/8/19 50/36/19 29/38/19
f 3/13/20 30/40/20 29/38/20
f 12/17/21 39/44/21 41/46/21
f 6/26/22 32/53/22 31/51/22
f 24/2/23 54/28/23 51/30/23
f 15/22/24 42/48/24 43/49/24
f 4/15/25 33/43/25 30/40/25
f 23/6/26 52/29/26 54/28/26
f 16/21/27 43/49/27 44/50/27
f 8/11/28 35/56/28 34/37/28
f 27/7/29 56/35/29 55/32/29
f 18/24/30 44/50/30 46/52/30
o bedroom
v 1.163386 4.080788 0.734530
v 3.588276 3.986618 0.734530
v 3.341079 0.372825 0.734530
v 1.069216 0.702421 0.734530
v 1.163386 4.080788 -1.271302
v 3.588276 3.986618 -1.271302
v 3.341079 0.372825 -1.271302
v 1.069216 0.702421 -1.271302
vt 0.000000 0.000000
vt 0.000000 0.000000
vt 0.000000 0.000000
vt 0.000000 0.000000
vt 0.000000 0.000000
vt 0.000000 0.000000
vt 0.000000 0.000000
vt 0.000000 0.000000
vn 0.0000 0.0000 -1.0000
vn 0.0000 0.0000 1.0000
vn 0.9996 -0.0279 0.0000
vn -0.0388 -0.9992 0.0000
vn 0.1436 0.9896 0.0000
vn -0.9977 0.0682 0.0000
usemtl None
s off
f 58/57/31 60/58/31 57/59/31
f 64/60/32 62/61/32 61/62/32
f 60/58/33 61/62/33 57/59/33
f 57/59/34 62/61/34 58/57/34
f 59/63/35 64/60/35 60/58/35
f 58/57/36 63/64/36 59/63/36
f 58/57/31 59/63/31 60/58/31
f 64/60/32 63/64/32 62/61/32
f 60/58/33 64/60/33 61/62/33
f 57/59/34 61/62/34 62/61/34
f 59/63/35 63/64/35 64/60/35
f 58/57/36 62/61/36 63/64/36
o bathroom
v -0.243050 4.085025 0.734530
v 1.163386 4.080788 0.734530
v 1.069216 0.702421 0.734530
v -0.378656 0.796592 0.734530
v -0.243050 4.085025 -1.271302
v 1.163386 4.080788 -1.271302
v 1.069216 0.702421 -1.271302
v -0.378656 0.796592 -1.271302
vt 0.000000 0.000000
vt 0.000000 0.000000
vt 0.000000 0.000000
vt 0.000000 0.000000
vt 0.000000 0.000000
vt 0.000000 0.000000
vt 0.000000 0.000000
vt 0.000000 0.000000
vn 0.0000 0.0000 -1.0000
vn -0.0000 0.0000 1.0000
vn 0.9992 -0.0412 0.0000
vn -0.0030 -1.0000 0.0000
vn 0.0649 0.9979 0.0000
vn -0.9996 0.0279 0.0000
usemtl None
s off
f 66/65/37 68/66/37 65/67/37
f 70/68/38 72/69/38 71/70/38
f 68/66/39 69/71/39 65/67/39
f 65/67/40 70/68/40 66/65/40
f 67/72/41 72/69/41 68/66/41
f 66/65/42 71/70/42 67/72/42
f 66/65/37 67/72/37 68/66/37
f 70/68/38 69/71/38 72/69/38
f 68/66/39 72/69/39 69/71/39
f 65/67/40 69/71/40 70/68/40
f 67/72/41 71/70/41 72/69/41
f 66/65/42 70/68/42 71/70/42
o dining_room
v 3.341079 0.372825 0.734530
v 3.423478 -4.076731 0.734530
v 1.069216 0.702421 0.734530
v 1.010359 -4.017874 0.734530
v 3.341079 0.372825 -1.271302
v 3.423478 -4.076731 -1.271302
v 1.069216 0.702421 -1.271302
v 1.010359 -4.017874 -1.271302
vt 0.000000 0.000000
vt 0.000000 0.000000
vt 0.000000 0.000000
vt 0.000000 0.000000
vt 0.000000 0.000000
vt 0.000000 0.000000
vt 0.000000 0.000000
vt 0.000000 0.000000
vn -0.0000 0.0000 -1.0000
vn -0.0000 0.0000 1.0000
vn -0.1436 -0.9896 0.0000
vn -0.9998 -0.0185 0.0000
vn 0.0244 0.9997 0.0000
vn 0.9999 -0.0125 0.0000
usemtl None
s off
f 76/73/43 73/74/43 74/75/43
f 77/76/44 80/77/44 78/78/44
f 75/79/45 77/76/45 73/74/45
f 73/74/46 78/78/46 74/75/46
f 74/75/47 80/77/47 76/73/47
f 76/73/48 79/80/48 75/79/48
f 76/73/43 75/79/43 73/74/43
f 77/76/44 79/80/44 80/77/44
f 75/79/45 79/80/45 77/76/45
f 73/74/46 77/76/46 78/78/46
f 74/75/47 78/78/47 80/77/47
f 76/73/48 80/77/48 79/80/48
o kitchen
v 1.069216 0.702421 0.734530
v 1.010359 -4.017874 0.734530
v -2.026639 -3.911932 0.734530
v -1.838298 -0.274597 0.734530
v -0.378656 0.796592 0.734530
v -0.425741 -0.309911 0.734530
v 1.069216 0.702421 -1.271302
v 1.010359 -4.017874 -1.271302
v -2.026639 -3.911932 -1.271302
v -1.838298 -0.274597 -1.271302
v -0.378656 0.796592 -1.271302
v -0.425741 -0.309911 -1.271302
vt 0.000000 0.000000
vt 0.000000 0.000000
vt 0.000000 0.000000
vt 0.000000 0.000000
vt 0.000000 0.000000
vt 0.000000 0.000000
vt 0.000000 0.000000
vt 0.000000 0.000000
vt 0.000000 0.000000
vt 0.000000 0.000000
vt 0.000000 0.000000
vt 0.000000 0.000000
vn -0.0000 0.0000 -1.0000
vn 0.0000 0.0000 1.0000
vn -0.0250 -0.9997 0.0000
vn 0.9991 -0.0425 0.0000
vn 0.0349 0.9994 0.0000
vn -0.0649 -0.9979 0.0000
vn 0.9987 -0.0517 0.0000
vn -0.9999 0.0125 0.0000
usemtl None
s off
f 86/81/49 85/82/49 81/83/49
f 92/84/50 90/85/50 89/86/50
f 84/87/51 92/84/51 86/81/51
f 86/81/52 91/88/52 85/82/52
f 82/89/53 89/86/53 83/90/53
f 85/82/54 87/91/54 81/83/54
f 83/90/55 90/85/55 84/87/55
f 81/83/56 88/92/56 82/89/56
f 81/83/49 82/89/49 86/81/49
f 82/89/49 83/90/49 86/81/49
f 83/90/49 84/87/49 86/81/49
f 89/86/50 88/92/50 92/84/50
f 88/92/50 87/91/50 92/84/50
f 87/91/50 91/88/50 92/84/50
f 84/87/51 90/85/51 92/84/51
f 86/81/52 92/84/52 91/88/52
f 82/89/53 88/92/53 89/86/53
f 85/82/54 91/88/54 87/91/54
f 83/90/55 89/86/55 90/85/55
f 81/83/56 87/91/56 88/92/56
o living_room
v -0.243050 4.085025 0.734530
v -1.838298 -0.274597 0.734530
v -0.378656 0.796592 0.734530
v -0.425741 -0.309911 0.734530
v -2.980115 -0.321682 0.734530
v -3.815878 -0.192198 0.734530
v -3.686394 4.033703 0.734530
v -0.378656 0.796592 -1.271302
v -0.425741 -0.309911 -1.271302
v -1.838298 -0.274597 -1.271302
v -2.980115 -0.321682 -1.271302
v -3.815878 -0.192198 -1.271302
v -3.686394 4.033703 -1.271302
v -0.243050 4.085025 -1.271302
vt 0.000000 0.000000
vt 0.000000 0.000000
vt 0.000000 0.000000
vt 0.000000 0.000000
vt 0.000000 0.000000
vt 0.000000 0.000000
vt 0.000000 0.000000
vt 0.000000 0.000000
vt 0.000000 0.000000
vt 0.000000 0.000000
vt 0.000000 0.000000
vt 0.000000 0.000000
vt 0.000000 0.000000
vt 0.000000 0.000000
vn -0.0000 0.0000 -1.0000
vn -0.0000 0.0000 1.0000
vn -0.9992 0.0412 0.0000
vn 0.9995 -0.0306 0.0000
vn -0.0412 0.9992 0.0000
vn 0.0250 0.9997 0.0000
vn 0.0149 -0.9999 0.0000
vn 0.1531 0.9882 0.0000
vn -0.9991 0.0425 0.0000
usemtl None
s off
f 99/93/57 95/94/57 94/95/57
f 105/96/58 102/97/58 100/98/58
f 93/99/59 100/98/59 95/94/59
f 98/100/60 105/96/60 99/93/60
f 94/95/61 103/101/61 97/102/61
f 96/103/62 102/97/62 94/95/62
f 99/93/63 106/104/63 93/99/63
f 97/102/64 104/105/64 98/100/64
f 95/94/65 101/106/65 96/103/65
f 99/93/57 93/99/57 95/94/57
f 95/94/57 96/103/57 94/95/57
f 94/95/57 97/102/57 99/93/57
f 97/102/57 98/100/57 99/93/57
f 100/98/58 106/104/58 105/96/58
f 105/96/58 104/105/58 103/101/58
f 102/97/58 101/106/58 100/98/58
f 105/96/58 103/101/58 102/97/58
f 93/99/59 106/104/59 100/98/59
f 98/100/60 104/105/60 105/96/60
f 94/95/61 102/97/61 103/101/61
f 96/103/62 101/106/62 102/97/62
f 99/93/63 105/96/63 106/104/63
f 97/102/64 103/101/64 104/105/64
f 95/94/65 100/98/65 101/106/65
o door
v -2.026639 -3.911932 0.734530
v -1.838298 -0.274597 0.734530
v -2.980115 -0.321682 0.734530
v -3.262627 -3.900161 0.734530
v -2.026639 -3.911932 -1.271302
v -1.838298 -0.274597 -1.271302
v -2.980115 -0.321682 -1.271302
v -3.262627 -3.900161 -1.271302
vt 0.000000 0.000000
vt 0.000000 0.000000
vt 0.000000 0.000000
vt 0.000000 0.000000
vt 0.000000 0.000000
vt 0.000000 0.000000
vt 0.000000 0.000000
vt 0.000000 0.000000
vn 0.0000 0.0000 -1.0000
vn 0.0000 0.0000 1.0000
vn 0.0095 1.0000 0.0000
vn 0.0412 -0.9992 0.0000
vn 0.9969 -0.0787 0.0000
vn -0.9987 0.0517 0.0000
usemtl None
s off
f 109/107/66 107/108/66 110/109/66
f 111/110/67 113/111/67 114/112/67
f 107/108/68 114/112/68 110/109/68
f 109/107/69 112/113/69 108/114/69
f 110/109/70 113/111/70 109/107/70
f 108/114/71 111/110/71 107/108/71
f 109/107/66 108/114/66 107/108/66
f 111/110/67 112/113/67 113/111/67
f 107/108/68 111/110/68 114/112/68
f 109/107/69 113/111/69 112/113/69
f 110/109/70 114/112/70 113/111/70
f 108/114/71 112/113/71 111/110/71
