# Blender 4.1.1
# www.blender.org
mtllib mesh_robot.mtl
o designated_space
v 0.577446 0.051631 1.255172
v 0.356943 0.899721 1.255172
v 2.392358 0.051631 1.255172
v 2.426281 2.511091 1.255172
v 0.289096 2.392359 1.255172
v 0.577446 0.051631 -1.740521
v 0.356943 0.899721 -1.740521
v 2.392358 0.051631 -1.740521
v 2.426281 2.511091 -1.740521
v 0.289096 2.392359 -1.740521
vn -0.0000 -0.0000 1.0000
vn -0.0000 -0.0000 -1.0000
vn -0.0000 -1.0000 -0.0000
vn -0.0555 0.9985 -0.0000
vn -0.9678 -0.2516 -0.0000
vn -0.9990 -0.0454 -0.0000
vn 0.9999 -0.0138 -0.0000
vt 0.000000 0.000000
s 0
f 2/1/1 3/1/1 4/1/1
f 8/1/2 6/1/2 7/1/2
f 1/1/3 8/1/3 3/1/3
f 4/1/4 10/1/4 5/1/4
f 2/1/5 6/1/5 1/1/5
f 5/1/6 7/1/6 2/1/6
f 3/1/7 9/1/7 4/1/7
f 4/1/1 5/1/1 2/1/1
f 2/1/1 1/1/1 3/1/1
f 7/1/2 10/1/2 9/1/2
f 9/1/2 8/1/2 7/1/2
f 1/1/3 6/1/3 8/1/3
f 4/1/4 9/1/4 10/1/4
f 2/1/5 7/1/5 6/1/5
f 5/1/6 10/1/6 7/1/6
f 3/1/7 8/1/7 9/1/7
o home
v -0.983038 0.899721 1.255172
v 0.577446 0.051631 1.255172
v -0.830382 -1.882013 1.255172
v 0.356943 0.899721 1.255172
v 2.392358 0.051631 1.255172
v 2.392358 -1.983784 1.255172
v -0.983038 0.899721 -1.740521
v 0.577446 0.051631 -1.740521
v -0.830382 -1.882013 -1.740521
v 0.356943 0.899721 -1.740521
v 2.392358 0.051631 -1.740521
v 2.392358 -1.983784 -1.740521
vn -0.0000 -0.0000 1.0000
vn -0.0000 -0.0000 -1.0000
vn 1.0000 -0.0000 -0.0000
vn 0.9678 0.2516 -0.0000
vn -0.9985 -0.0548 -0.0000
vn -0.0316 -0.9995 -0.0000
vn -0.0000 1.0000 -0.0000
vt 0.000000 0.000000
s 0
f 12/2/8 14/2/8 11/2/8
f 18/2/9 21/2/9 22/2/9
f 16/2/10 21/2/10 15/2/10
f 12/2/11 20/2/11 14/2/11
f 11/2/12 19/2/12 13/2/12
f 13/2/13 22/2/13 16/2/13
f 14/2/14 17/2/14 11/2/14
f 15/2/14 18/2/14 12/2/14
f 11/2/8 13/2/8 12/2/8
f 13/2/8 16/2/8 12/2/8
f 16/2/8 15/2/8 12/2/8
f 22/2/9 19/2/9 18/2/9
f 19/2/9 17/2/9 18/2/9
f 17/2/9 20/2/9 18/2/9
f 16/2/10 22/2/10 21/2/10
f 12/2/11 18/2/11 20/2/11
f 11/2/12 17/2/12 19/2/12
f 13/2/13 19/2/13 22/2/13
f 14/2/14 20/2/14 17/2/14
f 15/2/14 21/2/14 18/2/14
