# Blender 4.1.1
# www.blender.org
mtllib mesh_olson_rob.mtl
o home
v 1.635375 0.651364 2.014029
v 1.635375 2.651364 2.014029
v -0.364625 0.651364 2.014029
v -0.364625 2.651364 2.014029
v -0.364625 0.651364 -1.985971
v 1.635375 0.651364 -1.985971
v 1.635375 2.651364 -1.985971
v -0.364625 2.651364 -1.985971
vn -0.0000 -0.0000 -1.0000
vn -0.0000 -0.0000 1.0000
vn 1.0000 -0.0000 -0.0000
vn -1.0000 -0.0000 -0.0000
vn -0.0000 -1.0000 -0.0000
vn -0.0000 1.0000 -0.0000
vt 0.000000 1.000000
vt 1.000000 0.000000
vt 0.000000 0.000000
vt 1.000000 1.000000
s 0
f 3/1/1 2/2/1 1/3/1
f 7/2/2 5/1/2 6/3/2
f 3/1/3 8/4/3 4/4/3
f 2/2/4 6/3/4 1/3/4
f 4/4/5 7/2/5 2/2/5
f 1/3/6 5/1/6 3/1/6
f 3/1/1 4/4/1 2/2/1
f 7/2/2 8/4/2 5/1/2
f 3/1/3 5/1/3 8/4/3
f 2/2/4 7/2/4 6/3/4
f 4/4/5 8/4/5 7/2/5
f 1/3/6 6/3/6 5/1/6
o designated_space
v 1.635375 0.651364 2.014029
v -0.364625 0.651364 2.014029
v -0.364625 2.651364 2.014029
v -3.747894 2.654866 1.943187
v -3.455806 -2.414919 1.947078
v 3.232900 -2.256217 2.087205
v 3.093174 0.864493 2.085649
v -0.364625 0.651364 -1.985971
v 1.635375 0.651364 -1.985971
v -0.364625 2.651364 -1.985971
v -3.747894 2.654866 -2.056813
v -3.455806 -2.414919 -2.052922
v 3.232900 -2.256217 -1.912795
v 3.093174 0.864493 -1.914351
vn -0.0000 -0.0252 -0.9997
vn -0.0000 0.0252 0.9997
vn 0.1447 -0.9895 -0.0000
vn -0.0237 0.9997 -0.0000
vn -0.0010 -1.0000 -0.0000
vn -0.0000 -1.0000 -0.0000
vn -0.9990 -0.0447 -0.0000
vn 0.9983 0.0575 -0.0000
vn -1.0000 -0.0000 -0.0000
vn 0.0488 0.0017 -0.9988
vn 0.0209 0.0007 -0.9998
vn 0.0212 0.0005 -0.9998
vn 0.0209 -0.0000 -0.9998
vn -0.0209 -0.0000 0.9998
vn -0.0212 -0.0005 0.9998
vn -0.0209 -0.0007 0.9998
vn -0.0488 -0.0017 0.9988
vt 0.000000 1.000000
vt 0.000000 0.000000
vt 1.000000 1.000000
s 0
f 10/5/7 9/6/7 14/6/7
f 17/6/8 16/5/8 21/6/8
f 9/6/9 22/6/9 15/6/9
f 13/6/10 21/6/10 20/6/10
f 12/6/11 18/7/11 11/7/11
f 10/5/12 17/6/12 9/6/12
f 15/6/13 21/6/13 14/6/13
f 12/6/14 20/6/14 19/6/14
f 11/7/15 16/5/15 10/5/15
f 9/6/16 15/6/16 14/6/16
f 14/6/17 13/6/17 10/5/17
f 13/6/18 12/6/18 10/5/18
f 12/6/19 11/7/19 10/5/19
f 16/5/20 18/7/20 19/6/20
f 19/6/21 20/6/21 16/5/21
f 20/6/22 21/6/22 16/5/22
f 21/6/23 22/6/23 17/6/23
f 9/6/9 17/6/9 22/6/9
f 13/6/10 14/6/10 21/6/10
f 12/6/11 19/6/11 18/7/11
f 10/5/12 16/5/12 17/6/12
f 15/6/13 22/6/13 21/6/13
f 12/6/14 13/6/14 20/6/14
f 11/7/15 18/7/15 16/5/15
