# Blender 4.1.1
# www.blender.org
mtllib mesh_olson.mtl
o bedroom
v -4.671754 -0.396424 2.500000
v -3.380773 -2.324513 2.500000
v -3.531667 -0.396424 2.500000
v -5.935911 -2.304394 2.500000
v -5.996269 0.009314 2.500000
v -4.685321 0.136033 2.500000
v -4.685321 0.136033 -1.500000
v -4.671754 -0.396424 -1.500000
v -3.380773 -2.324513 -1.500000
v -3.531667 -0.396424 -1.500000
v -5.935911 -2.304394 -1.500000
v -5.996269 0.009314 -1.500000
vn -0.0000 -0.0000 1.0000
vn -0.0000 -0.0000 -1.0000
vn -0.9997 -0.0261 -0.0000
vn -0.0000 1.0000 -0.0000
vn 0.9997 0.0255 -0.0000
vn -0.0962 0.9954 -0.0000
vn -0.0079 -1.0000 -0.0000
vn 0.9970 0.0780 -0.0000
vt 0.000000 0.000000
s 0
f 2/1/1 3/1/1 1/1/1
f 11/1/2 12/1/2 8/1/2
f 5/1/3 11/1/3 4/1/3
f 3/1/4 8/1/4 1/1/4
f 1/1/5 7/1/5 6/1/5
f 6/1/6 12/1/6 5/1/6
f 4/1/7 9/1/7 2/1/7
f 2/1/8 10/1/8 3/1/8
f 1/1/1 6/1/1 5/1/1
f 5/1/1 4/1/1 1/1/1
f 4/1/1 2/1/1 1/1/1
f 12/1/2 7/1/2 8/1/2
f 8/1/2 10/1/2 9/1/2
f 9/1/2 11/1/2 8/1/2
f 5/1/3 12/1/3 11/1/3
f 3/1/4 10/1/4 8/1/4
f 1/1/5 8/1/5 7/1/5
f 6/1/6 7/1/6 12/1/6
f 4/1/7 11/1/7 9/1/7
f 2/1/8 9/1/8 10/1/8
o bathroom
v -4.705286 0.726898 2.500000
v -3.615496 2.554392 2.500000
v -3.498134 0.609536 2.500000
v -5.996269 0.009314 2.500000
v -4.685321 0.136033 2.500000
v -6.116984 2.544333 2.500000
v -3.498134 0.609536 -1.500000
v -3.615496 2.554392 -1.500000
v -4.705286 0.726898 -1.500000
v -4.685321 0.136033 -1.500000
v -5.996269 0.009314 -1.500000
v -6.116984 2.544333 -1.500000
vn -0.0000 -0.0000 1.0000
vn -0.0000 -0.0000 -1.0000
vn -0.9989 -0.0476 -0.0000
vn 0.9994 0.0338 -0.0000
vn 0.9982 0.0602 -0.0000
vn -0.0040 1.0000 -0.0000
vn 0.0962 -0.9954 -0.0000
vn -0.0968 -0.9953 -0.0000
vt 0.000000 0.000000
s 0
f 16/2/9 17/2/9 13/2/9
f 21/2/10 23/2/10 24/2/10
f 18/2/11 23/2/11 16/2/11
f 17/2/12 21/2/12 13/2/12
f 15/2/13 20/2/13 14/2/13
f 14/2/14 24/2/14 18/2/14
f 16/2/15 22/2/15 17/2/15
f 13/2/16 19/2/16 15/2/16
f 15/2/9 14/2/9 13/2/9
f 14/2/9 18/2/9 13/2/9
f 18/2/9 16/2/9 13/2/9
f 24/2/10 20/2/10 21/2/10
f 20/2/10 19/2/10 21/2/10
f 21/2/10 22/2/10 23/2/10
f 18/2/11 24/2/11 23/2/11
f 17/2/12 22/2/12 21/2/12
f 15/2/13 19/2/13 20/2/13
f 14/2/14 20/2/14 24/2/14
f 16/2/15 23/2/15 22/2/15
f 13/2/16 21/2/16 19/2/16
o visible_area
v -4.705286 0.726898 2.500000
v -3.615496 2.554392 2.500000
v -4.671754 -0.396424 2.500000
v -3.498134 0.609536 2.500000
v 5.337547 2.755584 2.500000
v 5.555505 -2.022726 2.500000
v -3.380773 -2.324513 2.500000
v -3.531667 -0.396424 2.500000
v -4.685321 0.136033 2.500000
v -4.685321 0.136033 -1.500000
v -4.671754 -0.396424 -1.500000
v -3.615496 2.554392 -1.500000
v 5.337547 2.755584 -1.500000
v -3.498134 0.609536 -1.500000
v -4.705286 0.726898 -1.500000
v 5.555505 -2.022726 -1.500000
v -3.380773 -2.324513 -1.500000
v -3.531667 -0.396424 -1.500000
vn -0.0000 -0.0000 1.0000
vn -0.0000 -0.0000 -1.0000
vn -0.9970 -0.0780 -0.0000
vn 0.0968 0.9953 -0.0000
vn -0.9997 -0.0255 -0.0000
vn -0.0000 -1.0000 -0.0000
vn 0.9990 0.0456 -0.0000
vn -0.0225 0.9997 -0.0000
vn -0.9994 -0.0338 -0.0000
vn 0.0338 -0.9994 -0.0000
vn -0.9982 -0.0602 -0.0000
vt 0.000000 0.000000
s 0
f 32/3/17 30/3/17 28/3/17
f 40/3/18 42/3/18 38/3/18
f 32/3/19 41/3/19 31/3/19
f 28/3/20 39/3/20 25/3/20
f 33/3/21 35/3/21 27/3/21
f 27/3/22 42/3/22 32/3/22
f 30/3/23 37/3/23 29/3/23
f 29/3/24 36/3/24 26/3/24
f 25/3/25 34/3/25 33/3/25
f 31/3/26 40/3/26 30/3/26
f 26/3/27 38/3/27 28/3/27
f 33/3/17 27/3/17 32/3/17
f 32/3/17 31/3/17 30/3/17
f 30/3/17 29/3/17 28/3/17
f 29/3/17 26/3/17 28/3/17
f 28/3/17 25/3/17 33/3/17
f 33/3/17 32/3/17 28/3/17
f 42/3/18 35/3/18 34/3/18
f 34/3/18 39/3/18 38/3/18
f 38/3/18 36/3/18 37/3/18
f 37/3/18 40/3/18 38/3/18
f 40/3/18 41/3/18 42/3/18
f 42/3/18 34/3/18 38/3/18
f 32/3/19 42/3/19 41/3/19
f 28/3/20 38/3/20 39/3/20
f 33/3/21 34/3/21 35/3/21
f 27/3/22 35/3/22 42/3/22
f 30/3/23 40/3/23 37/3/23
f 29/3/24 37/3/24 36/3/24
f 25/3/25 39/3/25 34/3/25
f 31/3/26 41/3/26 40/3/26
f 26/3/27 36/3/27 38/3/27
o outside
v 5.337547 2.755584 2.500000
v 5.555505 -2.022726 2.500000
v 5.458932 -5.740754 2.500000
v 8.742386 -5.668325 2.500000
v 8.718243 6.668769 2.500000
v 5.193358 6.596340 2.500000
v 5.337547 2.755584 -1.500000
v 5.555505 -2.022726 -1.500000
v 5.458932 -5.740754 -1.500000
v 8.742386 -5.668325 -1.500000
v 8.718243 6.668769 -1.500000
v 5.193358 6.596340 -1.500000
vn -0.0000 -0.0000 1.0000
vn -0.0000 -0.0000 -1.0000
vn -0.9993 -0.0375 -0.0000
vn 1.0000 0.0020 -0.0000
vn -0.9997 0.0260 -0.0000
vn -0.0205 0.9998 -0.0000
vn 0.0221 -0.9998 -0.0000
vn -0.9990 -0.0456 -0.0000
vt 0.000000 0.000000
s 0
f 44/4/28 46/4/28 47/4/28
f 50/4/29 49/4/29 53/4/29
f 48/4/30 49/4/30 43/4/30
f 46/4/31 53/4/31 47/4/31
f 44/4/32 51/4/32 45/4/32
f 47/4/33 54/4/33 48/4/33
f 45/4/34 52/4/34 46/4/34
f 43/4/35 50/4/35 44/4/35
f 47/4/28 48/4/28 43/4/28
f 44/4/28 45/4/28 46/4/28
f 47/4/28 43/4/28 44/4/28
f 49/4/29 54/4/29 53/4/29
f 53/4/29 52/4/29 50/4/29
f 52/4/29 51/4/29 50/4/29
f 48/4/30 54/4/30 49/4/30
f 46/4/31 52/4/31 53/4/31
f 44/4/32 50/4/32 51/4/32
f 47/4/33 53/4/33 54/4/33
f 45/4/34 51/4/34 52/4/34
f 43/4/35 49/4/35 50/4/35
