# Blender 4.1.1
# www.blender.org
mtllib mesh_per_sajay.mtl
o outside
v 0.084844 -2.288252 1.500000
v 2.305384 3.356327 1.500000
v 2.525743 1.881617 1.500000
v 1.593455 1.542603 1.500000
v 1.542603 0.339104 1.500000
v 1.898567 0.322154 1.500000
v 1.881617 -2.118745 1.500000
v -3.695159 -3.288343 1.500000
v -3.593455 -7.000544 1.500000
v 2.780003 -6.763234 1.500000
v 2.576595 -2.949330 1.500000
v 2.424039 7.254985 1.500000
v -4.627447 7.136330 1.500000
v -4.373187 -2.796772 1.500000
v -3.356145 -12.407812 1.500000
v 3.017313 -12.170504 1.500000
v 6.515935 3.539394 1.500000
v 6.736294 2.064684 1.500000
v 6.109118 0.505221 1.500000
v 6.092168 -1.935678 1.500000
v 6.990555 -6.580167 1.500000
v 6.787147 -2.766262 1.500000
v 6.634590 7.438052 1.500000
v 7.227864 -11.987436 1.500000
v 2.363016 11.831671 1.500000
v -4.688469 11.713017 1.500000
v 6.573568 12.014738 1.500000
v -8.515935 -3.491751 1.500000
v -8.414231 -7.203952 1.500000
v -9.448223 6.932922 1.500000
v -9.193963 -3.000181 1.500000
v -8.176922 -12.611220 1.500000
v -9.509245 11.509608 1.500000
v 2.305384 3.356327 -1.500000
v 2.525743 1.881617 -1.500000
v 1.593455 1.542603 -1.500000
v 1.542603 0.339104 -1.500000
v 1.898567 0.322154 -1.500000
v 1.881617 -2.118745 -1.500000
v 0.084844 -2.288252 -1.500000
v -3.695159 -3.288343 -1.500000
v -3.593455 -7.000544 -1.500000
v 2.780003 -6.763234 -1.500000
v 2.576595 -2.949330 -1.500000
v 2.424039 7.254985 -1.500000
v -4.627447 7.136330 -1.500000
v -4.373187 -2.796772 -1.500000
v -3.356145 -12.407812 -1.500000
v 3.017313 -12.170504 -1.500000
v 6.515935 3.539394 -1.500000
v 6.736294 2.064684 -1.500000
v 6.109118 0.505221 -1.500000
v 6.092168 -1.935678 -1.500000
v 6.990555 -6.580167 -1.500000
v 6.787147 -2.766262 -1.500000
v 6.634590 7.438052 -1.500000
v 7.227864 -11.987436 -1.500000
v 2.363016 11.831671 -1.500000
v -4.688469 11.713017 -1.500000
v 6.573568 12.014738 -1.500000
v -8.515935 -3.491751 -1.500000
v -8.414231 -7.203952 -1.500000
v -9.448223 6.932922 -1.500000
v -9.193963 -3.000181 -1.500000
v -8.176922 -12.611220 -1.500000
v -9.509245 11.509608 -1.500000
vn -0.0000 -0.0000 1.0000
vn -0.0000 -0.0000 -1.0000
vn 0.9997 0.0256 -0.0000
vn -0.9997 -0.0256 -0.0000
vn -0.9890 -0.1478 -0.0000
vn 0.5870 0.8096 -0.0000
vn -0.5870 -0.8096 -0.0000
vn -0.3417 0.9398 -0.0000
vn 0.0434 -0.9991 -0.0000
vn 0.0372 -0.9993 -0.0000
vn -0.9990 -0.0438 -0.0000
vn -0.9991 0.0422 -0.0000
vn -0.9999 -0.0133 -0.0000
vn -0.0476 -0.9989 -0.0000
vn -1.0000 0.0069 -0.0000
vn -0.0939 0.9956 -0.0000
vn 0.9890 0.1478 -0.0000
vn -0.2558 0.9667 -0.0000
vn 1.0000 -0.0069 -0.0000
vn -0.0168 0.9999 -0.0000
vn 0.9986 0.0533 -0.0000
vn -0.0422 0.9991 -0.0000
vn -0.0434 0.9991 -0.0000
vn 0.7669 0.6417 -0.0000
vn 0.0422 -0.9991 -0.0000
vn 0.9999 0.0133 -0.0000
vn 0.9995 -0.0304 -0.0000
vn 0.9990 0.0438 -0.0000
vn -0.9995 0.0304 -0.0000
vn 0.9278 -0.3731 -0.0000
vn 0.0168 -0.9999 -0.0000
vn -0.9996 -0.0274 -0.0000
vt 0.000000 0.000000
s 0
f 10/1/1 11/1/1 1/1/1
f 15/1/1 10/1/1 9/1/1
f 4/1/1 6/1/1 3/1/1
f 11/1/1 20/1/1 7/1/1
f 16/1/1 21/1/1 10/1/1
f 20/1/1 6/1/1 7/1/1
f 17/1/1 12/1/1 2/1/1
f 3/1/1 17/1/1 2/1/1
f 10/1/1 22/1/1 11/1/1
f 19/1/1 3/1/1 6/1/1
f 23/1/1 25/1/1 12/1/1
f 12/1/1 26/1/1 13/1/1
f 30/1/1 14/1/1 13/1/1
f 28/1/1 9/1/1 8/1/1
f 33/1/1 13/1/1 26/1/1
f 9/1/1 32/1/1 15/1/1
f 14/1/1 28/1/1 8/1/1
f 42/1/2 41/1/2 40/1/2
f 43/1/2 48/1/2 42/1/2
f 38/1/2 36/1/2 35/1/2
f 44/1/2 53/1/2 55/1/2
f 49/1/2 54/1/2 57/1/2
f 38/1/2 53/1/2 39/1/2
f 45/1/2 50/1/2 34/1/2
f 35/1/2 50/1/2 51/1/2
f 43/1/2 55/1/2 54/1/2
f 35/1/2 52/1/2 38/1/2
f 56/1/2 58/1/2 60/1/2
f 45/1/2 59/1/2 58/1/2
f 47/1/2 63/1/2 46/1/2
f 42/1/2 61/1/2 41/1/2
f 46/1/2 66/1/2 59/1/2
f 42/1/2 65/1/2 62/1/2
f 47/1/2 61/1/2 64/1/2
f 14/1/3 46/1/3 13/1/3
f 30/1/4 64/1/4 31/1/4
f 2/1/5 35/1/5 3/1/5
f 8/1/6 47/1/6 14/1/6
f 31/1/7 61/1/7 28/1/7
f 3/1/8 36/1/8 4/1/8
f 16/1/9 57/1/9 24/1/9
f 15/1/10 49/1/10 16/1/10
f 29/1/11 65/1/11 32/1/11
f 4/1/12 37/1/12 5/1/12
f 33/1/13 63/1/13 30/1/13
f 5/1/14 38/1/14 6/1/14
f 6/1/15 39/1/15 7/1/15
f 7/1/16 40/1/16 1/1/16
f 18/1/17 50/1/17 17/1/17
f 1/1/18 41/1/18 8/1/18
f 20/1/19 52/1/19 19/1/19
f 25/1/20 59/1/20 26/1/20
f 21/1/21 55/1/21 22/1/21
f 26/1/22 66/1/22 33/1/22
f 27/1/23 58/1/23 25/1/23
f 22/1/24 53/1/24 20/1/24
f 32/1/25 48/1/25 15/1/25
f 23/1/26 60/1/26 27/1/26
f 17/1/27 56/1/27 23/1/27
f 24/1/28 54/1/28 21/1/28
f 12/1/29 34/1/29 2/1/29
f 19/1/30 51/1/30 18/1/30
f 13/1/31 45/1/31 12/1/31
f 28/1/32 62/1/32 29/1/32
f 11/1/1 7/1/1 1/1/1
f 1/1/1 8/1/1 9/1/1
f 9/1/1 10/1/1 1/1/1
f 15/1/1 16/1/1 10/1/1
f 4/1/1 5/1/1 6/1/1
f 11/1/1 22/1/1 20/1/1
f 16/1/1 24/1/1 21/1/1
f 20/1/1 19/1/1 6/1/1
f 17/1/1 23/1/1 12/1/1
f 3/1/1 18/1/1 17/1/1
f 10/1/1 21/1/1 22/1/1
f 19/1/1 18/1/1 3/1/1
f 23/1/1 27/1/1 25/1/1
f 12/1/1 25/1/1 26/1/1
f 30/1/1 31/1/1 14/1/1
f 28/1/1 29/1/1 9/1/1
f 33/1/1 30/1/1 13/1/1
f 9/1/1 29/1/1 32/1/1
f 14/1/1 31/1/1 28/1/1
f 40/1/2 39/1/2 44/1/2
f 44/1/2 43/1/2 40/1/2
f 43/1/2 42/1/2 40/1/2
f 43/1/2 49/1/2 48/1/2
f 38/1/2 37/1/2 36/1/2
f 44/1/2 39/1/2 53/1/2
f 49/1/2 43/1/2 54/1/2
f 38/1/2 52/1/2 53/1/2
f 45/1/2 56/1/2 50/1/2
f 35/1/2 34/1/2 50/1/2
f 43/1/2 44/1/2 55/1/2
f 35/1/2 51/1/2 52/1/2
f 56/1/2 45/1/2 58/1/2
f 45/1/2 46/1/2 59/1/2
f 47/1/2 64/1/2 63/1/2
f 42/1/2 62/1/2 61/1/2
f 46/1/2 63/1/2 66/1/2
f 42/1/2 48/1/2 65/1/2
f 47/1/2 41/1/2 61/1/2
f 14/1/3 47/1/3 46/1/3
f 30/1/4 63/1/4 64/1/4
f 2/1/5 34/1/5 35/1/5
f 8/1/6 41/1/6 47/1/6
f 31/1/7 64/1/7 61/1/7
f 3/1/8 35/1/8 36/1/8
f 16/1/9 49/1/9 57/1/9
f 15/1/10 48/1/10 49/1/10
f 29/1/11 62/1/11 65/1/11
f 4/1/12 36/1/12 37/1/12
f 33/1/13 66/1/13 63/1/13
f 5/1/14 37/1/14 38/1/14
f 6/1/15 38/1/15 39/1/15
f 7/1/16 39/1/16 40/1/16
f 18/1/17 51/1/17 50/1/17
f 1/1/18 40/1/18 41/1/18
f 20/1/19 53/1/19 52/1/19
f 25/1/20 58/1/20 59/1/20
f 21/1/21 54/1/21 55/1/21
f 26/1/22 59/1/22 66/1/22
f 27/1/23 60/1/23 58/1/23
f 22/1/24 55/1/24 53/1/24
f 32/1/25 65/1/25 48/1/25
f 23/1/26 56/1/26 60/1/26
f 17/1/27 50/1/27 56/1/27
f 24/1/28 57/1/28 54/1/28
f 12/1/29 45/1/29 34/1/29
f 19/1/30 52/1/30 51/1/30
f 13/1/31 46/1/31 45/1/31
f 28/1/32 61/1/32 62/1/32
o bedroom
v 0.542512 1.474800 1.500000
v 0.678118 0.186548 1.500000
v 0.084844 -2.288252 1.500000
v 0.169597 -0.338923 1.500000
v -0.152466 1.915518 1.500000
v -0.101614 3.407178 1.500000
v 1.729061 3.881798 1.500000
v 2.305384 3.356327 1.500000
v -3.695159 -3.288343 1.500000
v 2.424039 7.254985 1.500000
v -4.627447 7.136330 1.500000
v -4.373187 -2.796772 1.500000
v 0.542512 1.474800 -1.500000
v -0.152466 1.915518 -1.500000
v 0.678118 0.186548 -1.500000
v 0.169597 -0.338923 -1.500000
v 0.084844 -2.288252 -1.500000
v -0.101614 3.407178 -1.500000
v 1.729061 3.881798 -1.500000
v 2.305384 3.356327 -1.500000
v -3.695159 -3.288343 -1.500000
v 2.424039 7.254985 -1.500000
v -4.627447 7.136330 -1.500000
v -4.373187 -2.796772 -1.500000
vn -0.0000 -0.0000 1.0000
vn -0.0000 -0.0000 -1.0000
vn -0.9997 -0.0256 -0.0000
vn 0.5355 0.8445 -0.0000
vn 0.2558 -0.9667 -0.0000
vn 0.9994 -0.0341 -0.0000
vn -0.5870 -0.8096 -0.0000
vn 0.9945 0.1047 -0.0000
vn 0.9995 -0.0304 -0.0000
vn 0.2510 -0.9680 -0.0000
vn 0.7186 -0.6954 -0.0000
vn -0.0168 0.9999 -0.0000
vn -0.6738 -0.7390 -0.0000
vn 0.9991 -0.0434 -0.0000
vt 0.000000 0.000000
s 0
f 71/2/33 72/2/33 77/2/33
f 89/2/34 88/2/34 84/2/34
f 77/2/35 90/2/35 78/2/35
f 67/2/36 80/2/36 71/2/36
f 75/2/37 83/2/37 69/2/37
f 71/2/38 84/2/38 72/2/38
f 78/2/39 87/2/39 75/2/39
f 68/2/40 79/2/40 67/2/40
f 74/2/41 88/2/41 76/2/41
f 72/2/42 85/2/42 73/2/42
f 70/2/43 81/2/43 68/2/43
f 76/2/44 89/2/44 77/2/44
f 73/2/45 86/2/45 74/2/45
f 69/2/46 82/2/46 70/2/46
f 68/2/33 67/2/33 70/2/33
f 67/2/33 71/2/33 70/2/33
f 75/2/33 69/2/33 70/2/33
f 77/2/33 78/2/33 71/2/33
f 78/2/33 75/2/33 70/2/33
f 71/2/33 78/2/33 70/2/33
f 73/2/33 74/2/33 76/2/33
f 72/2/33 73/2/33 76/2/33
f 72/2/33 76/2/33 77/2/33
f 80/2/34 79/2/34 82/2/34
f 79/2/34 81/2/34 82/2/34
f 82/2/34 83/2/34 87/2/34
f 80/2/34 82/2/34 90/2/34
f 82/2/34 87/2/34 90/2/34
f 90/2/34 89/2/34 80/2/34
f 80/2/34 89/2/34 84/2/34
f 88/2/34 86/2/34 85/2/34
f 88/2/34 85/2/34 84/2/34
f 77/2/35 89/2/35 90/2/35
f 67/2/36 79/2/36 80/2/36
f 75/2/37 87/2/37 83/2/37
f 71/2/38 80/2/38 84/2/38
f 78/2/39 90/2/39 87/2/39
f 68/2/40 81/2/40 79/2/40
f 74/2/41 86/2/41 88/2/41
f 72/2/42 84/2/42 85/2/42
f 70/2/43 82/2/43 81/2/43
f 76/2/44 88/2/44 89/2/44
f 73/2/45 85/2/45 86/2/45
f 69/2/46 83/2/46 82/2/46
o inside_not_bedroom
v 0.542512 1.474800 1.500000
v 0.678118 0.186548 1.500000
v 0.084844 -2.288252 1.500000
v 0.169597 -0.338923 1.500000
v -0.152466 1.915518 1.500000
v -0.101614 3.407178 1.500000
v 1.729061 3.881798 1.500000
v 2.305384 3.356327 1.500000
v 2.525743 1.881617 1.500000
v 1.593455 1.542603 1.500000
v 1.542603 0.339104 1.500000
v 1.898567 0.322154 1.500000
v 1.881617 -2.118745 1.500000
v 0.542512 1.474800 -1.500000
v -0.152466 1.915518 -1.500000
v 0.678118 0.186548 -1.500000
v 0.169597 -0.338923 -1.500000
v 0.084844 -2.288252 -1.500000
v -0.101614 3.407178 -1.500000
v 1.729061 3.881798 -1.500000
v 2.305384 3.356327 -1.500000
v 2.525743 1.881617 -1.500000
v 1.593455 1.542603 -1.500000
v 1.542603 0.339104 -1.500000
v 1.898567 0.322154 -1.500000
v 1.881617 -2.118745 -1.500000
vn -0.0000 -0.0000 1.0000
vn -0.0000 -0.0000 -1.0000
vn 1.0000 -0.0069 -0.0000
vn -0.9994 0.0341 -0.0000
vn 0.0939 -0.9956 -0.0000
vn -0.2510 0.9680 -0.0000
vn 0.6738 0.7390 -0.0000
vn 0.9890 0.1478 -0.0000
vn -0.5355 -0.8445 -0.0000
vn 0.3417 -0.9398 -0.0000
vn -0.9945 -0.1047 -0.0000
vn 0.9991 -0.0422 -0.0000
vn -0.7186 0.6954 -0.0000
vn 0.0476 0.9989 -0.0000
vn -0.9991 0.0434 -0.0000
vt 0.000000 0.000000
s 0
f 96/3/47 91/3/47 100/3/47
f 106/3/48 104/3/48 114/3/48
f 103/3/49 115/3/49 102/3/49
f 96/3/50 105/3/50 95/3/50
f 93/3/51 116/3/51 103/3/51
f 97/3/52 109/3/52 96/3/52
f 98/3/53 110/3/53 97/3/53
f 99/3/54 111/3/54 98/3/54
f 95/3/55 104/3/55 91/3/55
f 100/3/56 112/3/56 99/3/56
f 91/3/57 106/3/57 92/3/57
f 101/3/58 113/3/58 100/3/58
f 92/3/59 107/3/59 94/3/59
f 102/3/60 114/3/60 101/3/60
f 94/3/61 108/3/61 93/3/61
f 92/3/47 94/3/47 103/3/47
f 94/3/47 93/3/47 103/3/47
f 103/3/47 102/3/47 101/3/47
f 103/3/47 101/3/47 92/3/47
f 100/3/47 99/3/47 98/3/47
f 92/3/47 101/3/47 91/3/47
f 101/3/47 100/3/47 91/3/47
f 96/3/47 95/3/47 91/3/47
f 100/3/47 98/3/47 97/3/47
f 97/3/47 96/3/47 100/3/47
f 104/3/48 105/3/48 109/3/48
f 109/3/48 110/3/48 113/3/48
f 110/3/48 111/3/48 113/3/48
f 111/3/48 112/3/48 113/3/48
f 114/3/48 115/3/48 116/3/48
f 114/3/48 116/3/48 106/3/48
f 116/3/48 108/3/48 107/3/48
f 109/3/48 113/3/48 104/3/48
f 113/3/48 114/3/48 104/3/48
f 116/3/48 107/3/48 106/3/48
f 103/3/49 116/3/49 115/3/49
f 96/3/50 109/3/50 105/3/50
f 93/3/51 108/3/51 116/3/51
f 97/3/52 110/3/52 109/3/52
f 98/3/53 111/3/53 110/3/53
f 99/3/54 112/3/54 111/3/54
f 95/3/55 105/3/55 104/3/55
f 100/3/56 113/3/56 112/3/56
f 91/3/57 104/3/57 106/3/57
f 101/3/58 114/3/58 113/3/58
f 92/3/59 106/3/59 107/3/59
f 102/3/60 115/3/60 114/3/60
f 94/3/61 107/3/61 108/3/61
