# Blender 4.1.1
# www.blender.org
mtllib mesh_person.mtl
o bedroom
v -3.288343 -1.288162 -1.530000
v 4.627627 -1.322063 -1.530000
v -3.339195 -4.983411 -1.530000
v 2.491841 -1.288162 -1.530000
v 4.576776 -5.068164 -1.530000
v -3.288343 -1.288162 1.470000
v 4.627627 -1.322063 1.470000
v -3.339195 -4.983411 1.470000
v 2.491841 -1.288162 1.470000
v 4.576776 -5.068164 1.470000
vn -0.0000 -0.0000 1.0000
vn -0.0000 -0.0000 -1.0000
vn -0.0000 -1.0000 -0.0000
vn -0.9999 0.0136 -0.0000
vn 0.0107 0.9999 -0.0000
vn -0.0159 -0.9999 -0.0000
vn 0.9999 -0.0138 -0.0000
vt 0.000000 0.000000
s 0
f 5/1/1 2/1/1 4/1/1
f 9/1/2 7/1/2 10/1/2
f 4/1/3 6/1/3 1/1/3
f 5/1/4 7/1/4 2/1/4
f 3/1/5 10/1/5 5/1/5
f 2/1/6 9/1/6 4/1/6
f 1/1/7 8/1/7 3/1/7
f 1/1/1 3/1/1 4/1/1
f 3/1/1 5/1/1 4/1/1
f 10/1/2 8/1/2 9/1/2
f 8/1/2 6/1/2 9/1/2
f 4/1/3 9/1/3 6/1/3
f 5/1/4 10/1/4 7/1/4
f 3/1/5 8/1/5 10/1/5
f 2/1/6 7/1/6 9/1/6
f 1/1/7 6/1/7 8/1/7
o inside_not_bedroom
v -3.288343 -1.288162 -1.530000
v 2.491841 -1.288162 -1.530000
v 3.644488 -0.118564 -1.530000
v 2.356236 -0.084663 -1.530000
v 3.610587 -0.728789 -1.530000
v 5.424311 1.034083 -1.530000
v 5.390409 -0.660986 -1.530000
v 2.712200 1.017132 -1.530000
v 2.678299 2.271483 -1.530000
v -2.712021 5.305657 -1.530000
v -2.745923 2.407089 -1.530000
v -5.203773 2.525744 -1.530000
v -5.220724 -1.305112 -1.530000
v 1.421123 2.356237 -1.530000
v 1.322244 5.068347 -1.530000
v -3.288343 -1.288162 1.470000
v 2.491841 -1.288162 1.470000
v 3.644488 -0.118564 1.470000
v 2.356236 -0.084663 1.470000
v 3.610587 -0.728789 1.470000
v 5.424311 1.034083 1.470000
v 5.390409 -0.660986 1.470000
v 2.712200 1.017132 1.470000
v 2.678299 2.271483 1.470000
v -2.712021 5.305657 1.470000
v -2.745923 2.407089 1.470000
v -5.203773 2.525744 1.470000
v -5.220724 -1.305112 1.470000
v 1.421123 2.356237 1.470000
v 1.322244 5.068347 1.470000
vn -0.0000 -0.0000 -1.0000
vn -0.0000 -0.0000 1.0000
vn -1.0000 0.0044 -0.0000
vn -0.0062 1.0000 -0.0000
vn 0.0088 -1.0000 -0.0000
vn 0.0381 -0.9993 -0.0000
vn 0.9993 0.0364 -0.0000
vn 0.9998 -0.0200 -0.0000
vn 0.0587 0.9983 -0.0000
vn 0.9996 0.0270 -0.0000
vn -0.0000 -1.0000 -0.0000
vn 0.0673 0.9977 -0.0000
vn 0.9937 0.1120 -0.0000
vn -0.9999 0.0117 -0.0000
vn -0.0263 -0.9997 -0.0000
vn 0.0482 0.9988 -0.0000
vn -0.9985 0.0555 -0.0000
vt 0.000000 0.000000
s 0
f 21/2/8 24/2/8 11/2/8
f 33/2/9 39/2/9 29/2/9
f 23/2/10 37/2/10 22/2/10
f 18/2/11 31/2/11 16/2/11
f 11/2/12 38/2/12 23/2/12
f 17/2/13 30/2/13 15/2/13
f 25/2/14 39/2/14 24/2/14
f 16/2/15 32/2/15 17/2/15
f 20/2/16 40/2/16 25/2/16
f 19/2/17 33/2/17 18/2/17
f 12/2/18 26/2/18 11/2/18
f 24/2/19 34/2/19 19/2/19
f 14/2/20 27/2/20 12/2/20
f 21/2/21 35/2/21 20/2/21
f 13/2/22 29/2/22 14/2/22
f 22/2/23 36/2/23 21/2/23
f 15/2/24 28/2/24 13/2/24
f 20/2/8 25/2/8 21/2/8
f 25/2/8 24/2/8 21/2/8
f 24/2/8 19/2/8 18/2/8
f 18/2/8 16/2/8 13/2/8
f 16/2/8 17/2/8 13/2/8
f 17/2/8 15/2/8 13/2/8
f 14/2/8 12/2/8 11/2/8
f 14/2/8 11/2/8 24/2/8
f 11/2/8 23/2/8 22/2/8
f 21/2/8 11/2/8 22/2/8
f 18/2/8 13/2/8 14/2/8
f 24/2/8 18/2/8 14/2/8
f 39/2/9 40/2/9 36/2/9
f 40/2/9 35/2/9 36/2/9
f 36/2/9 37/2/9 26/2/9
f 37/2/9 38/2/9 26/2/9
f 33/2/9 34/2/9 39/2/9
f 32/2/9 31/2/9 28/2/9
f 31/2/9 33/2/9 28/2/9
f 28/2/9 30/2/9 32/2/9
f 26/2/9 27/2/9 29/2/9
f 26/2/9 29/2/9 39/2/9
f 36/2/9 26/2/9 39/2/9
f 29/2/9 28/2/9 33/2/9
f 23/2/10 38/2/10 37/2/10
f 18/2/11 33/2/11 31/2/11
f 11/2/12 26/2/12 38/2/12
f 17/2/13 32/2/13 30/2/13
f 25/2/14 40/2/14 39/2/14
f 16/2/15 31/2/15 32/2/15
f 20/2/16 35/2/16 40/2/16
f 19/2/17 34/2/17 33/2/17
f 12/2/18 27/2/18 26/2/18
f 24/2/19 39/2/19 34/2/19
f 14/2/20 29/2/20 27/2/20
f 21/2/21 36/2/21 35/2/21
f 13/2/22 28/2/22 29/2/22
f 22/2/23 37/2/23 36/2/23
f 15/2/24 30/2/24 28/2/24
o outside
v -3.288343 -1.288162 -1.530000
v 4.627627 -1.322063 -1.530000
v -3.339195 -4.983411 -1.530000
v 2.491841 -1.288162 -1.530000
v 4.576776 -5.068164 -1.530000
v 3.644488 -0.118564 -1.530000
v 2.356236 -0.084663 -1.530000
v 3.610587 -0.728789 -1.530000
v 5.424311 1.034083 -1.530000
v 5.390409 -0.660986 -1.530000
v 2.712200 1.017132 -1.530000
v 2.678299 2.271483 -1.530000
v 4.644579 2.220631 -1.530000
v 4.610678 5.220903 -1.530000
v -2.712021 5.305657 -1.530000
v -2.745923 2.407089 -1.530000
v -5.203773 2.525744 -1.530000
v -5.220724 -1.305112 -1.530000
v 9.653440 -1.187000 -1.530000
v 9.602588 -4.933102 -1.530000
v 10.450122 1.169146 -1.530000
v 10.416221 -0.525923 -1.530000
v 9.670391 2.355695 -1.530000
v 9.636490 5.355966 -1.530000
v -5.234283 5.468383 -1.530000
v -5.413959 -4.922389 -1.530000
v -7.848081 2.566425 -1.530000
v -7.865031 -1.264430 -1.530000
v -7.878591 5.509065 -1.530000
v -8.058267 -4.881708 -1.530000
v 4.590337 9.960317 -1.530000
v -2.732362 10.045070 -1.530000
v 9.616149 10.095380 -1.530000
v -5.254624 10.207796 -1.530000
v -7.898932 10.248478 -1.530000
v -3.370927 -8.991368 -1.530000
v 4.545044 -9.076121 -1.530000
v 9.570856 -8.941059 -1.530000
v -5.445691 -8.930346 -1.530000
v -8.089997 -8.889665 -1.530000
v 1.421123 2.356237 -1.530000
v 1.322244 5.068347 -1.530000
v -3.288343 -1.288162 1.470000
v 4.627627 -1.322063 1.470000
v -3.339195 -4.983411 1.470000
v 2.491841 -1.288162 1.470000
v 4.576776 -5.068164 1.470000
v 3.644488 -0.118564 1.470000
v 2.356236 -0.084663 1.470000
v 3.610587 -0.728789 1.470000
v 5.424311 1.034083 1.470000
v 5.390409 -0.660986 1.470000
v 2.712200 1.017132 1.470000
v 2.678299 2.271483 1.470000
v 4.644579 2.220631 1.470000
v 4.610678 5.220903 1.470000
v -2.712021 5.305657 1.470000
v -2.745923 2.407089 1.470000
v -5.203773 2.525744 1.470000
v -5.220724 -1.305112 1.470000
v 9.653440 -1.187000 1.470000
v 9.602588 -4.933102 1.470000
v 10.450122 1.169146 1.470000
v 10.416221 -0.525923 1.470000
v 9.670391 2.355695 1.470000
v 9.636490 5.355966 1.470000
v -5.234283 5.468383 1.470000
v -5.413959 -4.922389 1.470000
v -7.848081 2.566425 1.470000
v -7.865031 -1.264430 1.470000
v -7.878591 5.509065 1.470000
v -8.058267 -4.881708 1.470000
v 4.590337 9.960317 1.470000
v -2.732362 10.045070 1.470000
v 9.616149 10.095380 1.470000
v -5.254624 10.207796 1.470000
v -7.898932 10.248478 1.470000
v -3.370927 -8.991368 1.470000
v 4.545044 -9.076121 1.470000
v 9.570856 -8.941059 1.470000
v -5.445691 -8.930346 1.470000
v -8.089997 -8.889665 1.470000
v 1.421123 2.356237 1.470000
v 1.322244 5.068347 1.470000
vn -0.0000 -0.0000 -1.0000
vn -0.0000 -0.0000 1.0000
vn -0.0269 0.9996 -0.0000
vn 0.0294 0.9996 -0.0000
vn -0.0673 -0.9977 -0.0000
vn -0.9999 0.0138 -0.0000
vn 0.0154 0.9999 -0.0000
vn -0.9999 0.0117 -0.0000
vn 0.9999 -0.0136 -0.0000
vn 0.0482 0.9988 -0.0000
vn -0.0116 -0.9999 -0.0000
vn 0.0159 0.9999 -0.0000
vn -1.0000 0.0079 -0.0000
vn 1.0000 -0.0044 -0.0000
vn 0.9937 0.1120 -0.0000
vn 1.0000 -0.0079 -0.0000
vn 0.0088 -1.0000 -0.0000
vn -0.0644 -0.9979 -0.0000
vn 0.0107 0.9999 -0.0000
vn -0.0154 -0.9999 -0.0000
vn -0.0263 -0.9997 -0.0000
vn -0.9985 0.0555 -0.0000
vn -0.9993 -0.0364 -0.0000
vn -0.9999 0.0136 -0.0000
vn 1.0000 0.0043 -0.0000
vn 0.0062 -1.0000 -0.0000
vn 0.9998 -0.0200 -0.0000
vn 0.0381 -0.9993 -0.0000
vn -1.0000 0.0044 -0.0000
vn 0.0587 0.9983 -0.0000
vn 0.9999 0.0113 -0.0000
vn -0.9998 0.0200 -0.0000
vn 0.9999 0.0104 -0.0000
vn 0.6549 -0.7557 -0.0000
vn -0.9996 -0.0270 -0.0000
vn 0.9986 -0.0533 -0.0000
vn 0.8357 0.5492 -0.0000
vn -0.0107 -0.9999 -0.0000
vt 0.000000 0.000000
s 0
f 54/3/25 63/3/25 53/3/25
f 63/3/25 49/3/25 53/3/25
f 60/3/26 42/3/26 45/3/26
f 49/3/25 62/3/25 50/3/25
f 50/3/25 59/3/25 42/3/25
f 43/3/26 58/3/26 66/3/26
f 55/3/26 57/3/26 56/3/26
f 68/3/26 66/3/26 58/3/26
f 65/3/26 67/3/26 57/3/26
f 68/3/25 57/3/25 58/3/25
f 71/3/25 64/3/25 54/3/25
f 72/3/26 55/3/26 82/3/26
f 72/3/26 65/3/26 55/3/26
f 74/3/26 69/3/26 65/3/26
f 45/3/26 78/3/26 60/3/26
f 80/3/26 66/3/26 70/3/26
f 45/3/25 76/3/25 43/3/25
f 79/3/26 43/3/26 66/3/26
f 44/3/26 42/3/26 48/3/26
f 51/3/25 53/3/25 49/3/25
f 54/3/25 52/3/25 82/3/25
f 96/3/26 105/3/26 106/3/26
f 91/3/26 105/3/26 95/3/26
f 84/3/25 102/3/25 87/3/25
f 91/3/26 104/3/26 103/3/26
f 92/3/26 101/3/26 104/3/26
f 100/3/25 85/3/25 108/3/25
f 99/3/25 97/3/25 98/3/25
f 108/3/25 110/3/25 100/3/25
f 107/3/25 109/3/25 111/3/25
f 99/3/26 110/3/26 100/3/26
f 106/3/26 113/3/26 96/3/26
f 124/3/25 97/3/25 114/3/25
f 107/3/25 114/3/25 97/3/25
f 111/3/25 116/3/25 107/3/25
f 87/3/25 120/3/25 119/3/25
f 108/3/25 122/3/25 112/3/25
f 87/3/26 118/3/26 119/3/26
f 85/3/25 121/3/25 108/3/25
f 89/3/25 88/3/25 90/3/25
f 93/3/26 95/3/26 94/3/26
f 124/3/26 94/3/26 96/3/26
f 77/3/27 120/3/27 78/3/27
f 79/3/28 118/3/28 76/3/28
f 52/3/29 123/3/29 81/3/29
f 43/3/30 83/3/30 41/3/30
f 80/3/31 121/3/31 79/3/31
f 56/3/32 97/3/32 55/3/32
f 42/3/33 87/3/33 45/3/33
f 57/3/34 98/3/34 56/3/34
f 71/3/35 114/3/35 72/3/35
f 44/3/36 84/3/36 42/3/36
f 78/3/37 102/3/37 60/3/37
f 57/3/38 100/3/38 58/3/38
f 71/3/27 115/3/27 73/3/27
f 47/3/39 86/3/39 44/3/39
f 70/3/40 122/3/40 80/3/40
f 41/3/41 100/3/41 58/3/41
f 72/3/42 116/3/42 74/3/42
f 43/3/43 87/3/43 45/3/43
f 74/3/44 117/3/44 75/3/44
f 46/3/45 89/3/45 47/3/45
f 48/3/46 88/3/46 46/3/46
f 81/3/47 124/3/47 82/3/47
f 60/3/48 101/3/48 59/3/48
f 73/3/49 106/3/49 64/3/49
f 49/3/50 93/3/50 51/3/50
f 61/3/51 104/3/51 62/3/51
f 50/3/52 90/3/52 48/3/52
f 68/3/53 109/3/53 67/3/53
f 55/3/54 124/3/54 82/3/54
f 64/3/55 105/3/55 63/3/55
f 50/3/56 91/3/56 49/3/56
f 69/3/57 109/3/57 67/3/57
f 62/3/58 101/3/58 59/3/58
f 75/3/49 111/3/49 69/3/49
f 51/3/59 94/3/59 52/3/59
f 68/3/60 112/3/60 70/3/60
f 63/3/61 103/3/61 61/3/61
f 77/3/62 118/3/62 76/3/62
f 54/3/25 64/3/25 63/3/25
f 63/3/25 61/3/25 49/3/25
f 60/3/26 59/3/26 42/3/26
f 49/3/25 61/3/25 62/3/25
f 50/3/25 62/3/25 59/3/25
f 43/3/26 41/3/26 58/3/26
f 55/3/26 65/3/26 57/3/26
f 68/3/26 70/3/26 66/3/26
f 65/3/26 69/3/26 67/3/26
f 68/3/25 67/3/25 57/3/25
f 71/3/25 73/3/25 64/3/25
f 54/3/26 71/3/26 82/3/26
f 71/3/26 72/3/26 82/3/26
f 72/3/26 74/3/26 65/3/26
f 74/3/26 75/3/26 69/3/26
f 45/3/26 77/3/26 78/3/26
f 80/3/26 79/3/26 66/3/26
f 45/3/25 77/3/25 76/3/25
f 79/3/26 76/3/26 43/3/26
f 42/3/26 50/3/26 48/3/26
f 48/3/26 46/3/26 47/3/26
f 47/3/26 44/3/26 48/3/26
f 51/3/25 52/3/25 53/3/25
f 53/3/25 52/3/25 54/3/25
f 52/3/25 81/3/25 82/3/25
f 96/3/26 95/3/26 105/3/26
f 91/3/26 103/3/26 105/3/26
f 84/3/25 101/3/25 102/3/25
f 91/3/26 92/3/26 104/3/26
f 92/3/26 84/3/26 101/3/26
f 100/3/25 83/3/25 85/3/25
f 99/3/25 107/3/25 97/3/25
f 108/3/25 112/3/25 110/3/25
f 107/3/25 99/3/25 109/3/25
f 99/3/26 109/3/26 110/3/26
f 106/3/26 115/3/26 113/3/26
f 114/3/25 113/3/25 124/3/25
f 113/3/25 96/3/25 124/3/25
f 107/3/25 116/3/25 114/3/25
f 111/3/25 117/3/25 116/3/25
f 87/3/25 102/3/25 120/3/25
f 108/3/25 121/3/25 122/3/25
f 87/3/26 85/3/26 118/3/26
f 85/3/25 118/3/25 121/3/25
f 90/3/25 92/3/25 84/3/25
f 84/3/25 86/3/25 90/3/25
f 86/3/25 89/3/25 90/3/25
f 93/3/26 91/3/26 95/3/26
f 123/3/26 94/3/26 124/3/26
f 94/3/26 95/3/26 96/3/26
f 77/3/27 119/3/27 120/3/27
f 79/3/28 121/3/28 118/3/28
f 52/3/29 94/3/29 123/3/29
f 43/3/30 85/3/30 83/3/30
f 80/3/31 122/3/31 121/3/31
f 56/3/32 98/3/32 97/3/32
f 42/3/33 84/3/33 87/3/33
f 57/3/34 99/3/34 98/3/34
f 71/3/35 113/3/35 114/3/35
f 44/3/36 86/3/36 84/3/36
f 78/3/37 120/3/37 102/3/37
f 57/3/38 99/3/38 100/3/38
f 71/3/27 113/3/27 115/3/27
f 47/3/39 89/3/39 86/3/39
f 70/3/40 112/3/40 122/3/40
f 41/3/41 83/3/41 100/3/41
f 72/3/42 114/3/42 116/3/42
f 43/3/43 85/3/43 87/3/43
f 74/3/44 116/3/44 117/3/44
f 46/3/45 88/3/45 89/3/45
f 48/3/46 90/3/46 88/3/46
f 81/3/47 123/3/47 124/3/47
f 60/3/48 102/3/48 101/3/48
f 73/3/49 115/3/49 106/3/49
f 49/3/50 91/3/50 93/3/50
f 61/3/51 103/3/51 104/3/51
f 50/3/52 92/3/52 90/3/52
f 68/3/53 110/3/53 109/3/53
f 55/3/54 97/3/54 124/3/54
f 64/3/55 106/3/55 105/3/55
f 50/3/56 92/3/56 91/3/56
f 69/3/57 111/3/57 109/3/57
f 62/3/58 104/3/58 101/3/58
f 75/3/49 117/3/49 111/3/49
f 51/3/59 93/3/59 94/3/59
f 68/3/60 110/3/60 112/3/60
f 63/3/61 105/3/61 103/3/61
f 77/3/62 119/3/62 118/3/62
