# Blender 4.2.0
# www.blender.org
mtllib untitled.mtl
o bedroom
v -6.029199 0.756799 -1.799414
v -5.995119 -0.470075 -1.799414
v -5.961040 2.511909 -1.799414
v -3.507294 2.614148 -1.799414
v -5.211284 0.756799 -1.799414
v -5.211284 -0.453034 -1.799414
v -4.325209 0.773839 -1.799414
v -3.449547 0.785672 -1.799414
v -5.961040 2.511909 2.100586
v -6.029199 0.756799 2.100586
v -5.995119 -0.470075 2.100586
v -3.507294 2.614148 2.100586
v -5.211284 0.756799 2.100586
v -5.211284 -0.453034 2.100586
v -4.325209 0.773839 2.100586
v -3.449547 0.785672 2.100586
vn -0.0000 -0.0000 1.0000
vn -0.0000 -0.0000 -1.0000
vn 0.0416 -0.9991 -0.0000
vn 0.9992 -0.0388 -0.0000
vn -0.0135 0.9999 -0.0000
vn -1.0000 -0.0000 -0.0000
vn 0.9996 0.0278 -0.0000
vn -0.9995 -0.0316 -0.0000
vn -0.0192 0.9998 -0.0000
vn -0.0217 0.9998 -0.0000
vt 0.000000 0.000000
s 0
f 2/1/1 5/1/1 1/1/1
f 7/1/1 8/1/1 4/1/1
f 11/1/2 13/1/2 14/1/2
f 15/1/2 13/1/2 9/1/2
f 4/1/3 9/1/3 3/1/3
f 3/1/4 10/1/4 1/1/4
f 7/1/5 16/1/5 8/1/5
f 6/1/6 13/1/6 5/1/6
f 1/1/7 11/1/7 2/1/7
f 8/1/8 12/1/8 4/1/8
f 5/1/9 15/1/9 7/1/9
f 2/1/10 14/1/10 6/1/10
f 2/1/1 6/1/1 5/1/1
f 4/1/1 3/1/1 7/1/1
f 3/1/1 1/1/1 5/1/1
f 7/1/1 3/1/1 5/1/1
f 11/1/2 10/1/2 13/1/2
f 10/1/2 9/1/2 13/1/2
f 9/1/2 12/1/2 15/1/2
f 12/1/2 16/1/2 15/1/2
f 4/1/3 12/1/3 9/1/3
f 3/1/4 9/1/4 10/1/4
f 7/1/5 15/1/5 16/1/5
f 6/1/6 14/1/6 13/1/6
f 1/1/7 10/1/7 11/1/7
f 8/1/8 16/1/8 12/1/8
f 5/1/9 13/1/9 15/1/9
f 2/1/10 11/1/10 14/1/10
o bedroom
v -5.995119 -0.470075 -1.799414
v -5.978079 -2.293344 -1.799414
v -3.370975 -2.208145 -1.799414
v -5.211284 0.756799 -1.799414
v -5.211284 -0.453034 -1.799414
v -4.304382 -0.363575 -1.799414
v -4.325209 0.773839 -1.799414
v -3.381388 -0.529241 -1.799414
v -5.995119 -0.470075 2.100586
v -5.978079 -2.293344 2.100586
v -3.370975 -2.208145 2.100586
v -5.211284 -0.453034 2.100586
v -5.211284 0.756799 2.100586
v -4.304382 -0.363575 2.100586
v -4.325209 0.773839 2.100586
v -3.381388 -0.529241 2.100586
vn -0.0000 -0.0000 1.0000
vn -0.0000 -0.0000 -1.0000
vn 0.0217 -0.9998 -0.0000
vn 1.0000 0.0093 -0.0000
vn -0.1767 -0.9843 -0.0000
vn 0.0192 -0.9998 -0.0000
vn 1.0000 -0.0000 -0.0000
vn -0.0327 0.9995 -0.0000
vn -1.0000 -0.0062 -0.0000
vn -0.9998 -0.0183 -0.0000
vt 0.000000 0.000000
s 0
f 19/2/11 22/2/11 21/2/11
f 20/2/11 22/2/11 23/2/11
f 30/2/12 32/2/12 27/2/12
f 29/2/12 30/2/12 28/2/12
f 21/2/13 25/2/13 17/2/13
f 17/2/14 26/2/14 18/2/14
f 24/2/15 30/2/15 22/2/15
f 23/2/16 29/2/16 20/2/16
f 20/2/17 28/2/17 21/2/17
f 18/2/18 27/2/18 19/2/18
f 19/2/19 32/2/19 24/2/19
f 22/2/20 31/2/20 23/2/20
f 17/2/11 18/2/11 21/2/11
f 18/2/11 19/2/11 21/2/11
f 19/2/11 24/2/11 22/2/11
f 20/2/11 21/2/11 22/2/11
f 27/2/12 26/2/12 28/2/12
f 26/2/12 25/2/12 28/2/12
f 28/2/12 30/2/12 27/2/12
f 29/2/12 31/2/12 30/2/12
f 21/2/13 28/2/13 25/2/13
f 17/2/14 25/2/14 26/2/14
f 24/2/15 32/2/15 30/2/15
f 23/2/16 31/2/16 29/2/16
f 20/2/17 29/2/17 28/2/17
f 18/2/18 26/2/18 27/2/18
f 19/2/19 27/2/19 32/2/19
f 22/2/20 30/2/20 31/2/20
o bedroom
v -4.304382 -0.363575 -1.799414
v -4.325209 0.773839 -1.799414
v -3.381388 -0.529241 -1.799414
v -3.449547 0.785672 -1.799414
v -4.304382 -0.363575 2.100586
v -4.325209 0.773839 2.100586
v -3.381388 -0.529241 2.100586
v -3.449547 0.785672 2.100586
vn -0.0000 -0.0000 1.0000
vn -0.0000 -0.0000 -1.0000
vn 0.1767 0.9843 -0.0000
vn 0.0135 -0.9999 -0.0000
vn 0.9998 0.0183 -0.0000
vn -0.9987 -0.0518 -0.0000
vt 0.000000 0.000000
s 0
f 33/3/21 36/3/21 34/3/21
f 40/3/22 37/3/22 38/3/22
f 33/3/23 39/3/23 35/3/23
f 36/3/24 38/3/24 34/3/24
f 34/3/25 37/3/25 33/3/25
f 35/3/26 40/3/26 36/3/26
f 33/3/21 35/3/21 36/3/21
f 40/3/22 39/3/22 37/3/22
f 33/3/23 37/3/23 39/3/23
f 36/3/24 40/3/24 38/3/24
f 34/3/25 38/3/25 37/3/25
f 35/3/26 39/3/26 40/3/26
o living_room
v -3.370975 -2.208145 -1.799414
v -3.507294 2.614148 -1.799414
v -3.381388 -0.529241 -1.799414
v -3.449547 0.785672 -1.799414
v 0.534003 -2.148979 -1.799414
v -0.418811 2.673315 -1.799414
v -0.288645 1.809486 -1.799414
v 1.036681 1.833152 -1.799414
v -3.381388 -0.529241 2.100586
v -3.449547 0.785672 2.100586
v -3.370975 -2.208145 2.100586
v -3.507294 2.614148 2.100586
v 0.534003 -2.148979 2.100586
v -0.418811 2.673315 2.100586
v -0.288645 1.809486 2.100586
v 1.036681 1.833152 2.100586
vn -0.0000 -0.0000 1.0000
vn -0.0000 -0.0000 -1.0000
vn -0.9921 0.1252 -0.0000
vn -0.9888 -0.1490 -0.0000
vn -0.0151 0.9999 -0.0000
vn 1.0000 0.0062 -0.0000
vn 0.0179 -0.9998 -0.0000
vn 0.0192 -0.9998 -0.0000
vn 0.9995 0.0316 -0.0000
vn 0.9987 0.0518 -0.0000
vt 0.000000 0.000000
s 0
f 43/4/27 45/4/27 47/4/27
f 53/4/28 49/4/28 55/4/28
f 45/4/29 56/4/29 48/4/29
f 47/4/30 54/4/30 46/4/30
f 41/4/31 53/4/31 45/4/31
f 43/4/32 51/4/32 41/4/32
f 48/4/33 55/4/33 47/4/33
f 46/4/34 52/4/34 42/4/34
f 42/4/35 50/4/35 44/4/35
f 44/4/36 49/4/36 43/4/36
f 43/4/27 41/4/27 45/4/27
f 45/4/27 48/4/27 47/4/27
f 47/4/27 46/4/27 42/4/27
f 42/4/27 44/4/27 47/4/27
f 44/4/27 43/4/27 47/4/27
f 53/4/28 51/4/28 49/4/28
f 49/4/28 50/4/28 55/4/28
f 50/4/28 52/4/28 55/4/28
f 52/4/28 54/4/28 55/4/28
f 55/4/28 56/4/28 53/4/28
f 45/4/29 53/4/29 56/4/29
f 47/4/30 55/4/30 54/4/30
f 41/4/31 51/4/31 53/4/31
f 43/4/32 49/4/32 51/4/32
f 48/4/33 56/4/33 55/4/33
f 46/4/34 54/4/34 52/4/34
f 42/4/35 52/4/35 50/4/35
f 44/4/36 50/4/36 49/4/36
o living_room
v 0.534003 -2.148979 -1.799414
v 1.036681 1.833152 -1.799414
v 1.036681 2.756147 -1.799414
v 3.634320 -2.077980 -1.799414
v 3.817499 2.779814 -1.799414
v 3.821759 -0.203590 -1.799414
v 1.036681 1.833152 2.100586
v 1.036681 2.756147 2.100586
v 0.534003 -2.148979 2.100586
v 3.634320 -2.077980 2.100586
v 3.817499 2.779814 2.100586
v 3.821759 -0.203590 2.100586
vn -0.0000 -0.0000 1.0000
vn -0.0000 -0.0000 -1.0000
vn -0.9950 0.0995 -0.0000
vn -0.0229 0.9997 -0.0000
vn 1.0000 -0.0000 -0.0000
vn -1.0000 -0.0014 -0.0000
vn 0.0085 -1.0000 -0.0000
vn 0.9921 -0.1252 -0.0000
vt 0.000000 0.000000
s 0
f 62/5/37 61/5/37 58/5/37
f 63/5/38 68/5/38 65/5/38
f 60/5/39 68/5/39 62/5/39
f 57/5/40 66/5/40 60/5/40
f 59/5/41 63/5/41 58/5/41
f 62/5/42 67/5/42 61/5/42
f 61/5/43 64/5/43 59/5/43
f 58/5/44 65/5/44 57/5/44
f 61/5/37 59/5/37 58/5/37
f 58/5/37 57/5/37 62/5/37
f 57/5/37 60/5/37 62/5/37
f 63/5/38 64/5/38 67/5/38
f 67/5/38 68/5/38 63/5/38
f 68/5/38 66/5/38 65/5/38
f 60/5/39 66/5/39 68/5/39
f 57/5/40 65/5/40 66/5/40
f 59/5/41 64/5/41 63/5/41
f 62/5/42 68/5/42 67/5/42
f 61/5/43 67/5/43 64/5/43
f 58/5/44 63/5/44 65/5/44
o outside
v 3.634320 -2.077980 -1.799414
v 3.821759 -0.203590 -1.799414
v 4.861193 -0.169511 -1.799414
v 4.980472 -2.009820 -1.799414
v 3.634320 -2.077980 2.100586
v 3.821759 -0.203590 2.100586
v 4.861193 -0.169511 2.100586
v 4.980472 -2.009820 2.100586
vn -0.0000 -0.0000 1.0000
vn -0.0000 -0.0000 -1.0000
vn -0.0506 0.9987 -0.0000
vn 0.9950 -0.0995 -0.0000
vn -0.9979 -0.0647 -0.0000
vn 0.0328 -0.9995 -0.0000
vt 0.000000 0.000000
s 0
f 72/6/45 70/6/45 69/6/45
f 74/6/46 76/6/46 73/6/46
f 69/6/47 76/6/47 72/6/47
f 70/6/48 73/6/48 69/6/48
f 72/6/49 75/6/49 71/6/49
f 71/6/50 74/6/50 70/6/50
f 72/6/45 71/6/45 70/6/45
f 74/6/46 75/6/46 76/6/46
f 69/6/47 73/6/47 76/6/47
f 70/6/48 74/6/48 73/6/48
f 72/6/49 76/6/49 75/6/49
f 71/6/50 75/6/50 74/6/50
o outside
v 4.861193 -0.169511 -1.799414
v 4.980472 -2.009820 -1.799414
v 5.849507 -0.169511 -1.799414
v 5.968786 -2.009820 -1.799414
v 4.861193 -0.169511 2.100586
v 4.980472 -2.009820 2.100586
v 5.849507 -0.169511 2.100586
v 5.968786 -2.009820 2.100586
vn -0.0000 -0.0000 1.0000
vn -0.0000 -0.0000 -1.0000
vn -0.9979 -0.0647 -0.0000
vn -0.0000 -1.0000 -0.0000
vn -0.0000 1.0000 -0.0000
vn 0.9979 0.0647 -0.0000
vt 0.000000 0.000000
s 0
f 78/7/51 79/7/51 77/7/51
f 82/7/52 83/7/52 84/7/52
f 80/7/53 83/7/53 79/7/53
f 79/7/54 81/7/54 77/7/54
f 78/7/55 84/7/55 80/7/55
f 77/7/56 82/7/56 78/7/56
f 78/7/51 80/7/51 79/7/51
f 82/7/52 81/7/52 83/7/52
f 80/7/53 84/7/53 83/7/53
f 79/7/54 83/7/54 81/7/54
f 78/7/55 82/7/55 84/7/55
f 77/7/56 81/7/56 82/7/56
o living_room
v 3.817499 2.779814 -1.799414
v 3.821759 -0.203590 -1.799414
v 4.861193 -0.169511 -1.799414
v 5.849507 -0.169511 -1.799414
v 5.402209 2.847973 -1.799414
v 3.821759 -0.203590 2.100586
v 4.861193 -0.169511 2.100586
v 5.849507 -0.169511 2.100586
v 3.817499 2.779814 2.100586
v 5.402209 2.847973 2.100586
vn -0.0000 -0.0000 1.0000
vn -0.0000 -0.0000 -1.0000
vn -0.0000 1.0000 -0.0000
vn -0.9892 -0.1466 -0.0000
vn 1.0000 0.0014 -0.0000
vn -0.0328 0.9995 -0.0000
vn 0.0430 -0.9991 -0.0000
vt 0.000000 0.000000
s 0
f 87/8/57 89/8/57 85/8/57
f 94/8/58 92/8/58 91/8/58
f 87/8/59 92/8/59 88/8/59
f 88/8/60 94/8/60 89/8/60
f 85/8/61 90/8/61 86/8/61
f 86/8/62 91/8/62 87/8/62
f 89/8/63 93/8/63 85/8/63
f 85/8/57 86/8/57 87/8/57
f 87/8/57 88/8/57 89/8/57
f 91/8/58 90/8/58 93/8/58
f 93/8/58 94/8/58 91/8/58
f 87/8/59 91/8/59 92/8/59
f 88/8/60 92/8/60 94/8/60
f 85/8/61 93/8/61 90/8/61
f 86/8/62 90/8/62 91/8/62
f 89/8/63 94/8/63 93/8/63
o home
v -0.418811 2.673315 -1.799414
v -0.288645 1.809486 -1.799414
v 1.036681 1.833152 -1.799414
v 1.036681 2.756147 -1.799414
v -0.418811 2.673315 2.100586
v -0.288645 1.809486 2.100586
v 1.036681 1.833152 2.100586
v 1.036681 2.756147 2.100586
vn -0.0000 -0.0000 1.0000
vn -0.0000 -0.0000 -1.0000
vn 0.0568 -0.9984 -0.0000
vn -0.0179 0.9998 -0.0000
vn -1.0000 -0.0000 -0.0000
vn 0.9888 0.1490 -0.0000
vt 0.000000 0.000000
s 0
f 96/9/64 98/9/64 95/9/64
f 100/9/65 102/9/65 101/9/65
f 98/9/66 99/9/66 95/9/66
f 96/9/67 101/9/67 97/9/67
f 97/9/68 102/9/68 98/9/68
f 95/9/69 100/9/69 96/9/69
f 96/9/64 97/9/64 98/9/64
f 100/9/65 99/9/65 102/9/65
f 98/9/66 102/9/66 99/9/66
f 96/9/67 100/9/67 101/9/67
f 97/9/68 101/9/68 102/9/68
f 95/9/69 99/9/69 100/9/69
