# Blender 3.6.1
# www.blender.org
mtllib room_areas.mtl
o bathroom
v 5.136806 -5.539555 0.000000
v 5.021214 2.583305 0.000000
v 2.614830 -5.529047 0.000000
v 2.478224 2.604322 0.000000
v 5.136806 -5.539555 0.000000
v 5.132851 -5.561987 -1.524385
v 5.017260 2.560873 -1.524385
v 2.610876 -5.551480 -1.524385
v 2.474268 2.581889 -1.524385
v 5.132851 -5.561987 -1.524385
v 5.021214 2.583305 0.000000
v 2.614830 -5.529047 0.000000
v 2.478224 2.604322 0.000000
v 5.136806 -5.539555 0.000000
v 5.021214 2.583305 0.000000
v 2.614830 -5.529047 0.000000
v 2.478224 2.604322 0.000000
v 5.136806 -5.539555 0.000000
v 5.140777 -5.517033 1.530411
v 5.140777 -5.517033 1.530411
v 5.025186 2.605828 1.530411
v 2.482194 2.626844 1.530411
v 2.618803 -5.506525 1.530411
vn -0.9999 -0.0168 0.0028
vn -0.0000 -0.0000 -1.0000
vn 0.0083 0.9999 -0.0147
vn 1.0000 -0.0000 -0.0000
vn 0.9999 0.0142 -0.0028
vn -0.0042 -0.9999 0.0147
vn -0.0000 -0.0000 -0.0000
vn -0.0000 -0.0000 1.0000
vt 0.000000 0.000000
s 0
usemtl None.001
f 4/1/1 23/1/1 22/1/1
f 8/1/2 7/1/2 6/1/2
f 4/1/3 7/1/3 9/1/3
f 5/1/4 6/1/4 1/1/4
f 3/1/1 9/1/1 8/1/1
f 1/1/5 7/1/5 2/1/5
f 3/1/6 10/1/6 5/1/6
f 5/1/7 12/1/7 3/1/7
f 3/1/4 13/1/4 4/1/4
f 4/1/7 11/1/7 2/1/7
f 14/1/7 16/1/7 12/1/7
f 12/1/4 17/1/4 13/1/4
f 13/1/7 15/1/7 11/1/7
f 20/1/8 21/1/8 23/1/8
f 2/1/5 19/1/5 1/1/5
f 5/1/6 23/1/6 3/1/6
f 2/1/3 22/1/3 21/1/3
f 1/1/4 20/1/4 5/1/4
f 4/1/1 3/1/1 23/1/1
f 8/1/2 9/1/2 7/1/2
f 6/1/7 10/1/7 8/1/7
f 4/1/3 2/1/3 7/1/3
f 5/1/4 10/1/4 6/1/4
f 3/1/1 4/1/1 9/1/1
f 1/1/5 6/1/5 7/1/5
f 3/1/6 8/1/6 10/1/6
f 5/1/7 14/1/7 12/1/7
f 3/1/4 12/1/4 13/1/4
f 4/1/7 13/1/7 11/1/7
f 14/1/7 18/1/7 16/1/7
f 12/1/4 16/1/4 17/1/4
f 13/1/7 17/1/7 15/1/7
f 21/1/8 22/1/8 23/1/8
f 20/1/4 19/1/4 21/1/4
f 2/1/5 21/1/5 19/1/5
f 5/1/6 20/1/6 23/1/6
f 2/1/3 4/1/3 22/1/3
f 1/1/4 19/1/4 20/1/4
o bedroom
v -2.593810 0.229462 -0.000000
v 0.915935 0.218953 0.000000
v 0.884410 2.562286 0.000000
v -2.572794 2.404663 -0.000000
v -2.597765 0.207028 -1.524385
v 0.911979 0.196520 -1.524385
v 0.880455 2.539852 -1.524385
v -2.576749 2.382230 -1.524385
v -2.589839 0.251984 1.530411
v 0.919906 0.241475 1.530411
v 0.888381 2.584808 1.530411
v -2.568823 2.427185 1.530411
vn 1.0000 -0.0097 -0.0025
vn -0.0000 -0.0000 1.0000
vn -0.9999 -0.0135 0.0028
vn 0.0455 -0.9989 0.0146
vn 0.0030 0.9999 -0.0147
vn -0.0000 -0.0000 -1.0000
vt 0.000000 0.000000
s 0
usemtl None.001
f 27/2/9 32/2/9 24/2/9
f 29/2/10 31/2/10 28/2/10
f 25/2/11 30/2/11 29/2/11
f 27/2/12 30/2/12 26/2/12
f 24/2/13 29/2/13 28/2/13
f 24/2/9 31/2/9 27/2/9
f 35/2/14 33/2/14 32/2/14
f 26/2/11 33/2/11 34/2/11
f 26/2/12 35/2/12 27/2/12
f 25/2/13 32/2/13 33/2/13
f 27/2/9 35/2/9 32/2/9
f 29/2/10 30/2/10 31/2/10
f 25/2/11 26/2/11 30/2/11
f 27/2/12 31/2/12 30/2/12
f 24/2/13 25/2/13 29/2/13
f 24/2/9 28/2/9 31/2/9
f 35/2/14 34/2/14 33/2/14
f 26/2/11 25/2/11 33/2/11
f 26/2/12 34/2/12 35/2/12
f 25/2/13 24/2/13 32/2/13
o dining
v 2.492167 2.583302 0.000000
v 0.884410 2.562286 0.000000
v 0.800343 7.480133 0.000000
v 4.972106 7.616739 0.000000
v 5.045664 2.583303 0.000000
v 2.488212 2.560869 -1.524385
v 0.880455 2.539852 -1.524385
v 0.796388 7.457699 -1.524385
v 4.968151 7.594306 -1.524385
v 5.041708 2.560870 -1.524385
v 5.045664 2.583303 0.000000
v 5.045664 2.583303 0.000000
v 2.496138 2.605824 1.530411
v 0.888381 2.584808 1.530411
v 0.804314 7.502655 1.530411
v 4.976077 7.639261 1.530411
v 5.049634 2.605825 1.530411
vn -0.0000 0.9999 -0.0147
vn -0.0000 -0.0000 1.0000
vn -0.9999 -0.0146 0.0028
vn 0.9998 0.0171 -0.0028
vn 0.0327 -0.9994 0.0146
vn -0.0131 0.9998 -0.0147
vn -0.0000 -0.0000 -1.0000
vt 0.000000 0.000000
s 0
usemtl None.001
f 40/3/15 48/3/15 52/3/15
f 43/3/16 42/3/16 41/3/16
f 40/3/17 44/3/17 45/3/17
f 37/3/18 43/3/18 38/3/18
f 36/3/15 45/3/15 41/3/15
f 38/3/19 44/3/19 39/3/19
f 37/3/20 41/3/20 42/3/20
f 48/3/21 50/3/21 51/3/21
f 39/3/19 50/3/19 38/3/19
f 36/3/20 49/3/20 48/3/20
f 39/3/17 52/3/17 51/3/17
f 38/3/18 49/3/18 37/3/18
f 40/3/15 36/3/15 48/3/15
f 41/3/16 45/3/16 44/3/16
f 44/3/16 43/3/16 41/3/16
f 40/3/17 39/3/17 44/3/17
f 37/3/18 42/3/18 43/3/18
f 36/3/15 40/3/15 45/3/15
f 38/3/19 43/3/19 44/3/19
f 37/3/20 36/3/20 41/3/20
f 51/3/21 52/3/21 48/3/21
f 48/3/21 49/3/21 50/3/21
f 39/3/19 51/3/19 50/3/19
f 36/3/20 37/3/20 49/3/20
f 39/3/17 40/3/17 52/3/17
f 38/3/18 50/3/18 49/3/18
l 40 46
l 46 47
o hallway
v -2.562284 -4.194498 -0.000000
v 0.915935 0.218953 0.000000
v 0.926443 -4.247039 0.000000
v -2.530761 -5.465992 -0.000000
v 2.607759 -5.518534 0.000000
v 2.492167 2.583302 0.000000
v 0.884410 2.562286 0.000000
v -2.566241 -4.216931 -1.524385
v 0.911979 0.196520 -1.524385
v 0.922487 -4.269472 -1.524385
v -2.534715 -5.488426 -1.524385
v 2.603803 -5.540967 -1.524385
v 2.488212 2.560869 -1.524385
v 0.880455 2.539852 -1.524385
v -2.562284 -4.194498 -0.000000
v 0.915935 0.218953 0.000000
v 0.926443 -4.247039 0.000000
v 2.492167 2.583302 0.000000
v -2.562284 -4.194498 -0.000000
v 0.915935 0.218953 0.000000
v 0.926443 -4.247039 0.000000
v 2.492167 2.583302 0.000000
v 0.919906 0.241475 1.530411
v 0.930414 -4.224517 1.530411
v -2.558314 -4.171976 1.530411
v -2.526789 -5.443470 1.530411
v 2.611729 -5.496012 1.530411
v 2.496138 2.605824 1.530411
v 0.888381 2.584808 1.530411
vn 0.9997 0.0248 -0.0030
vn -0.0000 -0.0000 1.0000
vn 0.9999 0.0135 -0.0028
vn -0.9999 -0.0143 0.0028
vn -0.0151 -0.9998 0.0148
vn 0.0102 0.9998 -0.0147
vn 0.0131 -0.9998 0.0147
vn 1.0000 0.0024 -0.0026
vn 1.0000 -0.0000 -0.0000
vn -0.0000 -0.0000 -1.0000
vt 0.000000 0.000000
s 0
usemtl None.001
f 53/4/22 78/4/22 56/4/22
f 62/4/23 64/4/23 61/4/23
f 54/4/24 66/4/24 59/4/24
f 57/4/25 65/4/25 64/4/25
f 53/4/26 62/4/26 55/4/26
f 56/4/27 64/4/27 63/4/27
f 59/4/28 65/4/28 58/4/28
f 56/4/22 60/4/22 53/4/22
f 55/4/29 61/4/29 54/4/29
f 55/4/30 67/4/30 53/4/30
f 54/4/30 69/4/30 55/4/30
f 69/4/30 71/4/30 67/4/30
f 68/4/30 73/4/30 69/4/30
f 75/4/31 80/4/31 79/4/31
f 54/4/29 76/4/29 55/4/29
f 59/4/24 75/4/24 54/4/24
f 58/4/25 79/4/25 80/4/25
f 55/4/26 77/4/26 53/4/26
f 57/4/27 78/4/27 79/4/27
f 58/4/28 81/4/28 59/4/28
f 53/4/22 77/4/22 78/4/22
f 62/4/23 60/4/23 63/4/23
f 64/4/23 65/4/23 61/4/23
f 65/4/23 66/4/23 61/4/23
f 62/4/23 63/4/23 64/4/23
f 54/4/24 61/4/24 66/4/24
f 57/4/25 58/4/25 65/4/25
f 53/4/26 60/4/26 62/4/26
f 56/4/27 57/4/27 64/4/27
f 59/4/28 66/4/28 65/4/28
f 56/4/22 63/4/22 60/4/22
f 55/4/29 62/4/29 61/4/29
f 55/4/30 69/4/30 67/4/30
f 54/4/30 68/4/30 69/4/30
f 69/4/30 73/4/30 71/4/30
f 68/4/30 72/4/30 73/4/30
f 75/4/31 81/4/31 80/4/31
f 79/4/31 78/4/31 76/4/31
f 78/4/31 77/4/31 76/4/31
f 76/4/31 75/4/31 79/4/31
f 54/4/29 75/4/29 76/4/29
f 59/4/24 81/4/24 75/4/24
f 58/4/25 57/4/25 79/4/25
f 55/4/26 76/4/26 77/4/26
f 57/4/27 56/4/27 78/4/27
f 58/4/28 80/4/28 81/4/28
l 58 70
l 70 74
o kitchen
v 0.884410 2.562286 0.000000
v -2.572794 2.404663 -0.000000
v -2.614828 7.396067 -0.000000
v 0.800343 7.480133 0.000000
v 0.880455 2.539852 -1.524385
v -2.576749 2.382230 -1.524385
v -2.618783 7.373633 -1.524385
v 0.796388 7.457699 -1.524385
v 0.884410 2.562286 0.000000
v -2.572794 2.404663 -0.000000
v 0.800343 7.480133 0.000000
v 0.884410 2.562286 0.000000
v -2.572794 2.404663 -0.000000
v 0.800343 7.480133 0.000000
v 0.888381 2.584808 1.530411
v -2.568823 2.427185 1.530411
v -2.610857 7.418589 1.530411
v 0.804314 7.502655 1.530411
vn 0.0246 -0.9996 0.0146
vn -0.0000 -0.0000 1.0000
vn 1.0000 0.0084 -0.0027
vn -0.0455 0.9989 -0.0146
vn -0.9999 -0.0171 0.0028
vn 1.0000 -0.0000 -0.0000
vn -0.0000 -0.0000 -1.0000
vn -0.9998 -0.0171 0.0028
vt 0.000000 0.000000
s 0
usemtl None.001
f 85/5/32 98/5/32 84/5/32
f 88/5/33 86/5/33 89/5/33
f 83/5/34 88/5/34 84/5/34
f 84/5/32 89/5/32 85/5/32
f 83/5/35 86/5/35 87/5/35
f 82/5/36 89/5/36 86/5/36
f 82/5/37 92/5/37 85/5/37
f 83/5/37 90/5/37 82/5/37
f 90/5/37 95/5/37 92/5/37
f 91/5/37 93/5/37 90/5/37
f 98/5/38 96/5/38 97/5/38
f 82/5/35 97/5/35 96/5/35
f 85/5/39 96/5/39 99/5/39
f 84/5/34 97/5/34 83/5/34
f 85/5/32 99/5/32 98/5/32
f 88/5/33 87/5/33 86/5/33
f 83/5/34 87/5/34 88/5/34
f 84/5/32 88/5/32 89/5/32
f 83/5/35 82/5/35 86/5/35
f 82/5/39 85/5/39 89/5/39
f 82/5/37 90/5/37 92/5/37
f 83/5/37 91/5/37 90/5/37
f 90/5/37 93/5/37 95/5/37
f 91/5/37 94/5/37 93/5/37
f 98/5/38 99/5/38 96/5/38
f 82/5/35 83/5/35 97/5/35
f 85/5/36 82/5/36 96/5/36
f 84/5/34 98/5/34 97/5/34
o livingroom
v -2.562284 -4.194498 -0.000000
v -2.593810 0.229462 -0.000000
v 0.915935 0.218953 0.000000
v 0.926443 -4.247039 0.000000
v -2.566241 -4.216931 -1.524385
v -2.597765 0.207028 -1.524385
v 0.911979 0.196520 -1.524385
v 0.922487 -4.269472 -1.524385
v -2.593810 0.229462 -0.000000
v -2.593810 0.229462 -0.000000
v -2.589839 0.251984 1.530411
v 0.919906 0.241475 1.530411
v -2.558314 -4.171976 1.530411
v 0.930414 -4.224517 1.530411
vn -1.0000 -0.0024 0.0026
vn -0.0000 -0.0000 1.0000
vn 0.0151 0.9998 -0.0148
vn 1.0000 0.0071 -0.0027
vn -0.0030 -0.9999 0.0147
vn -0.0000 -0.0000 -1.0000
vt 0.000000 0.000000
s 0
usemtl None.001
f 102/6/40 113/6/40 111/6/40
f 106/6/41 104/6/41 107/6/41
f 100/6/42 107/6/42 104/6/42
f 100/6/43 105/6/43 101/6/43
f 103/6/40 106/6/40 107/6/40
f 101/6/44 106/6/44 102/6/44
f 111/6/45 112/6/45 110/6/45
f 102/6/44 110/6/44 101/6/44
f 103/6/42 112/6/42 113/6/42
f 101/6/43 112/6/43 100/6/43
f 102/6/40 103/6/40 113/6/40
f 106/6/41 105/6/41 104/6/41
f 100/6/42 103/6/42 107/6/42
f 100/6/43 104/6/43 105/6/43
f 103/6/40 102/6/40 106/6/40
f 101/6/44 105/6/44 106/6/44
f 111/6/45 113/6/45 112/6/45
f 102/6/44 111/6/44 110/6/44
f 103/6/42 100/6/42 112/6/42
f 101/6/43 110/6/43 112/6/43
l 101 108
l 108 109
o outside
v -2.530761 -5.465992 -0.000000
v 2.607759 -5.518534 0.000000
v -2.614828 7.396067 -0.000000
v 5.126227 -5.558815 0.000000
v -5.094766 -7.084259 -0.000000
v 5.126227 -5.558815 0.000000
v -5.085517 -5.589149 -0.000000
v -2.614828 7.396067 -0.000000
v 4.972106 7.616739 0.000000
v 2.607759 -5.518534 0.000000
v -2.530761 -5.465992 -0.000000
v -2.534715 -5.488426 -1.524385
v 2.603803 -5.540967 -1.524385
v -2.618783 7.373633 -1.524385
v -5.089474 -5.611582 -1.524385
v -5.098720 -7.106691 -1.524385
v 5.122272 -5.581249 -1.524385
v -5.309141 7.502854 -1.788510
v -5.404755 10.302554 -1.865191
v 4.968151 7.594306 -1.524385
v 7.414934 11.047041 -1.865190
v 7.287828 -7.419847 -1.865190
v -2.530761 -5.465992 -0.000000
v 2.607759 -5.518534 0.000000
v -2.614828 7.396067 -0.000000
v 5.130198 -5.536294 1.530411
v -5.090795 -7.061737 1.530411
v 5.126227 -5.558815 0.000000
v -5.301215 7.547810 1.266286
v 2.611729 -5.496012 1.530411
v 4.972106 7.616739 0.000000
v -5.081546 -5.566628 1.530411
v -2.526789 -5.443470 1.530411
v -5.089474 -5.611582 -1.524385
v -5.098720 -7.106691 -1.524385
v -5.309141 7.502854 -1.788510
v -5.404755 10.302554 -1.865191
v 7.414934 11.047041 -1.865190
v 7.287828 -7.419847 -1.865190
v -5.305185 7.525288 -0.264125
v -5.400799 10.324987 -0.340806
v 4.972106 7.616739 0.000000
v 7.418889 11.069474 -0.340805
v 7.291782 -7.397415 -0.340805
v -5.089474 -5.611582 -1.524385
v -5.098720 -7.106691 -1.524385
v -5.309141 7.502854 -1.788510
v -5.404755 10.302554 -1.865191
v 7.414934 11.047041 -1.865190
v 7.287828 -7.419847 -1.865190
v -2.610857 7.418589 1.530411
v -5.396828 10.347509 1.189605
v 7.422860 11.091996 1.189606
v 7.295753 -7.374893 1.189606
v 4.976077 7.639261 1.530411
vn 1.0000 -0.0000 -0.0000
vn 0.1570 0.0018 0.9876
vn -0.0968 0.0184 0.9951
vn -0.0291 0.9995 -0.0146
vn -0.0160 -0.9998 0.0148
vn -0.0102 -0.9998 0.0147
vn -0.0000 -0.0000 -0.0000
vn -1.0000 -0.0065 0.0027
vn 0.9999 0.0117 -0.0028
vn 1.0000 -0.0062 -0.0025
vn 0.9994 0.0340 -0.0031
vn 0.9999 0.0167 -0.0028
vn -1.0000 0.0069 0.0025
vn 0.0580 -0.9982 0.0145
vn 0.0249 0.9996 -0.0148
vn -0.1393 0.0010 -0.9903
vn 0.0968 -0.0184 -0.9951
vn -0.0064 0.1096 0.9940
vn -0.0965 0.0240 0.9950
vn -0.0029 0.1003 0.9950
vn -0.0030 -0.1856 0.9826
vn -0.0000 -0.0000 1.0000
vn 0.0243 -0.1195 0.9925
vn 0.1393 -0.0010 0.9903
vn -0.0243 0.1195 -0.9925
vn -0.0000 -0.0000 -1.0000
vn 0.0030 0.1856 -0.9826
vn 0.0965 -0.0240 -0.9950
vn 0.0064 -0.1096 -0.9940
vn 0.0029 -0.1003 -0.9950
vn -0.1570 -0.0018 -0.9876
vt 0.000000 0.000000
s 0
usemtl None.001
f 116/7/46 144/7/46 122/7/46
f 135/7/46 151/7/46 134/7/46
f 133/7/47 130/7/47 135/7/47
f 128/7/48 127/7/48 131/7/48
f 131/7/46 147/7/46 128/7/46
f 128/7/46 148/7/46 129/7/46
f 116/7/49 133/7/49 127/7/49
f 122/7/46 141/7/46 119/7/46
f 132/7/46 149/7/46 131/7/46
f 115/7/50 130/7/50 119/7/50
f 114/7/46 138/7/46 116/7/46
f 114/7/51 126/7/51 115/7/51
f 115/7/52 136/7/52 114/7/52
f 114/7/53 127/7/53 125/7/53
f 119/7/54 133/7/54 122/7/54
f 147/7/46 159/7/46 148/7/46
f 148/7/46 163/7/46 152/7/46
f 138/7/46 155/7/46 144/7/46
f 149/7/46 158/7/46 147/7/46
f 152/7/46 162/7/46 151/7/46
f 144/7/46 117/7/46 141/7/46
f 136/7/46 121/7/46 138/7/46
f 150/7/46 160/7/46 149/7/46
f 134/7/46 150/7/46 132/7/46
f 129/7/46 152/7/46 135/7/46
f 119/7/46 137/7/46 115/7/46
f 155/7/49 164/7/49 168/7/49
f 120/7/55 140/7/55 118/7/55
f 154/7/56 160/7/56 161/7/56
f 118/7/55 158/7/55 120/7/55
f 153/7/57 158/7/57 160/7/57
f 157/7/58 162/7/58 163/7/58
f 154/7/59 162/7/59 156/7/59
f 157/7/60 159/7/60 118/7/60
f 141/7/46 123/7/46 137/7/46
f 151/7/46 161/7/46 150/7/46
f 137/7/52 124/7/52 136/7/52
f 166/7/61 167/7/61 168/7/61
f 164/7/62 145/7/62 142/7/62
f 156/7/58 167/7/58 166/7/58
f 117/7/50 143/7/50 123/7/50
f 156/7/59 165/7/59 154/7/59
f 123/7/51 146/7/51 124/7/51
f 118/7/60 167/7/60 157/7/60
f 121/7/53 146/7/53 164/7/53
f 120/7/57 142/7/57 145/7/57
f 155/7/54 139/7/54 117/7/54
f 153/7/56 165/7/56 142/7/56
f 116/7/46 138/7/46 144/7/46
f 135/7/46 152/7/46 151/7/46
f 134/7/63 132/7/63 127/7/63
f 132/7/64 131/7/64 127/7/64
f 134/7/65 127/7/65 133/7/65
f 130/7/66 126/7/66 135/7/66
f 126/7/67 125/7/67 129/7/67
f 135/7/68 126/7/68 129/7/68
f 125/7/67 128/7/67 129/7/67
f 134/7/69 133/7/69 135/7/69
f 128/7/67 125/7/67 127/7/67
f 131/7/46 149/7/46 147/7/46
f 128/7/46 147/7/46 148/7/46
f 116/7/49 122/7/49 133/7/49
f 122/7/46 144/7/46 141/7/46
f 132/7/46 150/7/46 149/7/46
f 115/7/50 126/7/50 130/7/50
f 114/7/46 136/7/46 138/7/46
f 114/7/51 125/7/51 126/7/51
f 115/7/52 137/7/52 136/7/52
f 114/7/53 116/7/53 127/7/53
f 119/7/54 130/7/54 133/7/54
f 147/7/46 158/7/46 159/7/46
f 148/7/46 159/7/46 163/7/46
f 138/7/46 121/7/46 155/7/46
f 149/7/46 160/7/46 158/7/46
f 152/7/46 163/7/46 162/7/46
f 144/7/46 155/7/46 117/7/46
f 136/7/46 124/7/46 121/7/46
f 150/7/46 161/7/46 160/7/46
f 134/7/46 151/7/46 150/7/46
f 129/7/46 148/7/46 152/7/46
f 119/7/46 141/7/46 137/7/46
f 155/7/49 121/7/49 164/7/49
f 120/7/55 145/7/55 140/7/55
f 154/7/56 153/7/56 160/7/56
f 118/7/55 159/7/55 158/7/55
f 153/7/57 120/7/57 158/7/57
f 157/7/58 156/7/58 162/7/58
f 154/7/59 161/7/59 162/7/59
f 157/7/60 163/7/60 159/7/60
f 141/7/46 117/7/46 123/7/46
f 151/7/46 162/7/46 161/7/46
f 137/7/52 123/7/52 124/7/52
f 167/7/70 140/7/70 143/7/70
f 140/7/71 145/7/71 146/7/71
f 143/7/71 140/7/71 146/7/71
f 143/7/72 139/7/72 167/7/72
f 142/7/73 165/7/73 164/7/73
f 165/7/74 166/7/74 164/7/74
f 164/7/75 166/7/75 168/7/75
f 167/7/76 139/7/76 168/7/76
f 164/7/71 146/7/71 145/7/71
f 156/7/58 157/7/58 167/7/58
f 117/7/50 139/7/50 143/7/50
f 156/7/59 166/7/59 165/7/59
f 123/7/51 143/7/51 146/7/51
f 118/7/60 140/7/60 167/7/60
f 121/7/53 124/7/53 146/7/53
f 120/7/57 153/7/57 142/7/57
f 155/7/54 168/7/54 139/7/54
f 153/7/56 154/7/56 165/7/56
