# Blender 3.5.1
# www.blender.org
mtllib room_areas.mtl
o couch
v -1.469789 1.351568 3.401884
v -1.469887 3.778233 3.401884
v -1.499688 -0.925189 3.401884
v -2.776728 -1.940739 3.401884
v -5.106411 3.753908 3.401884
v -5.094249 -1.092762 3.401884
v -2.710441 -1.123168 3.401884
v -1.469789 1.351568 -1.598116
v -1.469887 3.778233 -1.598116
v -1.499688 -0.925189 -1.598116
v -2.776728 -1.940739 -1.598116
v -5.106411 3.753908 -1.598116
v -5.094249 -1.092762 -1.598116
v -2.710441 -1.123168 -1.598116
vn -0.0000 -0.0000 1.0000
vn -0.0000 -0.0000 -1.0000
vn 1.0000 -0.0000 -0.0000
vn -0.0128 -0.9999 -0.0000
vn -0.0067 1.0000 -0.0000
vn 0.6224 -0.7827 -0.0000
vn -0.9967 0.0808 -0.0000
vn -1.0000 -0.0025 -0.0000
vn 0.9999 -0.0131 -0.0000
vt 0.000000 0.000000
vt 0.000000 0.000000
vt 0.000000 0.000000
vt 0.000000 0.000000
vt 0.000000 0.000000
vt 0.000000 0.000000
vt 0.000000 0.000000
vt 0.000000 0.000000
vt 0.000000 0.000000
vt 0.000000 0.000000
vt 0.000000 0.000000
vt 0.000000 0.000000
vt 0.000000 0.000000
vt 0.000000 0.000000
s 0
f 3/3/1 1/1/1 7/7/1
f 14/14/2 13/13/2 8/8/2
f 1/1/3 9/9/3 2/2/3
f 6/6/4 14/14/4 7/7/4
f 2/2/5 12/12/5 5/5/5
f 4/4/6 10/10/6 3/3/6
f 7/7/7 11/11/7 4/4/7
f 5/5/8 13/13/8 6/6/8
f 3/3/9 8/8/9 1/1/9
f 2/2/1 5/5/1 1/1/1
f 5/5/1 6/6/1 1/1/1
f 7/7/1 4/4/1 3/3/1
f 6/6/1 7/7/1 1/1/1
f 13/13/2 12/12/2 8/8/2
f 12/12/2 9/9/2 8/8/2
f 8/8/2 10/10/2 14/14/2
f 10/10/2 11/11/2 14/14/2
f 1/1/3 8/8/3 9/9/3
f 6/6/4 13/13/4 14/14/4
f 2/2/5 9/9/5 12/12/5
f 4/4/6 11/11/6 10/10/6
f 7/7/7 14/14/7 11/11/7
f 5/5/8 12/12/8 13/13/8
f 3/3/9 10/10/9 8/8/9
o door
v -0.276935 2.347617 3.401884
v 1.854998 2.103767 3.401884
v -0.312682 1.364237 3.401884
v -1.469789 1.351568 3.401884
v -1.469887 3.778233 3.401884
v 1.831327 3.809955 3.401884
v -0.312682 1.364237 -1.598116
v -0.276935 2.347617 -1.598116
v 1.854998 2.103767 -1.598116
v -1.469789 1.351568 -1.598116
v -1.469887 3.778233 -1.598116
v 1.831327 3.809955 -1.598116
vn -0.0000 -0.0000 1.0000
vn -0.0000 -0.0000 -1.0000
vn -0.0096 1.0000 -0.0000
vn -1.0000 -0.0000 -0.0000
vn -0.1136 -0.9935 -0.0000
vn 0.9999 0.0139 -0.0000
vn 0.0109 -0.9999 -0.0000
vn 0.9993 -0.0363 -0.0000
vt 0.000000 0.000000
vt 0.000000 0.000000
vt 0.000000 0.000000
vt 0.000000 0.000000
vt 0.000000 0.000000
vt 0.000000 0.000000
vt 0.000000 0.000000
vt 0.000000 0.000000
vt 0.000000 0.000000
vt 0.000000 0.000000
vt 0.000000 0.000000
vt 0.000000 0.000000
s 0
f 15/15/10 20/20/10 19/19/10
f 22/22/11 24/24/11 25/25/11
f 20/20/12 25/25/12 19/19/12
f 19/19/13 24/24/13 18/18/13
f 15/15/14 23/23/14 16/16/14
f 16/16/15 26/26/15 20/20/15
f 18/18/16 21/21/16 17/17/16
f 17/17/17 22/22/17 15/15/17
f 15/15/10 16/16/10 20/20/10
f 19/19/10 18/18/10 15/15/10
f 18/18/10 17/17/10 15/15/10
f 22/22/11 21/21/11 24/24/11
f 25/25/11 26/26/11 22/22/11
f 26/26/11 23/23/11 22/22/11
f 20/20/12 26/26/12 25/25/12
f 19/19/13 25/25/13 24/24/13
f 15/15/14 22/22/14 23/23/14
f 16/16/15 23/23/15 26/26/15
f 18/18/16 24/24/16 21/21/16
f 17/17/17 21/21/17 22/22/17
o living_room
v -0.316905 0.055102 3.401884
v -0.276935 2.347617 3.401884
v 1.854998 2.103767 3.401884
v 3.464082 -0.333907 3.401884
v -0.312682 1.364237 3.401884
v 1.831327 3.809955 3.401884
v 0.823309 0.048767 3.401884
v 0.823309 -0.949513 3.401884
v 2.172447 -2.034194 3.401884
v 5.488187 3.694365 3.401884
v 5.455787 -0.193384 3.401884
v -0.312682 1.364237 -1.598116
v -0.276935 2.347617 -1.598116
v 1.854998 2.103767 -1.598116
v 3.464082 -0.333907 -1.598116
v 5.455787 -0.193384 -1.598116
v 2.172447 -2.034194 -1.598116
v -0.316905 0.055102 -1.598116
v 1.831327 3.809955 -1.598116
v 0.823309 0.048767 -1.598116
v 0.823309 -0.949513 -1.598116
v 5.488187 3.694365 -1.598116
vn -0.0000 -0.0000 1.0000
vn -0.0000 -0.0000 -1.0000
vn 0.0704 -0.9975 -0.0000
vn 1.0000 -0.0083 -0.0000
vn -0.0056 -1.0000 -0.0000
vn 0.7963 -0.6049 -0.0000
vn -0.6266 -0.7794 -0.0000
vn -0.9993 0.0363 -0.0000
vn -1.0000 -0.0000 -0.0000
vn -1.0000 0.0032 -0.0000
vn 0.1136 0.9935 -0.0000
vn 0.0316 0.9995 -0.0000
vn -0.9999 -0.0139 -0.0000
vt 0.000000 0.000000
vt 0.000000 0.000000
vt 0.000000 0.000000
vt 0.000000 0.000000
vt 0.000000 0.000000
vt 0.000000 0.000000
vt 0.000000 0.000000
vt 0.000000 0.000000
vt 0.000000 0.000000
vt 0.000000 0.000000
vt 0.000000 0.000000
vt 0.000000 0.000000
vt 0.000000 0.000000
vt 0.000000 0.000000
vt 0.000000 0.000000
vt 0.000000 0.000000
vt 0.000000 0.000000
vt 0.000000 0.000000
vt 0.000000 0.000000
vt 0.000000 0.000000
vt 0.000000 0.000000
vt 0.000000 0.000000
s 0
f 30/30/18 36/36/18 29/29/18
f 40/40/19 41/41/19 46/46/19
f 30/30/20 42/42/20 37/37/20
f 37/37/21 48/48/21 36/36/21
f 27/27/22 46/46/22 33/33/22
f 35/35/23 41/41/23 30/30/23
f 34/34/24 43/43/24 35/35/24
f 28/28/25 38/38/25 31/31/25
f 33/33/26 47/47/26 34/34/26
f 31/31/27 44/44/27 27/27/27
f 29/29/28 39/39/28 28/28/28
f 36/36/29 45/45/29 32/32/29
f 32/32/30 40/40/30 29/29/30
f 29/29/18 28/28/18 31/31/18
f 31/31/18 27/27/18 33/33/18
f 33/33/18 34/34/18 30/30/18
f 34/34/18 35/35/18 30/30/18
f 30/30/18 37/37/18 36/36/18
f 29/29/18 31/31/18 33/33/18
f 36/36/18 32/32/18 29/29/18
f 33/33/18 30/30/18 29/29/18
f 38/38/19 39/39/19 40/40/19
f 40/40/19 45/45/19 48/48/19
f 48/48/19 42/42/19 41/41/19
f 41/41/19 43/43/19 47/47/19
f 46/46/19 44/44/19 38/38/19
f 41/41/19 47/47/19 46/46/19
f 40/40/19 48/48/19 41/41/19
f 46/46/19 38/38/19 40/40/19
f 30/30/20 41/41/20 42/42/20
f 37/37/21 42/42/21 48/48/21
f 27/27/22 44/44/22 46/46/22
f 35/35/23 43/43/23 41/41/23
f 34/34/24 47/47/24 43/43/24
f 28/28/25 39/39/25 38/38/25
f 33/33/26 46/46/26 47/47/26
f 31/31/27 38/38/27 44/44/27
f 29/29/28 40/40/28 39/39/28
f 36/36/29 48/48/29 45/45/29
f 32/32/30 45/45/30 40/40/30
o dinning_room
v 3.464082 -0.333907 3.401884
v 2.172447 -2.034194 3.401884
v 5.455787 -0.193384 3.401884
v 5.448489 -3.747204 3.401884
v 2.157375 -3.761799 3.401884
v 3.464082 -0.333907 -1.598116
v 5.455787 -0.193384 -1.598116
v 2.172447 -2.034194 -1.598116
v 5.448489 -3.747204 -1.598116
v 2.157375 -3.761799 -1.598116
vn -0.0000 -0.0000 1.0000
vn -0.0000 -0.0000 -1.0000
vn 0.0044 -1.0000 -0.0000
vn -0.7963 0.6049 -0.0000
vn -1.0000 0.0087 -0.0000
vn 1.0000 -0.0021 -0.0000
vn -0.0704 0.9975 -0.0000
vt 0.000000 0.000000
vt 0.000000 0.000000
vt 0.000000 0.000000
vt 0.000000 0.000000
vt 0.000000 0.000000
vt 0.000000 0.000000
vt 0.000000 0.000000
vt 0.000000 0.000000
vt 0.000000 0.000000
vt 0.000000 0.000000
s 0
f 50/50/31 53/53/31 52/52/31
f 57/57/32 58/58/32 56/56/32
f 53/53/33 57/57/33 52/52/33
f 49/49/34 56/56/34 50/50/34
f 50/50/35 58/58/35 53/53/35
f 52/52/36 55/55/36 51/51/36
f 51/51/37 54/54/37 49/49/37
f 51/51/31 49/49/31 52/52/31
f 49/49/31 50/50/31 52/52/31
f 56/56/32 54/54/32 57/57/32
f 54/54/32 55/55/32 57/57/32
f 53/53/33 58/58/33 57/57/33
f 49/49/34 54/54/34 56/56/34
f 50/50/35 56/56/35 58/58/35
f 52/52/36 57/57/36 55/55/36
f 51/51/37 55/55/37 54/54/37
o kitchen
v 0.823309 -0.949513 3.401884
v 2.172447 -2.034194 3.401884
v 2.157375 -3.761799 3.401884
v -1.499688 -0.925189 3.401884
v -2.776728 -1.940739 3.401884
v -2.797533 -3.782988 3.401884
v 0.823309 -0.949513 -1.598116
v 2.172447 -2.034194 -1.598116
v 2.157375 -3.761799 -1.598116
v -1.499688 -0.925189 -1.598116
v -2.776728 -1.940739 -1.598116
v -2.797533 -3.782988 -1.598116
vn -0.0000 -0.0000 1.0000
vn -0.0000 -0.0000 -1.0000
vn 0.6266 0.7794 -0.0000
vn 0.0043 -1.0000 -0.0000
vn -0.6224 0.7827 -0.0000
vn 1.0000 -0.0087 -0.0000
vn -0.9999 0.0113 -0.0000
vn 0.0105 0.9999 -0.0000
vt 0.000000 0.000000
vt 0.000000 0.000000
vt 0.000000 0.000000
vt 0.000000 0.000000
vt 0.000000 0.000000
vt 0.000000 0.000000
vt 0.000000 0.000000
vt 0.000000 0.000000
vt 0.000000 0.000000
vt 0.000000 0.000000
vt 0.000000 0.000000
vt 0.000000 0.000000
s 0
f 64/64/38 61/61/38 59/59/38
f 65/65/39 70/70/39 68/68/39
f 60/60/40 65/65/40 59/59/40
f 64/64/41 67/67/41 61/61/41
f 62/62/42 69/69/42 63/63/42
f 61/61/43 66/66/43 60/60/43
f 63/63/44 70/70/44 64/64/44
f 59/59/45 68/68/45 62/62/45
f 61/61/38 60/60/38 59/59/38
f 59/59/38 62/62/38 64/64/38
f 62/62/38 63/63/38 64/64/38
f 65/65/39 66/66/39 67/67/39
f 67/67/39 70/70/39 65/65/39
f 70/70/39 69/69/39 68/68/39
f 60/60/40 66/66/40 65/65/40
f 64/64/41 70/70/41 67/67/41
f 62/62/42 68/68/42 69/69/42
f 61/61/43 67/67/43 66/66/43
f 63/63/44 69/69/44 70/70/44
f 59/59/45 65/65/45 68/68/45
o bathroom
v -2.776728 -1.940739 3.401884
v -2.797533 -3.782988 3.401884
v -5.094249 -1.092762 3.401884
v -2.710441 -1.123168 3.401884
v -5.108325 -3.855318 3.401884
v -2.776728 -1.940739 -1.598116
v -2.797533 -3.782988 -1.598116
v -5.094249 -1.092762 -1.598116
v -2.710441 -1.123168 -1.598116
v -5.108325 -3.855318 -1.598116
vn -0.0000 -0.0000 1.0000
vn -0.0000 -0.0000 -1.0000
vn -1.0000 0.0051 -0.0000
vn 0.0128 0.9999 -0.0000
vn 0.0313 -0.9995 -0.0000
vn 0.9967 -0.0808 -0.0000
vn 0.9999 -0.0113 -0.0000
vt 0.000000 0.000000
vt 0.000000 0.000000
vt 0.000000 0.000000
vt 0.000000 0.000000
vt 0.000000 0.000000
vt 0.000000 0.000000
vt 0.000000 0.000000
vt 0.000000 0.000000
vt 0.000000 0.000000
vt 0.000000 0.000000
s 0
f 71/71/46 73/73/46 75/75/46
f 78/78/47 79/79/47 76/76/47
f 73/73/48 80/80/48 75/75/48
f 74/74/49 78/78/49 73/73/49
f 75/75/50 77/77/50 72/72/50
f 71/71/51 79/79/51 74/74/51
f 72/72/52 76/76/52 71/71/52
f 75/75/46 72/72/46 71/71/46
f 71/71/46 74/74/46 73/73/46
f 76/76/47 77/77/47 80/80/47
f 80/80/47 78/78/47 76/76/47
f 73/73/48 78/78/48 80/80/48
f 74/74/49 79/79/49 78/78/49
f 75/75/50 80/80/50 77/77/50
f 71/71/51 76/76/51 79/79/51
f 72/72/52 77/77/52 76/76/52
