# Blender v3.6.1 OBJ File: 'faces _SET.blend'
# www.blender.org
mtllib room_areas.mtl
o kitchen
v 2.562286 0.000000 0.884410
v 2.404663 0.000000 -2.572794
v 7.396067 0.000000 -2.614827
v 7.480133 0.000000 0.800344
v 2.539852 -1.524385 0.880455
v 2.382230 -1.524385 -2.576749
v 7.373633 -1.524385 -2.618782
v 7.457699 -1.524385 0.796389
v 2.562286 0.000000 0.884410
v 2.404663 0.000000 -2.572794
v 7.480133 0.000000 0.800344
v 2.562286 0.000000 0.884410
v 2.404663 0.000000 -2.572794
v 7.480133 0.000000 0.800344
v 2.584808 1.530411 0.888381
v 2.427185 1.530411 -2.568823
v 7.418589 1.530411 -2.610856
v 7.502655 1.530411 0.804315
vt 0.000000 0.000000
vt 0.000000 0.000000
vt 0.000000 0.000000
vt 0.000000 0.000000
vt 0.000000 0.000000
vt 0.000000 0.000000
vt 0.000000 0.000000
vt 0.000000 0.000000
vt 0.000000 0.000000
vt 0.000000 0.000000
vt 0.000000 0.000000
vt 0.000000 0.000000
vt 0.000000 0.000000
vt 0.000000 0.000000
vt 0.000000 0.000000
vt 0.000000 0.000000
vt 0.000000 0.000000
vt 0.000000 0.000000
vn -0.9996 0.0146 0.0246
vn 0.0000 1.0000 -0.0000
vn 0.0084 -0.0027 1.0000
vn 0.9989 -0.0146 -0.0455
vn -0.0171 0.0028 -0.9998
vn 0.0000 0.0000 1.0000
vn 0.0000 -1.0000 0.0000
usemtl None
s off
f 4/1/1 17/2/1 3/3/1
f 7/4/2 5/5/2 8/6/2
f 2/7/3 7/4/3 3/3/3
f 3/3/1 8/6/1 4/1/1
f 2/7/4 5/5/4 6/8/4
f 1/9/5 8/6/5 5/5/5
f 1/9/6 11/10/6 4/1/6
f 2/7/6 9/11/6 1/9/6
f 9/11/6 14/12/6 11/10/6
f 10/13/6 12/14/6 9/11/6
f 17/2/7 15/15/7 16/16/7
f 1/9/4 16/16/4 15/15/4
f 4/1/5 15/15/5 18/17/5
f 3/3/3 16/16/3 2/7/3
f 4/1/1 18/17/1 17/2/1
f 7/4/2 6/8/2 5/5/2
f 2/7/3 6/8/3 7/4/3
f 3/3/1 7/4/1 8/6/1
f 2/7/4 1/9/4 5/5/4
f 1/9/5 4/1/5 8/6/5
f 1/9/6 9/11/6 11/10/6
f 2/7/6 10/13/6 9/11/6
f 9/11/6 12/14/6 14/12/6
f 10/13/6 13/18/6 12/14/6
f 17/2/7 18/17/7 15/15/7
f 1/9/4 2/7/4 16/16/4
f 4/1/5 1/9/5 15/15/5
f 3/3/3 17/2/3 16/16/3
o outside
v -5.465992 0.000000 -2.530761
v -5.518534 0.000000 2.607758
v 7.396067 0.000000 -2.614827
v -5.558815 0.000000 5.126227
v -7.084258 0.000000 -5.094766
v -5.558815 0.000000 5.126227
v -5.589149 0.000000 -5.085518
v 7.396067 0.000000 -2.614827
v 7.616739 0.000000 4.972106
v -5.518534 0.000000 2.607758
v -5.465992 0.000000 -2.530761
v -5.488426 -1.524385 -2.534716
v -5.540967 -1.524385 2.603802
v 7.373633 -1.524385 -2.618782
v -5.611582 -1.524385 -5.089474
v -7.106691 -1.524385 -5.098721
v -5.581249 -1.524385 5.122272
v 7.502855 -1.788510 -5.309140
v 10.302554 -1.865191 -5.404754
v 7.594306 -1.524385 4.968151
v 11.047040 -1.865191 7.414935
v -7.419848 -1.865191 7.287827
v -5.465992 0.000000 -2.530761
v -5.518534 0.000000 2.607758
v 7.396067 0.000000 -2.614827
v -5.536294 1.530411 5.130198
v -7.061736 1.530411 -5.090795
v -5.558815 0.000000 5.126227
v 7.547810 1.266286 -5.301214
v -5.496012 1.530411 2.611729
v 7.616739 0.000000 4.972106
v -5.566627 1.530411 -5.081547
v -5.443470 1.530411 -2.526790
v -5.611582 -1.524385 -5.089474
v -7.106691 -1.524385 -5.098721
v 7.502855 -1.788510 -5.309140
v 10.302554 -1.865191 -5.404754
v 11.047040 -1.865191 7.414935
v -7.419848 -1.865191 7.287827
v 7.525288 -0.264125 -5.305185
v 10.324987 -0.340806 -5.400798
v 7.616739 0.000000 4.972106
v 11.069473 -0.340806 7.418890
v -7.397415 -0.340806 7.291782
v -5.611582 -1.524385 -5.089474
v -7.106691 -1.524385 -5.098721
v 7.502855 -1.788510 -5.309140
v 10.302554 -1.865191 -5.404754
v 11.047040 -1.865191 7.414935
v -7.419848 -1.865191 7.287827
v 7.418589 1.530411 -2.610856
v 10.347509 1.189605 -5.396827
v 11.091995 1.189605 7.422861
v -7.374893 1.189605 7.295753
v 7.639261 1.530411 4.976078
vt 0.000000 0.000000
vt 0.000000 0.000000
vt 0.000000 0.000000
vt 0.000000 0.000000
vt 0.000000 0.000000
vt 0.000000 0.000000
vt 0.000000 0.000000
vt 0.000000 0.000000
vt 0.000000 0.000000
vt 0.000000 0.000000
vt 0.000000 0.000000
vt 0.000000 0.000000
vt 0.000000 0.000000
vt 0.000000 0.000000
vt 0.000000 0.000000
vt 0.000000 0.000000
vt 0.000000 0.000000
vt 0.000000 0.000000
vt 0.000000 0.000000
vt 0.000000 0.000000
vt 0.000000 0.000000
vt 0.000000 0.000000
vt 0.000000 0.000000
vt 0.000000 0.000000
vt 0.000000 0.000000
vt 0.000000 0.000000
vt 0.000000 0.000000
vt 0.000000 0.000000
vt 0.000000 0.000000
vt 0.000000 0.000000
vt 0.000000 0.000000
vt 0.000000 0.000000
vt 0.000000 0.000000
vt 0.000000 0.000000
vt 0.000000 0.000000
vt 0.000000 0.000000
vt 0.000000 0.000000
vt 0.000000 0.000000
vt 0.000000 0.000000
vt 0.000000 0.000000
vt 0.000000 0.000000
vt 0.000000 0.000000
vt 0.000000 0.000000
vt 0.000000 0.000000
vt 0.000000 0.000000
vt 0.000000 0.000000
vt 0.000000 0.000000
vt 0.000000 0.000000
vt 0.000000 0.000000
vt 0.000000 0.000000
vt 0.000000 0.000000
vt 0.000000 0.000000
vt 0.000000 0.000000
vt 0.000000 0.000000
vt 0.000000 0.000000
vn 0.0000 0.0000 1.0000
vn 0.0018 0.9876 0.1570
vn 0.0184 0.9951 -0.0968
vn 0.9995 -0.0146 -0.0291
vn -0.9998 0.0148 -0.0160
vn -0.9998 0.0147 -0.0102
vn -0.0065 0.0027 -1.0000
vn 0.0117 -0.0028 0.9999
vn -0.0062 -0.0025 1.0000
vn 0.0340 -0.0031 0.9994
vn 0.0167 -0.0028 0.9999
vn 0.0069 0.0025 -1.0000
vn -0.9982 0.0145 0.0580
vn 0.9996 -0.0148 0.0249
vn 0.0010 -0.9903 -0.1393
vn -0.0184 -0.9951 0.0968
vn 0.1096 0.9940 -0.0064
vn 0.0240 0.9950 -0.0965
vn 0.1003 0.9950 -0.0029
vn -0.1856 0.9826 -0.0030
vn 0.0000 1.0000 0.0000
vn -0.1195 0.9925 0.0243
vn -0.0010 0.9903 0.1393
vn 0.1195 -0.9925 -0.0243
vn 0.0000 -1.0000 0.0000
vn 0.1856 -0.9826 0.0030
vn -0.0240 -0.9950 0.0965
vn -0.1096 -0.9940 0.0064
vn -0.1003 -0.9950 0.0029
vn -0.0018 -0.9876 -0.1570
usemtl None
s off
f 21/19/8 49/20/8 27/21/8
f 40/22/8 56/23/8 39/24/8
f 38/25/9 35/26/9 40/22/9
f 33/27/10 32/28/10 36/29/10
f 36/29/8 52/30/8 33/27/8
f 33/27/8 53/31/8 34/32/8
f 21/19/11 38/25/11 32/28/11
f 27/21/8 46/33/8 24/34/8
f 37/35/8 54/36/8 36/29/8
f 20/37/12 35/26/12 24/34/12
f 19/38/8 43/39/8 21/19/8
f 19/38/13 31/40/13 20/37/13
f 20/37/8 41/41/8 19/38/8
f 19/38/14 32/28/14 30/42/14
f 24/34/15 38/25/15 27/21/15
f 52/30/8 64/43/8 53/31/8
f 53/31/8 68/44/8 57/45/8
f 43/39/8 60/46/8 49/20/8
f 54/36/8 63/47/8 52/30/8
f 57/45/8 67/48/8 56/23/8
f 49/20/8 22/49/8 46/33/8
f 41/41/8 26/50/8 43/39/8
f 55/51/8 65/52/8 54/36/8
f 39/24/8 55/51/8 37/35/8
f 34/32/8 57/45/8 40/22/8
f 24/34/8 42/53/8 20/37/8
f 60/46/11 69/54/11 73/55/11
f 25/56/16 45/57/16 23/58/16
f 59/59/17 65/52/17 66/60/17
f 23/58/16 63/47/16 25/56/16
f 58/61/18 63/47/18 65/52/18
f 62/62/19 67/48/19 68/44/19
f 59/59/20 67/48/20 61/63/20
f 62/62/21 64/43/21 23/58/21
f 46/33/8 28/64/8 42/53/8
f 56/23/8 66/60/8 55/51/8
f 42/53/8 29/65/8 41/41/8
f 71/66/22 72/67/22 73/55/22
f 69/54/23 50/68/23 47/69/23
f 61/63/19 72/67/19 71/66/19
f 22/49/12 48/70/12 28/64/12
f 61/63/20 70/71/20 59/59/20
f 28/64/13 51/72/13 29/65/13
f 23/58/21 72/67/21 62/62/21
f 26/50/14 51/72/14 69/54/14
f 25/56/18 47/69/18 50/68/18
f 60/46/15 44/73/15 22/49/15
f 58/61/17 70/71/17 47/69/17
f 21/19/8 43/39/8 49/20/8
f 40/22/8 57/45/8 56/23/8
f 39/24/24 37/35/24 32/28/24
f 37/35/25 36/29/25 32/28/25
f 39/24/26 32/28/26 38/25/26
f 35/26/27 31/40/27 40/22/27
f 31/40/28 30/42/28 34/32/28
f 40/22/29 31/40/29 34/32/29
f 30/42/28 33/27/28 34/32/28
f 39/24/30 38/25/30 40/22/30
f 33/27/28 30/42/28 32/28/28
f 36/29/8 54/36/8 52/30/8
f 33/27/8 52/30/8 53/31/8
f 21/19/11 27/21/11 38/25/11
f 27/21/8 49/20/8 46/33/8
f 37/35/8 55/51/8 54/36/8
f 20/37/12 31/40/12 35/26/12
f 19/38/8 41/41/8 43/39/8
f 19/38/13 30/42/13 31/40/13
f 20/37/8 42/53/8 41/41/8
f 19/38/14 21/19/14 32/28/14
f 24/34/15 35/26/15 38/25/15
f 52/30/8 63/47/8 64/43/8
f 53/31/8 64/43/8 68/44/8
f 43/39/8 26/50/8 60/46/8
f 54/36/8 65/52/8 63/47/8
f 57/45/8 68/44/8 67/48/8
f 49/20/8 60/46/8 22/49/8
f 41/41/8 29/65/8 26/50/8
f 55/51/8 66/60/8 65/52/8
f 39/24/8 56/23/8 55/51/8
f 34/32/8 53/31/8 57/45/8
f 24/34/8 46/33/8 42/53/8
f 60/46/11 26/50/11 69/54/11
f 25/56/16 50/68/16 45/57/16
f 59/59/17 58/61/17 65/52/17
f 23/58/16 64/43/16 63/47/16
f 58/61/18 25/56/18 63/47/18
f 62/62/19 61/63/19 67/48/19
f 59/59/20 66/60/20 67/48/20
f 62/62/21 68/44/21 64/43/21
f 46/33/8 22/49/8 28/64/8
f 56/23/8 67/48/8 66/60/8
f 42/53/8 28/64/8 29/65/8
f 72/67/31 45/57/31 48/70/31
f 45/57/32 50/68/32 51/72/32
f 48/70/32 45/57/32 51/72/32
f 48/70/33 44/73/33 72/67/33
f 47/69/34 70/71/34 69/54/34
f 70/71/35 71/66/35 69/54/35
f 69/54/36 71/66/36 73/55/36
f 72/67/37 44/73/37 73/55/37
f 69/54/32 51/72/32 50/68/32
f 61/63/19 62/62/19 72/67/19
f 22/49/12 44/73/12 48/70/12
f 61/63/20 71/66/20 70/71/20
f 28/64/13 48/70/13 51/72/13
f 23/58/21 45/57/21 72/67/21
f 26/50/14 29/65/14 51/72/14
f 25/56/18 58/61/18 47/69/18
f 60/46/15 73/55/15 44/73/15
f 58/61/17 59/59/17 70/71/17
o hallway
v -4.194498 0.000000 -2.562285
v 0.218953 0.000000 0.915935
v -4.247039 0.000000 0.926443
v -5.465992 0.000000 -2.530761
v -5.518534 0.000000 2.607758
v 2.583302 0.000000 2.492167
v 2.562286 0.000000 0.884410
v -4.216931 -1.524385 -2.566241
v 0.196520 -1.524385 0.911979
v -4.269472 -1.524385 0.922487
v -5.488426 -1.524385 -2.534716
v -5.540967 -1.524385 2.603802
v 2.560869 -1.524385 2.488212
v 2.539852 -1.524385 0.880455
v -4.194498 0.000000 -2.562285
v 0.218953 0.000000 0.915935
v -4.247039 0.000000 0.926443
v 2.583302 0.000000 2.492167
v -4.194498 0.000000 -2.562285
v 0.218953 0.000000 0.915935
v -4.247039 0.000000 0.926443
v 2.583302 0.000000 2.492167
v 0.241475 1.530411 0.919906
v -4.224517 1.530411 0.930414
v -4.171976 1.530411 -2.558314
v -5.443470 1.530411 -2.526790
v -5.496012 1.530411 2.611729
v 2.605824 1.530411 2.496138
v 2.584808 1.530411 0.888381
vt 0.000000 0.000000
vt 0.000000 0.000000
vt 0.000000 0.000000
vt 0.000000 0.000000
vt 0.000000 0.000000
vt 0.000000 0.000000
vt 0.000000 0.000000
vt 0.000000 0.000000
vt 0.000000 0.000000
vt 0.000000 0.000000
vt 0.000000 0.000000
vt 0.000000 0.000000
vt 0.000000 0.000000
vt 0.000000 0.000000
vt 0.000000 0.000000
vt 0.000000 0.000000
vt 0.000000 0.000000
vt 0.000000 0.000000
vt 0.000000 0.000000
vt 0.000000 0.000000
vt 0.000000 0.000000
vt 0.000000 0.000000
vt 0.000000 0.000000
vt 0.000000 0.000000
vt 0.000000 0.000000
vt 0.000000 0.000000
vt 0.000000 0.000000
vn 0.0248 -0.0030 0.9997
vn 0.0000 1.0000 0.0000
vn 0.0135 -0.0028 0.9999
vn -0.0143 0.0028 -0.9999
vn -0.9998 0.0148 -0.0151
vn 0.9998 -0.0147 0.0102
vn -0.9998 0.0147 0.0131
vn 0.0024 -0.0026 1.0000
vn 0.0000 0.0000 1.0000
vn 0.0000 -1.0000 -0.0000
usemtl None
s off
f 74/74/38 99/75/38 77/76/38
f 83/77/39 85/78/39 82/79/39
f 75/80/40 87/81/40 80/82/40
f 78/83/41 86/84/41 85/78/41
f 74/74/42 83/77/42 76/85/42
f 77/76/43 85/78/43 84/86/43
f 80/82/44 86/84/44 79/87/44
f 77/76/38 81/88/38 74/74/38
f 76/85/45 82/79/45 75/80/45
f 76/85/46 88/89/46 74/74/46
f 75/80/46 90/90/46 76/85/46
f 90/90/46 92/91/46 88/89/46
f 89/92/46 94/93/46 90/90/46
f 96/94/47 101/95/47 100/96/47
f 75/80/45 97/97/45 76/85/45
f 80/82/40 96/94/40 75/80/40
f 79/87/41 100/96/41 101/95/41
f 76/85/42 98/98/42 74/74/42
f 78/83/43 99/75/43 100/96/43
f 79/87/44 102/99/44 80/82/44
f 74/74/38 98/98/38 99/75/38
f 83/77/39 81/88/39 84/86/39
f 85/78/39 86/84/39 82/79/39
f 86/84/39 87/81/39 82/79/39
f 83/77/39 84/86/39 85/78/39
f 75/80/40 82/79/40 87/81/40
f 78/83/41 79/87/41 86/84/41
f 74/74/42 81/88/42 83/77/42
f 77/76/43 78/83/43 85/78/43
f 80/82/44 87/81/44 86/84/44
f 77/76/38 84/86/38 81/88/38
f 76/85/45 83/77/45 82/79/45
f 76/85/46 90/90/46 88/89/46
f 75/80/46 89/92/46 90/90/46
f 90/90/46 94/93/46 92/91/46
f 89/92/46 93/100/46 94/93/46
f 96/94/47 102/99/47 101/95/47
f 100/96/47 99/75/47 97/97/47
f 99/75/47 98/98/47 97/97/47
f 97/97/47 96/94/47 100/96/47
f 75/80/45 96/94/45 97/97/45
f 80/82/40 102/99/40 96/94/40
f 79/87/41 78/83/41 100/96/41
f 76/85/42 97/97/42 98/98/42
f 78/83/43 77/76/43 99/75/43
f 79/87/44 101/95/44 102/99/44
l 79 91
l 91 95
o livingroom
v -4.194498 0.000000 -2.562285
v 0.229462 0.000000 -2.593810
v 0.218953 0.000000 0.915935
v -4.247039 0.000000 0.926443
v -4.216931 -1.524385 -2.566241
v 0.207028 -1.524385 -2.597765
v 0.196520 -1.524385 0.911979
v -4.269472 -1.524385 0.922487
v 0.229462 0.000000 -2.593810
v 0.229462 0.000000 -2.593810
v 0.251984 1.530411 -2.589839
v 0.241475 1.530411 0.919906
v -4.171976 1.530411 -2.558314
v -4.224517 1.530411 0.930414
vt 0.000000 0.000000
vt 0.000000 0.000000
vt 0.000000 0.000000
vt 0.000000 0.000000
vt 0.000000 0.000000
vt 0.000000 0.000000
vt 0.000000 0.000000
vt 0.000000 0.000000
vt 0.000000 0.000000
vt 0.000000 0.000000
vt 0.000000 0.000000
vt 0.000000 0.000000
vn -0.0024 0.0026 -1.0000
vn 0.0000 1.0000 0.0000
vn 0.9998 -0.0148 0.0151
vn 0.0071 -0.0027 1.0000
vn -0.9999 0.0147 -0.0030
vn 0.0000 -1.0000 0.0000
usemtl None
s off
f 105/101/48 116/102/48 114/103/48
f 109/104/49 107/105/49 110/106/49
f 103/107/50 110/106/50 107/105/50
f 103/107/51 108/108/51 104/109/51
f 106/110/48 109/104/48 110/106/48
f 104/109/52 109/104/52 105/101/52
f 114/103/53 115/111/53 113/112/53
f 105/101/52 113/112/52 104/109/52
f 106/110/50 115/111/50 116/102/50
f 104/109/51 115/111/51 103/107/51
f 105/101/48 106/110/48 116/102/48
f 109/104/49 108/108/49 107/105/49
f 103/107/50 106/110/50 110/106/50
f 103/107/51 107/105/51 108/108/51
f 106/110/48 105/101/48 109/104/48
f 104/109/52 108/108/52 109/104/52
f 114/103/53 116/102/53 115/111/53
f 105/101/52 114/103/52 113/112/52
f 106/110/50 103/107/50 115/111/50
f 104/109/51 113/112/51 115/111/51
l 104 111
l 111 112
o bedroom
v 0.229462 0.000000 -2.593810
v 0.218953 0.000000 0.915935
v 2.562286 0.000000 0.884410
v 2.404663 0.000000 -2.572794
v 0.207028 -1.524385 -2.597765
v 0.196520 -1.524385 0.911979
v 2.539852 -1.524385 0.880455
v 2.382230 -1.524385 -2.576749
v 0.251984 1.530411 -2.589839
v 0.241475 1.530411 0.919906
v 2.584808 1.530411 0.888381
v 2.427185 1.530411 -2.568823
vt 0.000000 0.000000
vt 0.000000 0.000000
vt 0.000000 0.000000
vt 0.000000 0.000000
vt 0.000000 0.000000
vt 0.000000 0.000000
vt 0.000000 0.000000
vt 0.000000 0.000000
vt 0.000000 0.000000
vt 0.000000 0.000000
vt 0.000000 0.000000
vt 0.000000 0.000000
vn -0.0097 -0.0025 1.0000
vn 0.0000 1.0000 0.0000
vn -0.0135 0.0028 -0.9999
vn -0.9989 0.0146 0.0455
vn 0.9999 -0.0147 0.0030
vn 0.0000 -1.0000 0.0000
usemtl None
s off
f 120/113/54 125/114/54 117/115/54
f 122/116/55 124/117/55 121/118/55
f 118/119/56 123/120/56 122/116/56
f 120/113/57 123/120/57 119/121/57
f 117/115/58 122/116/58 121/118/58
f 117/115/54 124/117/54 120/113/54
f 128/122/59 126/123/59 125/114/59
f 119/121/56 126/123/56 127/124/56
f 119/121/57 128/122/57 120/113/57
f 118/119/58 125/114/58 126/123/58
f 120/113/54 128/122/54 125/114/54
f 122/116/55 123/120/55 124/117/55
f 118/119/56 119/121/56 123/120/56
f 120/113/57 124/117/57 123/120/57
f 117/115/58 118/119/58 122/116/58
f 117/115/54 121/118/54 124/117/54
f 128/122/59 127/124/59 126/123/59
f 119/121/56 118/119/56 126/123/56
f 119/121/57 127/124/57 128/122/57
f 118/119/58 117/115/58 125/114/58
o dining
v 2.583302 0.000000 2.492167
v 2.562286 0.000000 0.884410
v 7.480133 0.000000 0.800344
v 7.616739 0.000000 4.972106
v 2.583303 0.000000 5.045664
v 2.560869 -1.524385 2.488212
v 2.539852 -1.524385 0.880455
v 7.457699 -1.524385 0.796389
v 7.594306 -1.524385 4.968151
v 2.560870 -1.524385 5.041708
v 2.583303 0.000000 5.045664
v 2.583303 0.000000 5.045664
v 2.605824 1.530411 2.496138
v 2.584808 1.530411 0.888381
v 7.502655 1.530411 0.804315
v 7.639261 1.530411 4.976078
v 2.605825 1.530411 5.049635
vt 0.000000 0.000000
vt 0.000000 0.000000
vt 0.000000 0.000000
vt 0.000000 0.000000
vt 0.000000 0.000000
vt 0.000000 0.000000
vt 0.000000 0.000000
vt 0.000000 0.000000
vt 0.000000 0.000000
vt 0.000000 0.000000
vt 0.000000 0.000000
vt 0.000000 0.000000
vt 0.000000 0.000000
vt 0.000000 0.000000
vt 0.000000 0.000000
vn 0.9999 -0.0147 -0.0000
vn 0.0000 1.0000 0.0000
vn -0.0146 0.0028 -0.9999
vn 0.0171 -0.0028 0.9998
vn -0.9994 0.0146 0.0327
vn 0.9998 -0.0147 -0.0131
vn 0.0000 -1.0000 0.0000
usemtl None
s off
f 133/125/60 141/126/60 145/127/60
f 136/128/61 135/129/61 134/130/61
f 133/125/62 137/131/62 138/132/62
f 130/133/63 136/128/63 131/134/63
f 129/135/60 138/132/60 134/130/60
f 131/134/64 137/131/64 132/136/64
f 130/133/65 134/130/65 135/129/65
f 141/126/66 143/137/66 144/138/66
f 132/136/64 143/137/64 131/134/64
f 129/135/65 142/139/65 141/126/65
f 132/136/62 145/127/62 144/138/62
f 131/134/63 142/139/63 130/133/63
f 133/125/60 129/135/60 141/126/60
f 134/130/61 138/132/61 137/131/61
f 137/131/61 136/128/61 134/130/61
f 133/125/62 132/136/62 137/131/62
f 130/133/63 135/129/63 136/128/63
f 129/135/60 133/125/60 138/132/60
f 131/134/64 136/128/64 137/131/64
f 130/133/65 129/135/65 134/130/65
f 144/138/66 145/127/66 141/126/66
f 141/126/66 142/139/66 143/137/66
f 132/136/64 144/138/64 143/137/64
f 129/135/65 130/133/65 142/139/65
f 132/136/62 133/125/62 145/127/62
f 131/134/63 143/137/63 142/139/63
l 133 139
l 139 140
o bathroom
v -5.539555 0.000000 5.136806
v 2.583305 0.000000 5.021214
v -5.529047 0.000000 2.614830
v 2.604322 0.000000 2.478224
v -5.539555 0.000000 5.136806
v -5.561988 -1.524385 5.132850
v 2.560872 -1.524385 5.017260
v -5.551480 -1.524385 2.610875
v 2.581889 -1.524385 2.474268
v -5.561988 -1.524385 5.132850
v 2.583305 0.000000 5.021214
v -5.529047 0.000000 2.614830
v 2.604322 0.000000 2.478224
v -5.539555 0.000000 5.136806
v 2.583305 0.000000 5.021214
v -5.529047 0.000000 2.614830
v 2.604322 0.000000 2.478224
v -5.539555 0.000000 5.136806
v -5.517033 1.530411 5.140776
v -5.517033 1.530411 5.140776
v 2.605827 1.530411 5.025186
v 2.626844 1.530411 2.482194
v -5.506525 1.530411 2.618802
vt 0.000000 0.000000
vt 0.000000 0.000000
vt 0.000000 0.000000
vt 0.000000 0.000000
vt 0.000000 0.000000
vt 0.000000 0.000000
vt 0.000000 0.000000
vt 0.000000 0.000000
vt 0.000000 0.000000
vt 0.000000 0.000000
vt 0.000000 0.000000
vt 0.000000 0.000000
vt 0.000000 0.000000
vt 0.000000 0.000000
vt 0.000000 0.000000
vt 0.000000 0.000000
vt 0.000000 0.000000
vt 0.000000 0.000000
vt 0.000000 0.000000
vt 0.000000 0.000000
vt 0.000000 0.000000
vt 0.000000 0.000000
vt 0.000000 0.000000
vn -0.0168 0.0028 -0.9999
vn 0.0000 -1.0000 0.0000
vn 0.9999 -0.0147 0.0083
vn 0.0000 0.0000 1.0000
vn 0.0142 -0.0028 0.9999
vn -0.9999 0.0147 -0.0042
vn 0.0000 1.0000 0.0000
usemtl None
s off
f 149/140/67 168/141/67 167/142/67
f 153/143/68 152/144/68 151/145/68
f 149/140/69 152/144/69 154/146/69
f 150/147/70 151/145/70 146/148/70
f 148/149/67 154/146/67 153/143/67
f 146/148/71 152/144/71 147/150/71
f 148/149/72 155/151/72 150/147/72
f 150/147/70 157/152/70 148/149/70
f 148/149/70 158/153/70 149/140/70
f 149/140/70 156/154/70 147/150/70
f 159/155/70 161/156/70 157/152/70
f 157/152/70 162/157/70 158/153/70
f 158/153/70 160/158/70 156/154/70
f 165/159/73 166/160/73 168/141/73
f 147/150/71 164/161/71 146/148/71
f 150/147/72 168/141/72 148/149/72
f 147/150/69 167/142/69 166/160/69
f 146/148/70 165/159/70 150/147/70
f 149/140/67 148/149/67 168/141/67
f 153/143/68 154/146/68 152/144/68
f 151/145/70 155/151/70 153/143/70
f 149/140/69 147/150/69 152/144/69
f 150/147/70 155/151/70 151/145/70
f 148/149/67 149/140/67 154/146/67
f 146/148/71 151/145/71 152/144/71
f 148/149/72 153/143/72 155/151/72
f 150/147/70 159/155/70 157/152/70
f 148/149/70 157/152/70 158/153/70
f 149/140/70 158/153/70 156/154/70
f 159/155/70 163/162/70 161/156/70
f 157/152/70 161/156/70 162/157/70
f 158/153/70 162/157/70 160/158/70
f 166/160/73 167/142/73 168/141/73
f 165/159/70 164/161/70 166/160/70
f 147/150/71 166/160/71 164/161/71
f 150/147/72 165/159/72 168/141/72
f 147/150/69 149/140/69 167/142/69
f 146/148/70 164/161/70 165/159/70
