# Blender 4.0.2
# www.blender.org
mtllib sajay_coll_new.mtl
o obstacle_3
v -3.675000 -4.909010 1.500000
v -4.800344 -4.888669 1.500000
v -4.817295 -3.193601 1.500000
v -3.691950 -3.213941 1.500000
v -3.675000 -4.909010 -1.500000
v -4.800344 -4.888669 -1.500000
v -4.817295 -3.193601 -1.500000
v -3.691950 -3.213941 -1.500000
vn -0.0000 -0.0000 -1.0000
vn -0.0000 -0.0000 1.0000
vn -0.0181 -0.9998 -0.0000
vn 0.0181 0.9998 -0.0000
vn -1.0000 -0.0100 -0.0000
vn 1.0000 0.0100 -0.0000
vt 1.000000 1.000000
vt 1.000000 0.000000
s 0
f 2/1/1 4/2/1 1/2/1
f 6/1/2 8/2/2 7/1/2
f 3/1/3 8/2/3 4/2/3
f 1/2/4 6/1/4 2/1/4
f 4/2/5 5/2/5 1/2/5
f 2/1/6 7/1/6 3/1/6
f 2/1/1 3/1/1 4/2/1
f 6/1/2 5/2/2 8/2/2
f 3/1/3 7/1/3 8/2/3
f 1/2/4 5/2/4 6/1/4
f 4/2/5 8/2/5 5/2/5
f 2/1/6 6/1/6 7/1/6
o bathroom_door
v 2.603535 4.003845 1.500000
v 2.603535 4.715774 1.500000
v 0.959318 3.969944 1.500000
v 0.959318 4.681873 1.500000
v 2.603535 4.715774 -1.500000
v 2.603535 4.003845 -1.500000
v 0.959318 4.681873 -1.500000
v 0.959318 3.969944 -1.500000
vn -0.0000 -0.0000 -1.0000
vn -0.0000 -0.0000 1.0000
vn -1.0000 -0.0000 -0.0000
vn 0.0206 -0.9998 -0.0000
vn 1.0000 -0.0000 -0.0000
vn -0.0206 0.9998 -0.0000
vt 0.000000 0.000000
s 0
f 9/3/7 12/3/7 10/3/7
f 14/3/8 15/3/8 16/3/8
f 10/3/9 14/3/9 9/3/9
f 12/3/10 13/3/10 10/3/10
f 11/3/11 15/3/11 12/3/11
f 9/3/12 16/3/12 11/3/12
f 9/3/7 11/3/7 12/3/7
f 14/3/8 13/3/8 15/3/8
f 10/3/9 13/3/9 14/3/9
f 12/3/10 15/3/10 13/3/10
f 11/3/11 16/3/11 15/3/11
f 9/3/12 14/3/12 16/3/12
o bedroom_door
v 0.037200 7.570267 1.500000
v 0.054151 6.960042 1.500000
v -1.471411 7.536366 1.500000
v -1.454460 6.926141 1.500000
v 0.037200 7.570267 -1.500000
v 0.054151 6.960042 -1.500000
v -1.471411 7.536366 -1.500000
v -1.454460 6.926141 -1.500000
vn -0.0000 -0.0000 -1.0000
vn -0.0000 -0.0000 1.0000
vn -0.0225 0.9997 -0.0000
vn -0.9996 -0.0278 -0.0000
vn 0.0225 -0.9997 -0.0000
vn 0.9996 0.0278 -0.0000
vt 0.000000 0.000000
s 0
f 20/4/13 17/4/13 18/4/13
f 21/4/14 24/4/14 22/4/14
f 18/4/15 24/4/15 20/4/15
f 17/4/16 22/4/16 18/4/16
f 19/4/17 21/4/17 17/4/17
f 20/4/18 23/4/18 19/4/18
f 20/4/13 19/4/13 17/4/13
f 21/4/14 23/4/14 24/4/14
f 18/4/15 22/4/15 24/4/15
f 17/4/16 21/4/16 22/4/16
f 19/4/17 23/4/17 21/4/17
f 20/4/18 24/4/18 23/4/18
o obstacles
v -3.658049 -6.125888 1.500000
v -3.675000 -4.909010 1.500000
v -4.783393 -6.105547 1.500000
v -4.800344 -4.888669 1.500000
v -3.658049 -6.939522 1.500000
v -4.783393 -6.919181 1.500000
v -3.658049 -8.098948 1.500000
v -4.783393 -8.078608 1.500000
v 2.789992 -6.878499 1.500000
v 2.789992 -8.037926 1.500000
v 3.969760 -6.837818 1.500000
v 3.969760 -7.997244 1.500000
v 2.579803 7.671972 1.500000
v 3.759572 7.712654 1.500000
v 2.647606 8.722914 1.500000
v 3.827374 8.763596 1.500000
v 0.850833 7.631290 1.500000
v 0.918636 8.682232 1.500000
v 0.037200 7.570267 1.500000
v 0.105003 8.621210 1.500000
v 0.918636 9.434843 1.500000
v 0.105003 9.373819 1.500000
v 0.898295 10.614611 1.500000
v 0.084662 10.553587 1.500000
v -4.715772 9.292456 1.500000
v -4.736113 10.472223 1.500000
v -5.875199 9.251774 1.500000
v -5.895540 10.431541 1.500000
v -4.227592 1.034081 1.500000
v -5.387019 0.993399 1.500000
v -4.817295 -3.193601 1.500000
v -3.691950 -3.213941 1.500000
v -3.708901 -2.603716 1.500000
v -4.834246 -2.583376 1.500000
v -0.793382 -3.213941 1.500000
v -0.810333 -2.603716 1.500000
v -0.098404 -3.196990 1.500000
v -0.115355 -2.586766 1.500000
v -0.861185 -0.552683 1.500000
v -0.166207 -0.535732 1.500000
v 2.756091 -3.047643 1.500000
v 3.935859 -3.006962 1.500000
v 2.722190 -2.047553 1.500000
v 3.901958 -2.006871 1.500000
v 2.637436 0.410297 1.500000
v 3.817204 0.450979 1.500000
v 2.620486 1.647698 1.500000
v 3.800254 1.688379 1.500000
v 2.603535 4.003845 1.500000
v 3.783303 4.044526 1.500000
v 1.970396 0.322012 1.500000
v 2.055149 -2.135837 1.500000
v 2.722190 -2.047553 1.500000
v 2.637436 0.410297 1.500000
v 1.953445 1.559413 1.500000
v 1.970396 0.322012 1.500000
v 2.055149 -2.135837 1.500000
v 2.089050 -3.135928 1.500000
v 0.867784 7.021065 1.500000
v 0.054151 6.960042 1.500000
v -1.471411 7.536366 1.500000
v -1.454460 6.926141 1.500000
v 2.603535 4.715774 1.500000
v 3.783303 4.756455 1.500000
v 0.959318 3.969944 1.500000
v 0.959318 4.681873 1.500000
v -0.040772 3.936042 1.500000
v -0.040772 4.647972 1.500000
v -4.556437 7.485514 1.500000
v -4.539486 6.875289 1.500000
v -5.810788 7.485514 1.500000
v -5.793837 6.875289 1.500000
v 0.740686 -2.175075 1.500000
v 0.774588 -3.175166 1.500000
v -4.783393 -6.105547 -1.500000
v -3.658049 -6.125888 -1.500000
v -3.675000 -4.909010 -1.500000
v -4.800344 -4.888669 -1.500000
v -4.783393 -6.919181 -1.500000
v -3.658049 -6.939522 -1.500000
v -4.783393 -8.078608 -1.500000
v -3.658049 -8.098948 -1.500000
v 2.789992 -8.037926 -1.500000
v 2.789992 -6.878499 -1.500000
v 3.969760 -7.997244 -1.500000
v 3.969760 -6.837818 -1.500000
v 3.759572 7.712654 -1.500000
v 2.579803 7.671972 -1.500000
v 2.756091 -3.047643 -1.500000
v 3.935859 -3.006962 -1.500000
v 3.827374 8.763596 -1.500000
v 2.647606 8.722914 -1.500000
v 0.918636 8.682232 -1.500000
v 0.850833 7.631290 -1.500000
v 0.105003 8.621210 -1.500000
v 0.037200 7.570267 -1.500000
v 0.918636 9.434843 -1.500000
v 0.105003 9.373819 -1.500000
v 0.898295 10.614611 -1.500000
v 0.084662 10.553587 -1.500000
v -4.736113 10.472223 -1.500000
v -4.715772 9.292456 -1.500000
v -5.895540 10.431541 -1.500000
v -5.875199 9.251774 -1.500000
v -5.387019 0.993399 -1.500000
v -4.227592 1.034081 -1.500000
v -4.834246 -2.583376 -1.500000
v -4.817295 -3.193601 -1.500000
v -3.708901 -2.603716 -1.500000
v -3.691950 -3.213941 -1.500000
v -0.793382 -3.213941 -1.500000
v -0.810333 -2.603716 -1.500000
v -0.098404 -3.196990 -1.500000
v -0.115355 -2.586766 -1.500000
v -0.166207 -0.535732 -1.500000
v -0.861185 -0.552683 -1.500000
v 3.901958 -2.006871 -1.500000
v 2.722190 -2.047553 -1.500000
v 3.817204 0.450979 -1.500000
v 2.637436 0.410297 -1.500000
v 3.800254 1.688379 -1.500000
v 2.620486 1.647698 -1.500000
v 3.783303 4.044526 -1.500000
v 2.603535 4.003845 -1.500000
v 2.603535 4.715774 -1.500000
v 3.783303 4.756455 -1.500000
v 2.055149 -2.135837 -1.500000
v 2.089050 -3.135928 -1.500000
v 1.953445 1.559413 -1.500000
v 2.637436 0.410297 -1.500000
v 2.722190 -2.047553 -1.500000
v 1.970396 0.322012 -1.500000
v 1.970396 0.322012 -1.500000
v 2.055149 -2.135837 -1.500000
v 0.054151 6.960042 -1.500000
v 0.867784 7.021065 -1.500000
v -1.471411 7.536366 -1.500000
v -1.454460 6.926141 -1.500000
v 0.959318 4.681873 -1.500000
v 0.959318 3.969944 -1.500000
v -0.040772 4.647972 -1.500000
v -0.040772 3.936042 -1.500000
v -4.556437 7.485514 -1.500000
v -4.539486 6.875289 -1.500000
v -5.810788 7.485514 -1.500000
v -5.793837 6.875289 -1.500000
v 0.740686 -2.175075 -1.500000
v 0.774588 -3.175166 -1.500000
vn -0.0000 -0.0000 -1.0000
vn -0.0000 -0.0000 1.0000
vn 0.9979 -0.0644 -0.0000
vn 0.9994 0.0339 -0.0000
vn 0.9994 0.0345 -0.0000
vn -0.0244 0.9997 -0.0000
vn -0.0298 0.9996 -0.0000
vn 0.9999 0.0137 -0.0000
vn 0.0244 -0.9997 -0.0000
vn -0.9999 -0.0139 -0.0000
vn 0.0298 -0.9996 -0.0000
vn 0.9997 0.0248 -0.0000
vn -0.0181 -0.9998 -0.0000
vn -0.9997 -0.0248 -0.0000
vn 1.0000 -0.0000 -0.0000
vn 0.9999 0.0139 -0.0000
vn -0.9996 -0.0278 -0.0000
vn -1.0000 -0.0088 -0.0000
vn -1.0000 -0.0000 -0.0000
vn 0.9996 0.0278 -0.0000
vn 0.0748 -0.9972 -0.0000
vn -0.9994 -0.0339 -0.0000
vn -0.9999 -0.0172 -0.0000
vn 0.0181 0.9998 -0.0000
vn -1.0000 -0.0080 -0.0000
vn 1.0000 0.0080 -0.0000
vn -0.0169 0.9999 -0.0000
vn -0.9994 -0.0345 -0.0000
vn 0.0169 -0.9999 -0.0000
vn 0.9999 0.0172 -0.0000
vn 0.0095 -1.0000 -0.0000
vn -0.0339 0.9994 -0.0000
vn -0.0095 1.0000 -0.0000
vn -0.9999 -0.0137 -0.0000
vn 0.0351 -0.9994 -0.0000
vn 0.9992 -0.0410 -0.0000
vn -0.9992 -0.0391 -0.0000
vn 1.0000 0.0072 -0.0000
vn -0.0345 0.9994 -0.0000
vn -1.0000 -0.0072 -0.0000
vn -0.0165 0.9999 -0.0000
vn 1.0000 0.0088 -0.0000
vn 0.0165 -0.9999 -0.0000
vn -0.9900 -0.1412 -0.0000
vn 0.1312 -0.9914 -0.0000
vn 0.9883 0.1527 -0.0000
vn 0.0345 -0.9994 -0.0000
vn -0.1312 0.9914 -0.0000
vn -0.9979 0.0644 -0.0000
vn 0.9976 0.0690 -0.0000
vn -0.0000 -1.0000 -0.0000
vn -0.9986 -0.0533 -0.0000
vn -0.0000 1.0000 -0.0000
vn -0.0235 0.9997 -0.0000
vn 0.9993 0.0364 -0.0000
vn 0.0235 -0.9997 -0.0000
vn -0.9961 -0.0878 -0.0000
vt 0.000000 1.000000
vt 1.000000 0.000000
vt 0.000000 0.000000
vt 1.000000 1.000000
s 0
f 27/5/19 26/6/19 25/7/19
f 25/7/19 30/5/19 27/5/19
f 29/7/19 32/5/19 30/5/19
f 29/7/19 34/7/19 31/7/19
f 33/7/19 36/7/19 34/7/19
f 65/7/19 35/7/19 33/7/19
f 39/7/19 38/7/19 37/7/19
f 37/7/19 42/7/19 39/7/19
f 41/7/19 44/7/19 42/7/19
f 46/7/19 42/7/19 44/7/19
f 48/7/19 45/7/19 46/7/19
f 49/7/19 48/7/19 46/7/19
f 49/7/19 52/7/19 50/7/19
f 53/7/19 58/8/19 54/7/19
f 55/8/19 57/6/19 56/6/19
f 60/6/19 56/6/19 57/6/19
f 62/6/19 59/6/19 60/6/19
f 60/6/19 64/6/19 62/6/19
f 67/7/19 66/7/19 65/7/19
f 67/7/19 70/7/19 68/7/19
f 71/7/19 70/7/19 69/7/19
f 73/7/19 72/7/19 71/7/19
f 87/7/19 74/7/19 73/7/19
f 65/7/19 81/7/19 67/7/19
f 69/7/19 79/7/19 71/7/19
f 77/7/19 75/7/19 78/7/19
f 83/7/19 43/7/19 41/7/19
f 37/7/19 88/7/19 87/7/19
f 89/7/19 92/7/19 90/7/19
f 84/7/19 90/7/19 92/7/19
f 94/7/19 85/7/19 86/7/19
f 96/7/19 93/7/19 94/7/19
f 54/7/19 94/7/19 53/7/19
f 49/7/19 95/7/19 51/7/19
f 98/7/19 81/7/19 82/7/19
f 101/6/20 99/5/20 100/7/20
f 100/7/20 103/5/20 104/7/20
f 104/7/20 105/5/20 106/7/20
f 104/7/20 107/7/20 108/7/20
f 108/7/20 109/7/20 110/7/20
f 110/7/20 113/7/20 108/7/20
f 111/7/20 116/7/20 112/7/20
f 112/7/20 117/7/20 118/7/20
f 118/7/20 119/7/20 120/7/20
f 117/7/20 122/7/20 119/7/20
f 121/7/20 124/7/20 122/7/20
f 124/7/20 126/7/20 122/7/20
f 126/7/20 127/7/20 128/7/20
f 131/8/20 130/7/20 129/7/20
f 132/8/20 133/6/20 131/8/20
f 134/6/20 136/6/20 133/6/20
f 135/6/20 138/6/20 136/6/20
f 136/6/20 139/6/20 140/6/20
f 114/7/20 142/7/20 113/7/20
f 142/7/20 143/7/20 144/7/20
f 143/7/20 146/7/20 144/7/20
f 145/7/20 148/7/20 146/7/20
f 147/7/20 149/7/20 148/7/20
f 113/7/20 151/7/20 152/7/20
f 144/7/20 153/7/20 156/7/20
f 155/7/20 157/7/20 158/7/20
f 120/7/20 160/7/20 118/7/20
f 112/7/20 150/7/20 111/7/20
f 164/7/20 165/7/20 166/7/20
f 159/7/20 163/7/20 160/7/20
f 161/7/20 168/7/20 162/7/20
f 167/7/20 170/7/20 168/7/20
f 168/7/20 129/7/20 130/7/20
f 169/7/20 126/7/20 128/7/20
f 151/7/20 172/7/20 152/7/20
f 43/7/21 119/7/21 44/7/21
f 98/7/22 171/7/22 97/7/22
f 76/7/23 157/7/23 75/7/23
f 61/6/24 135/6/24 59/6/24
f 82/7/25 172/7/25 98/7/25
f 80/7/26 153/7/26 79/7/26
f 63/6/27 139/6/27 64/6/27
f 26/6/28 100/7/28 25/7/28
f 97/7/29 151/7/29 81/7/29
f 60/6/30 140/6/30 63/6/30
f 28/8/31 101/6/31 26/6/31
f 64/6/32 138/6/32 62/6/32
f 44/7/33 122/7/33 46/7/33
f 27/5/34 102/8/34 28/8/34
f 41/7/35 160/7/35 83/7/35
f 66/7/36 110/7/36 35/7/36
f 45/7/37 117/7/37 42/7/37
f 84/7/38 120/7/38 43/7/38
f 48/7/39 123/7/39 47/7/39
f 25/7/37 104/7/37 29/7/37
f 85/7/35 162/7/35 86/7/35
f 30/5/33 99/5/33 27/5/33
f 88/7/37 147/7/37 74/7/37
f 68/7/40 114/7/40 66/7/40
f 47/7/41 121/7/41 45/7/41
f 31/7/42 105/5/42 32/5/42
f 38/7/43 150/7/43 88/7/43
f 87/7/44 112/7/44 37/7/44
f 67/7/23 144/7/23 69/7/23
f 46/7/45 126/7/45 49/7/45
f 32/5/33 103/5/33 30/5/33
f 90/7/37 164/7/37 89/7/37
f 70/7/46 141/7/46 68/7/46
f 50/7/47 124/7/47 48/7/47
f 91/7/33 165/7/33 92/7/33
f 51/7/48 127/7/48 52/7/48
f 29/7/49 108/7/49 33/7/49
f 89/7/50 166/7/50 91/7/50
f 34/7/51 106/7/51 31/7/51
f 72/7/52 143/7/52 70/7/52
f 52/7/53 125/7/53 50/7/53
f 35/7/37 109/7/37 36/7/37
f 92/7/54 159/7/54 84/7/54
f 83/7/55 163/7/55 90/7/55
f 71/7/56 148/7/56 73/7/56
f 55/8/38 131/8/38 58/8/38
f 36/7/57 107/7/57 34/7/57
f 74/7/58 145/7/58 72/7/58
f 86/7/59 168/7/59 94/7/59
f 73/7/33 149/7/33 87/7/33
f 56/6/42 132/8/42 55/8/42
f 33/7/60 113/7/60 65/7/60
f 93/7/61 161/7/61 85/7/61
f 53/7/62 133/6/62 57/6/62
f 96/7/38 169/7/38 95/7/38
f 81/7/63 142/7/63 67/7/63
f 58/8/64 129/7/64 54/7/64
f 39/7/65 115/7/65 40/7/65
f 65/7/66 152/7/66 82/7/66
f 79/7/63 146/7/63 71/7/63
f 40/7/67 111/7/67 38/7/67
f 54/7/68 170/7/68 96/7/68
f 78/7/46 155/7/46 77/7/46
f 57/6/69 136/6/69 60/6/69
f 94/7/70 130/7/70 53/7/70
f 69/7/66 156/7/66 80/7/66
f 59/6/71 134/6/71 56/6/71
f 37/7/72 118/7/72 41/7/72
f 95/7/73 128/7/73 51/7/73
f 75/7/63 154/7/63 78/7/63
f 62/6/35 137/6/35 61/6/35
f 42/7/74 116/7/74 39/7/74
f 49/7/75 167/7/75 93/7/75
f 77/7/66 158/7/66 76/7/66
f 27/5/19 28/8/19 26/6/19
f 25/7/19 29/7/19 30/5/19
f 29/7/19 31/7/19 32/5/19
f 29/7/19 33/7/19 34/7/19
f 33/7/19 35/7/19 36/7/19
f 65/7/19 66/7/19 35/7/19
f 39/7/19 40/7/19 38/7/19
f 37/7/19 41/7/19 42/7/19
f 41/7/19 43/7/19 44/7/19
f 46/7/19 45/7/19 42/7/19
f 48/7/19 47/7/19 45/7/19
f 49/7/19 50/7/19 48/7/19
f 49/7/19 51/7/19 52/7/19
f 53/7/19 57/6/19 58/8/19
f 55/8/19 58/8/19 57/6/19
f 60/6/19 59/6/19 56/6/19
f 62/6/19 61/6/19 59/6/19
f 60/6/19 63/6/19 64/6/19
f 67/7/19 68/7/19 66/7/19
f 67/7/19 69/7/19 70/7/19
f 71/7/19 72/7/19 70/7/19
f 73/7/19 74/7/19 72/7/19
f 87/7/19 88/7/19 74/7/19
f 65/7/19 82/7/19 81/7/19
f 69/7/19 80/7/19 79/7/19
f 77/7/19 76/7/19 75/7/19
f 83/7/19 84/7/19 43/7/19
f 37/7/19 38/7/19 88/7/19
f 89/7/19 91/7/19 92/7/19
f 84/7/19 83/7/19 90/7/19
f 94/7/19 93/7/19 85/7/19
f 96/7/19 95/7/19 93/7/19
f 54/7/19 96/7/19 94/7/19
f 49/7/19 93/7/19 95/7/19
f 98/7/19 97/7/19 81/7/19
f 101/6/20 102/8/20 99/5/20
f 100/7/20 99/5/20 103/5/20
f 104/7/20 103/5/20 105/5/20
f 104/7/20 106/7/20 107/7/20
f 108/7/20 107/7/20 109/7/20
f 110/7/20 114/7/20 113/7/20
f 111/7/20 115/7/20 116/7/20
f 112/7/20 116/7/20 117/7/20
f 118/7/20 117/7/20 119/7/20
f 117/7/20 121/7/20 122/7/20
f 121/7/20 123/7/20 124/7/20
f 124/7/20 125/7/20 126/7/20
f 126/7/20 125/7/20 127/7/20
f 131/8/20 133/6/20 130/7/20
f 132/8/20 134/6/20 133/6/20
f 134/6/20 135/6/20 136/6/20
f 135/6/20 137/6/20 138/6/20
f 136/6/20 138/6/20 139/6/20
f 114/7/20 141/7/20 142/7/20
f 142/7/20 141/7/20 143/7/20
f 143/7/20 145/7/20 146/7/20
f 145/7/20 147/7/20 148/7/20
f 147/7/20 150/7/20 149/7/20
f 113/7/20 142/7/20 151/7/20
f 144/7/20 146/7/20 153/7/20
f 155/7/20 154/7/20 157/7/20
f 120/7/20 159/7/20 160/7/20
f 112/7/20 149/7/20 150/7/20
f 164/7/20 163/7/20 165/7/20
f 159/7/20 165/7/20 163/7/20
f 161/7/20 167/7/20 168/7/20
f 167/7/20 169/7/20 170/7/20
f 168/7/20 170/7/20 129/7/20
f 169/7/20 167/7/20 126/7/20
f 151/7/20 171/7/20 172/7/20
f 43/7/21 120/7/21 119/7/21
f 98/7/22 172/7/22 171/7/22
f 76/7/23 158/7/23 157/7/23
f 61/6/24 137/6/24 135/6/24
f 82/7/25 152/7/25 172/7/25
f 80/7/26 156/7/26 153/7/26
f 63/6/27 140/6/27 139/6/27
f 26/6/28 101/6/28 100/7/28
f 97/7/29 171/7/29 151/7/29
f 60/6/30 136/6/30 140/6/30
f 28/8/31 102/8/31 101/6/31
f 64/6/32 139/6/32 138/6/32
f 44/7/33 119/7/33 122/7/33
f 27/5/34 99/5/34 102/8/34
f 41/7/35 118/7/35 160/7/35
f 66/7/36 114/7/36 110/7/36
f 45/7/37 121/7/37 117/7/37
f 84/7/38 159/7/38 120/7/38
f 48/7/39 124/7/39 123/7/39
f 25/7/37 100/7/37 104/7/37
f 85/7/35 161/7/35 162/7/35
f 30/5/33 103/5/33 99/5/33
f 88/7/37 150/7/37 147/7/37
f 68/7/40 141/7/40 114/7/40
f 47/7/41 123/7/41 121/7/41
f 31/7/42 106/7/42 105/5/42
f 38/7/43 111/7/43 150/7/43
f 87/7/44 149/7/44 112/7/44
f 67/7/23 142/7/23 144/7/23
f 46/7/45 122/7/45 126/7/45
f 32/5/33 105/5/33 103/5/33
f 90/7/37 163/7/37 164/7/37
f 70/7/46 143/7/46 141/7/46
f 50/7/47 125/7/47 124/7/47
f 91/7/33 166/7/33 165/7/33
f 51/7/48 128/7/48 127/7/48
f 29/7/49 104/7/49 108/7/49
f 89/7/50 164/7/50 166/7/50
f 34/7/51 107/7/51 106/7/51
f 72/7/52 145/7/52 143/7/52
f 52/7/53 127/7/53 125/7/53
f 35/7/37 110/7/37 109/7/37
f 92/7/54 165/7/54 159/7/54
f 83/7/55 160/7/55 163/7/55
f 71/7/56 146/7/56 148/7/56
f 55/8/38 132/8/38 131/8/38
f 36/7/57 109/7/57 107/7/57
f 74/7/58 147/7/58 145/7/58
f 86/7/59 162/7/59 168/7/59
f 73/7/33 148/7/33 149/7/33
f 56/6/42 134/6/42 132/8/42
f 33/7/60 108/7/60 113/7/60
f 93/7/61 167/7/61 161/7/61
f 53/7/62 130/7/62 133/6/62
f 96/7/38 170/7/38 169/7/38
f 81/7/63 151/7/63 142/7/63
f 58/8/64 131/8/64 129/7/64
f 39/7/65 116/7/65 115/7/65
f 65/7/66 113/7/66 152/7/66
f 79/7/63 153/7/63 146/7/63
f 40/7/67 115/7/67 111/7/67
f 54/7/68 129/7/68 170/7/68
f 78/7/46 154/7/46 155/7/46
f 57/6/69 133/6/69 136/6/69
f 94/7/70 168/7/70 130/7/70
f 69/7/66 144/7/66 156/7/66
f 59/6/71 135/6/71 134/6/71
f 37/7/72 112/7/72 118/7/72
f 95/7/73 169/7/73 128/7/73
f 75/7/63 157/7/63 154/7/63
f 62/6/35 138/6/35 137/6/35
f 42/7/74 117/7/74 116/7/74
f 49/7/75 126/7/75 167/7/75
f 77/7/66 155/7/66 158/7/66
o door
v -1.029613 1.493274 -1.500000
v -1.012116 1.874833 -1.500000
v -2.049800 1.440784 -1.500000
v -2.032303 1.822343 -1.500000
v -2.049800 1.440784 1.500000
v -1.029613 1.493274 1.500000
v -1.012116 1.874833 1.500000
v -2.032303 1.822343 1.500000
vn -0.0000 -0.0000 -1.0000
vn -0.0000 -0.0000 1.0000
vn 0.9990 -0.0458 -0.0000
vn -0.0514 0.9987 -0.0000
vn 0.0514 -0.9987 -0.0000
vn -0.9990 0.0458 -0.0000
vt 0.000000 0.000000
vt 1.000000 1.000000
vt 1.000000 0.000000
vt 0.000000 1.000000
s 0
f 173/9/76 176/10/76 174/11/76
f 178/9/77 180/10/77 177/12/77
f 174/11/78 178/9/78 173/9/78
f 176/10/79 179/11/79 174/11/79
f 173/9/80 177/12/80 175/12/80
f 175/12/81 180/10/81 176/10/81
f 173/9/76 175/12/76 176/10/76
f 178/9/77 179/11/77 180/10/77
f 174/11/78 179/11/78 178/9/78
f 176/10/79 180/10/79 179/11/79
f 173/9/80 178/9/80 177/12/80
f 175/12/81 177/12/81 180/10/81
o obstacle_1
v -1.029613 1.493274 -1.500000
v -1.012116 1.874833 -1.500000
v -2.049800 1.440784 -1.500000
v -2.032303 1.822343 -1.500000
v -0.522209 1.493274 -1.500000
v -0.504713 1.874833 -1.500000
v -1.029613 3.484526 -1.500000
v -0.522209 3.484526 -1.500000
v -1.082103 3.878200 -1.500000
v -0.574699 3.878200 -1.500000
v -3.216695 3.458281 -1.500000
v -3.269185 3.851955 -1.500000
v -3.557880 3.467029 -1.500000
v -3.610370 3.860703 -1.500000
v -3.216695 2.644686 -1.500000
v -3.557880 2.653434 -1.500000
v -3.190450 2.198521 -1.500000
v -3.531635 2.207270 -1.500000
v -2.683047 2.662183 -1.500000
v -2.656802 2.216018 -1.500000
v -2.201889 2.714673 -1.500000
v -2.175644 2.268508 -1.500000
v -2.718040 1.796098 -1.500000
v -2.236882 1.848588 -1.500000
v -2.744285 1.376178 -1.500000
v -2.263127 1.428668 -1.500000
v -1.029613 1.493274 1.500000
v -1.012116 1.874833 1.500000
v -2.032303 1.822343 1.500000
v -2.049800 1.440784 1.500000
v -0.522209 1.493274 1.500000
v -0.504713 1.874833 1.500000
v -0.522209 3.484526 1.500000
v -1.029613 3.484526 1.500000
v -0.574699 3.878200 1.500000
v -1.082103 3.878200 1.500000
v -3.269185 3.851955 1.500000
v -3.216695 3.458281 1.500000
v -3.610370 3.860703 1.500000
v -3.557880 3.467029 1.500000
v -3.557880 2.653434 1.500000
v -3.216695 2.644686 1.500000
v -3.531635 2.207270 1.500000
v -3.190450 2.198521 1.500000
v -2.656802 2.216018 1.500000
v -2.683047 2.662183 1.500000
v -2.175644 2.268508 1.500000
v -2.201889 2.714673 1.500000
v -2.718040 1.796098 1.500000
v -2.236882 1.848588 1.500000
v -2.744285 1.376178 1.500000
v -2.263127 1.428668 1.500000
vn -0.0000 -0.0000 -1.0000
vn -0.0000 -0.0000 1.0000
vn 0.9990 -0.0458 -0.0000
vn 0.0256 0.9997 -0.0000
vn -0.9895 0.1443 -0.0000
vn -0.0328 0.9995 -0.0000
vn 0.1084 -0.9941 -0.0000
vn 0.9912 0.1322 -0.0000
vn 0.0328 -0.9995 -0.0000
vn 1.0000 -0.0000 -0.0000
vn 0.9983 0.0587 -0.0000
vn -0.0000 -1.0000 -0.0000
vn -1.0000 -0.0000 -0.0000
vn -0.9981 0.0624 -0.0000
vn 0.0120 -0.9999 -0.0000
vn -0.1084 0.9941 -0.0000
vn -0.0256 -0.9997 -0.0000
vn 0.1272 0.9919 -0.0000
vn -0.0120 0.9999 -0.0000
vn -0.9999 -0.0109 -0.0000
vn 0.0567 -0.9984 -0.0000
vn -0.9912 -0.1322 -0.0000
vn 0.9999 0.0109 -0.0000
vn -0.9983 -0.0587 -0.0000
vn -0.9990 0.0458 -0.0000
vn 0.9895 -0.1443 -0.0000
vn -0.0000 1.0000 -0.0000
vt 1.000000 0.000000
vt 0.000000 0.000000
vt 0.000000 1.000000
vt 1.000000 1.000000
s 0
f 182/13/82 185/14/82 181/14/82
f 182/13/82 188/13/82 186/13/82
f 187/13/82 190/13/82 188/13/82
f 191/13/82 189/13/82 187/13/82
f 193/13/82 192/13/82 191/13/82
f 191/13/82 196/13/82 193/13/82
f 195/13/82 198/13/82 196/13/82
f 199/13/82 197/13/82 195/13/82
f 199/13/82 202/13/82 200/13/82
f 204/13/82 200/13/82 202/13/82
f 206/13/82 203/13/82 204/13/82
f 183/15/82 204/13/82 184/16/82
f 208/13/83 211/14/83 212/13/83
f 208/13/83 213/13/83 214/13/83
f 214/13/83 215/13/83 216/13/83
f 216/13/83 218/13/83 214/13/83
f 217/13/83 220/13/83 218/13/83
f 218/13/83 221/13/83 222/13/83
f 222/13/83 223/13/83 224/13/83
f 224/13/83 226/13/83 222/13/83
f 226/13/83 227/13/83 228/13/83
f 225/13/83 230/13/83 227/13/83
f 229/13/83 232/13/83 230/13/83
f 230/13/83 210/15/83 209/16/83
f 184/16/84 210/15/84 183/15/84
f 194/13/85 217/13/85 192/13/85
f 203/13/86 225/13/86 200/13/86
f 195/13/87 226/13/87 199/13/87
f 186/13/84 211/14/84 185/14/84
f 206/13/88 231/13/88 205/13/88
f 190/13/89 213/13/89 188/13/89
f 200/13/90 224/13/90 197/13/90
f 191/13/91 222/13/91 195/13/91
f 201/13/92 227/13/92 202/13/92
f 185/14/93 207/14/93 181/14/93
f 196/13/94 220/13/94 193/13/94
f 205/13/95 229/13/95 203/13/95
f 187/13/96 218/13/96 191/13/96
f 199/13/97 228/13/97 201/13/97
f 197/13/98 223/13/98 198/13/98
f 204/13/99 209/16/99 184/16/99
f 192/13/100 216/13/100 189/13/100
f 182/13/101 214/13/101 187/13/101
f 183/15/102 232/13/102 206/13/102
f 193/13/103 219/13/103 194/13/103
f 188/13/104 212/13/104 186/13/104
f 198/13/105 221/13/105 196/13/105
f 181/14/106 208/13/106 182/13/106
f 202/13/107 230/13/107 204/13/107
f 189/13/108 215/13/108 190/13/108
f 182/13/82 186/13/82 185/14/82
f 182/13/82 187/13/82 188/13/82
f 187/13/82 189/13/82 190/13/82
f 191/13/82 192/13/82 189/13/82
f 193/13/82 194/13/82 192/13/82
f 191/13/82 195/13/82 196/13/82
f 195/13/82 197/13/82 198/13/82
f 199/13/82 200/13/82 197/13/82
f 199/13/82 201/13/82 202/13/82
f 204/13/82 203/13/82 200/13/82
f 206/13/82 205/13/82 203/13/82
f 183/15/82 206/13/82 204/13/82
f 208/13/83 207/14/83 211/14/83
f 208/13/83 212/13/83 213/13/83
f 214/13/83 213/13/83 215/13/83
f 216/13/83 217/13/83 218/13/83
f 217/13/83 219/13/83 220/13/83
f 218/13/83 220/13/83 221/13/83
f 222/13/83 221/13/83 223/13/83
f 224/13/83 225/13/83 226/13/83
f 226/13/83 225/13/83 227/13/83
f 225/13/83 229/13/83 230/13/83
f 229/13/83 231/13/83 232/13/83
f 230/13/83 232/13/83 210/15/83
f 184/16/84 209/16/84 210/15/84
f 194/13/85 219/13/85 217/13/85
f 203/13/86 229/13/86 225/13/86
f 195/13/87 222/13/87 226/13/87
f 186/13/84 212/13/84 211/14/84
f 206/13/88 232/13/88 231/13/88
f 190/13/89 215/13/89 213/13/89
f 200/13/90 225/13/90 224/13/90
f 191/13/91 218/13/91 222/13/91
f 201/13/92 228/13/92 227/13/92
f 185/14/93 211/14/93 207/14/93
f 196/13/94 221/13/94 220/13/94
f 205/13/95 231/13/95 229/13/95
f 187/13/96 214/13/96 218/13/96
f 199/13/97 226/13/97 228/13/97
f 197/13/98 224/13/98 223/13/98
f 204/13/99 230/13/99 209/16/99
f 192/13/100 217/13/100 216/13/100
f 182/13/101 208/13/101 214/13/101
f 183/15/102 210/15/102 232/13/102
f 193/13/103 220/13/103 219/13/103
f 188/13/104 213/13/104 212/13/104
f 198/13/105 223/13/105 221/13/105
f 181/14/106 207/14/106 208/13/106
f 202/13/107 227/13/107 230/13/107
f 189/13/108 216/13/108 215/13/108
